<?xml version="1.0" encoding="utf-8"?>
<!-- Generated by IcoMoon.io -->
<!DOCTYPE svg PUBLIC "-//W3C//DTD SVG 1.1//EN" "http://www.w3.org/Graphics/SVG/1.1/DTD/svg11.dtd">
<svg version="1.1" xmlns="http://www.w3.org/2000/svg" xmlns:xlink="http://www.w3.org/1999/xlink" width="32" height="32" viewBox="0 0 32 32">
<g id="icomoon-ignore">
	<line stroke-width="1" x1="" y1="" x2="" y2="" stroke="#449FDB" opacity=""></line>
</g>
	<path d="M25.23 16l-10.518 9.562c-0.756 0.688-0.756 1.803 0 2.489 0.756 0.688 1.981 0.688 2.738 0l11.887-10.807c0.379-0.344 0.567-0.794 0.567-1.244s-0.188-0.9-0.566-1.244l-11.887-10.807c-0.757-0.688-1.982-0.688-2.738 0s-0.756 1.802 0 2.488l10.517 9.563zM13.18 16l-10.518 9.562c-0.756 0.688-0.756 1.803 0 2.489 0.756 0.688 1.981 0.688 2.737 0l11.888-10.807c0.378-0.344 0.567-0.794 0.567-1.244s-0.189-0.901-0.566-1.244l-11.889-10.807c-0.756-0.688-1.981-0.688-2.737 0s-0.756 1.802 0 2.488l10.518 9.563z"></path>
</svg>
