<?xml version="1.0" encoding="utf-8"?>
<!-- Generated by IcoMoon.io -->
<!DOCTYPE svg PUBLIC "-//W3C//DTD SVG 1.1//EN" "http://www.w3.org/Graphics/SVG/1.1/DTD/svg11.dtd">
<svg version="1.1" xmlns="http://www.w3.org/2000/svg" xmlns:xlink="http://www.w3.org/1999/xlink" width="32" height="32" viewBox="0 0 32 32">
<g id="icomoon-ignore">
	<line stroke-width="1" x1="" y1="" x2="" y2="" stroke="#449FDB" opacity=""></line>
</g>
	<path d="M22.77 27.544c0.683 0.669 1.788 0.669 2.469 0 0.682-0.668 0.682-1.751 0-2.419l-9.485-9.293 9.485-9.293c0.682-0.668 0.682-1.751 0-2.419-0.681-0.667-1.786-0.667-2.469 0l-10.722 10.503c-0.34 0.333-0.511 0.772-0.511 1.209 0 0.438 0.171 0.876 0.511 1.209l10.722 10.503zM5.841 28.372h3.116c0.186 0 0.335-0.146 0.335-0.327v-23.585c0-0.18-0.149-0.326-0.335-0.326h-3.116c-0.185 0-0.334 0.146-0.334 0.326v23.585c0 0.181 0.149 0.327 0.334 0.327z"></path>
</svg>
