<?xml version="1.0" encoding="utf-8"?>
<!-- Generated by IcoMoon.io -->
<!DOCTYPE svg PUBLIC "-//W3C//DTD SVG 1.1//EN" "http://www.w3.org/Graphics/SVG/1.1/DTD/svg11.dtd">
<svg version="1.1" xmlns="http://www.w3.org/2000/svg" xmlns:xlink="http://www.w3.org/1999/xlink" width="37" height="32" viewBox="0 0 37 32">
<g id="icomoon-ignore">
	<line stroke-width="1" x1="" y1="" x2="" y2="" stroke="#449FDB" opacity=""></line>
</g>
	<path d="M30.788 0.916l-2.017 1.929c3.511 3.375 5.683 8.023 5.683 13.156 0 5.135-2.175 9.781-5.683 13.156l2.017 1.928c4.045-3.861 6.545-9.195 6.545-15.085s-2.5-11.224-6.545-15.084z"></path>
	<path d="M26.884 4.729l-1.975 1.887c2.5 2.411 4.047 5.724 4.047 9.384s-1.547 6.973-4.047 9.384l1.975 1.885c3.005-2.892 4.865-6.872 4.865-11.269s-1.86-8.377-4.865-11.271z"></path>
	<path d="M22.935 8.501l-1.975 1.887c1.489 1.443 2.411 3.424 2.411 5.612s-0.921 4.168-2.413 5.613l1.975 1.885c1.997-1.925 3.231-4.575 3.231-7.499 0.001-2.924-1.233-5.573-3.228-7.499z"></path>
	<path d="M17.82 0.736c-0.413-0.251-0.911-0.201-1.285 0.124l-8.871 7.769h-5.133c-0.665 0-1.293 0.3-1.765 0.837-0.492 0.56-0.765 1.309-0.765 2.112v8.843c0 0.803 0.273 1.555 0.763 2.109 0.473 0.541 1.103 0.84 1.767 0.84h5.133l8.871 7.769c0.216 0.187 0.471 0.284 0.728 0.284 0.189 0 0.381-0.055 0.557-0.161 0.415-0.251 0.675-0.757 0.675-1.312v-27.899c0.001-0.556-0.259-1.065-0.673-1.316zM16.029 27.045l-7.233-6.339c-0.213-0.185-0.467-0.285-0.729-0.285h-5.601v-4.42l0.064-4.423h5.537c0.263 0 0.516-0.1 0.728-0.285l7.235-6.336v22.088z"></path>
</svg>
