<?xml version="1.0" encoding="utf-8"?>
<!-- Generated by IcoMoon.io -->
<!DOCTYPE svg PUBLIC "-//W3C//DTD SVG 1.1//EN" "http://www.w3.org/Graphics/SVG/1.1/DTD/svg11.dtd">
<svg version="1.1" xmlns="http://www.w3.org/2000/svg" xmlns:xlink="http://www.w3.org/1999/xlink" width="32" height="32" viewBox="0 0 32 32">
<g id="icomoon-ignore">
	<line stroke-width="1" x1="" y1="" x2="" y2="" stroke="#449FDB" opacity=""></line>
</g>
	<path d="M16 0c-8.836 0-16 7.135-16 15.938s7.164 15.938 16 15.938c8.837 0 16-7.135 16-15.938s-7.163-15.938-16-15.938zM16 29.188c-7.646 0-13.312-5.57-13.312-13.188 0-7.616 5.666-13.312 13.312-13.312s13.312 5.634 13.312 13.25c0 7.616-5.666 13.25-13.312 13.25zM21.902 8.553l-5.86 5.841-5.259-5.841c-0.417-0.415-1.093-0.415-1.509 0s-0.417 1.088 0 1.502l5.26 5.842-5.946 5.921c-0.415 0.414-0.415 1.088 0 1.502 0.417 0.416 1.093 0.416 1.509 0l5.865-5.84 5.261 5.84c0.416 0.416 1.094 0.416 1.508 0 0.416-0.414 0.416-1.088 0-1.502l-5.265-5.839 5.947-5.923c0.416-0.415 0.416-1.087 0-1.502-0.417-0.415-1.093-0.415-1.511-0.001z"></path>
</svg>
