<?xml version="1.0" encoding="utf-8"?>
<!-- Generated by IcoMoon.io -->
<!DOCTYPE svg PUBLIC "-//W3C//DTD SVG 1.1//EN" "http://www.w3.org/Graphics/SVG/1.1/DTD/svg11.dtd">
<svg version="1.1" xmlns="http://www.w3.org/2000/svg" xmlns:xlink="http://www.w3.org/1999/xlink" width="32" height="32" viewBox="0 0 32 32">
<g id="icomoon-ignore">
	<line stroke-width="1" x1="" y1="" x2="" y2="" stroke="#449FDB" opacity=""></line>
</g>
	<path d="M21.833 2.083c-2.408 0-4.478 1.462-5.366 3.547 0.82 0.067 1.588 0.298 2.279 0.67 0.585-1.114 1.74-1.883 3.087-1.883 1.933 0 3.5 1.566 3.5 3.5s-1.567 3.5-3.5 3.5c0 0.812-0.168 1.583-0.467 2.287 0.157 0.013 0.308 0.047 0.467 0.047 3.223 0 5.834-2.611 5.834-5.833s-2.611-5.835-5.834-5.835z"></path>
	<path d="M6.667 7.916c0-1.934 1.567-3.5 3.5-3.5 1.346 0 2.501 0.769 3.087 1.883 0.69-0.372 1.458-0.603 2.279-0.67-0.89-2.085-2.958-3.547-5.367-3.547-3.221 0-5.833 2.611-5.833 5.833s2.612 5.833 5.833 5.833c0.16 0 0.311-0.034 0.467-0.047-0.298-0.704-0.467-1.475-0.467-2.287-1.933 0.002-3.499-1.564-3.499-3.498z"></path>
	<path d="M18.746 6.299c-0.69-0.372-1.459-0.603-2.279-0.67-0.156-0.013-0.307-0.046-0.467-0.046s-0.311 0.034-0.467 0.047c-0.821 0.067-1.589 0.298-2.279 0.67-1.83 0.984-3.087 2.895-3.087 5.117 0 0.812 0.168 1.583 0.467 2.287 0.89 2.085 2.958 3.546 5.367 3.546s4.478-1.461 5.366-3.546c0.299-0.704 0.467-1.475 0.467-2.287-0.001-2.223-1.259-4.133-3.088-5.118zM19.088 13.033c-0.586 1.114-1.741 1.883-3.088 1.883-1.346 0-2.501-0.769-3.087-1.883-0.256-0.485-0.413-1.030-0.413-1.617 0-0.38 0.076-0.738 0.188-1.081 0.166-0.505 0.432-0.963 0.791-1.338 0.637-0.664 1.528-1.081 2.521-1.081s1.885 0.417 2.521 1.081c0.358 0.375 0.625 0.833 0.791 1.338 0.112 0.343 0.188 0.701 0.188 1.081 0 0.587-0.157 1.132-0.412 1.617z"></path>
	<path d="M30 21.274c0-4.8-3.656-8.692-8.167-8.692-2.695 0-3.536 2.987-6.565 3.54 0.241-0.022 0.485-0.040 0.732-0.040 0.702 0 1.376 0.104 2.025 0.28 1.023-0.889 2.345-1.447 3.808-1.447 3.223 0 5.834 2.611 5.834 5.833 0 1.278-1.618 2.082-3.646 2.409 0.093 0.526 0.146 1.063 0.146 1.616 0 0.17-0.017 0.336-0.047 0.496 3.193-0.43 5.88-1.769 5.88-3.995z"></path>
	<path d="M7.976 23.16c-2.028-0.326-3.642-1.128-3.642-2.411 0-3.222 2.612-5.833 5.833-5.833 1.464 0 2.787 0.559 3.811 1.449 0.419-0.114 0.848-0.201 1.289-0.243 0.243-0.022 0.487-0.040 0.734-0.040 0.252 0 0.497 0.028 0.743 0.053-3.492-0.312-3.875-3.553-6.577-3.553-4.511 0.001-8.167 3.892-8.167 8.692 0 2.262 2.688 3.593 5.882 4.009-0.031-0.164-0.049-0.334-0.049-0.509 0-0.552 0.050-1.089 0.143-1.614z"></path>
	<path d="M24.021 23.158c-0.588-3.321-2.946-5.966-5.995-6.795-0.416-0.113-0.846-0.182-1.283-0.228-0.246-0.024-0.49-0.053-0.742-0.053-0.247 0-0.491 0.017-0.732 0.040-0.442 0.042-0.872 0.128-1.289 0.243-3.050 0.828-5.415 3.475-6.001 6.795-0.094 0.524-0.144 1.062-0.144 1.614 0 0.175 0.018 0.345 0.049 0.51 0.931 4.895 15.316 4.819 16.238-0.014 0.030-0.16 0.047-0.326 0.047-0.496-0.002-0.552-0.056-1.089-0.148-1.616zM10.167 24.249c0-3.222 2.613-5.833 5.833-5.833 3.222 0 5.833 2.611 5.833 5.833 0 3.435-11.666 3.447-11.666 0z"></path>
</svg>
