<?xml version="1.0" encoding="utf-8"?>
<!-- Generated by IcoMoon.io -->
<!DOCTYPE svg PUBLIC "-//W3C//DTD SVG 1.1//EN" "http://www.w3.org/Graphics/SVG/1.1/DTD/svg11.dtd">
<svg version="1.1" xmlns="http://www.w3.org/2000/svg" xmlns:xlink="http://www.w3.org/1999/xlink" width="32" height="32" viewBox="0 0 32 32">
<g id="icomoon-ignore">
	<line stroke-width="1" x1="" y1="" x2="" y2="" stroke="#449FDB" opacity=""></line>
</g>
	<path d="M10.9 7.5c3.454 0.267 6.848 0.031 10.2 0.213 0 0.566 0 2.62 0 3.188-3.4 0-6.801 0-10.2 0 0-1.133 0-2.268 0-3.401z"></path>
	<path d="M4.101 0.7c0 10.199 0 20.4 0 30.6 7.932 0 15.867 0 23.8 0 0-10.199 0-20.4 0-30.6-7.933 0-15.869 0-23.8 0zM24.5 27.9c-5.666 0-11.334 0-17 0 0-3.4 0-6.8 0-10.2 5.666 0 11.334 0 17 0 0 3.401 0 6.8 0 10.2zM24.5 14.3c-5.666 0-11.334 0-17 0 0-3.399 0-6.8 0-10.199 5.666 0 11.334 0 17 0 0 3.399 0 6.799 0 10.199z"></path>
	<path d="M10.9 21.101c3.294 0.25 6.694 0.103 10.2 0.212 0 0.568 0 2.62 0 3.188-3.4 0-6.801 0-10.2 0 0-1.133 0-2.269 0-3.4z"></path>
</svg>
