<?xml version="1.0" encoding="utf-8"?>
<!-- Generated by IcoMoon.io -->
<!DOCTYPE svg PUBLIC "-//W3C//DTD SVG 1.1//EN" "http://www.w3.org/Graphics/SVG/1.1/DTD/svg11.dtd">
<svg version="1.1" xmlns="http://www.w3.org/2000/svg" xmlns:xlink="http://www.w3.org/1999/xlink" width="32" height="32" viewBox="0 0 32 32">
<g id="icomoon-ignore">
	<line stroke-width="1" x1="" y1="" x2="" y2="" stroke="#449FDB" opacity=""></line>
</g>
	<path d="M0 1c0 10.666 0 21.334 0 32 10.666 0 21.334 0 32 0 0-10.666 0-21.334 0-32-10.666 0-21.334 0-32 0zM7 3c6 0 12 0 18 0 0 1.333 0 2.667 0 4-6 0-12 0-18 0 0-1.333 0-2.667 0-4zM7 9c6 0 12 0 18 0 0 1.667 0 3.333 0 5-6 0-12 0-18 0 0-1.667 0-3.333 0-5zM15 31c-1.667 0-3.333 0-5 0 0-2.333 0-4.667 0-7 1.667 0 3.333 0 5 0 0 2.333 0 4.667 0 7zM30 31c-2 0-4 0-6 0 0-3 0-6 0-9-5.333 0-10.667 0-16 0 0 3 0 6 0 9-2 0-4 0-6 0 0-9.332 0-18.667 0-28 1 0 2 0 3 0 0 4.333 0 8.667 0 13 7.333 0 14.668 0 22 0 0-4.333 0-8.667 0-13 1 0 2 0 3 0 0 9.333 0 18.668 0 28z"></path>
</svg>
