<?xml version="1.0" encoding="utf-8"?>
<!-- Generated by IcoMoon.io -->
<!DOCTYPE svg PUBLIC "-//W3C//DTD SVG 1.1//EN" "http://www.w3.org/Graphics/SVG/1.1/DTD/svg11.dtd">
<svg version="1.1" xmlns="http://www.w3.org/2000/svg" xmlns:xlink="http://www.w3.org/1999/xlink" width="32" height="32" viewBox="0 0 32 32">
<g id="icomoon-ignore">
	<line stroke-width="1" x1="" y1="" x2="" y2="" stroke="#449FDB" opacity=""></line>
</g>
	<path d="M31.689 0.187c-10.289 0-21.287 0-31.577 0-0.026 1.758-0.015 5.098-0.015 7.554 0 5.034 0 10.072 0 15.108 0 2.854 0.061 6.719-0.097 8.682 7.040 0 14.588 0.064 21.626 0.064 3.172 0 7.63 0.13 10.158 0.006 0-7.023-0.003-14.452-0.003-21.475 0-3.104 0.018-7.431-0.092-9.939zM11.878 2.174c1.083 0 2.167 0 3.25 0 0 1.459 0 2.917 0 4.375-1.083 0-2.167 0-3.25 0 0-1.459 0-2.916 0-4.375zM23.252 29.605c-5.011 0-10.020 0-15.030 0 0-3.578 0-7.156 0-10.732 5.011 0 10.020 0 15.030 0 0 3.576 0 7.154 0 10.732zM29.752 29.605c-1.49 0-2.979 0-4.47 0 0.022-3.843 0.139-9.231 0.033-12.726-4.062 0-8.565 0.003-12.626 0.003-2.184 0-4.775-0.028-6.495-0.055 0 4.108-0.004 8.671-0.004 12.777-1.354 0-2.709 0-4.062 0 0-9.144 0-18.289 0-27.432 2.571 0 5.146 0 7.717 0 0 1.855 0 3.712 0 5.567 4.198 0 8.395 0 12.593 0 0-1.855 0-3.712 0-5.567 2.438 0 4.875 0 7.312 0 0.002 9.145 0.002 18.29 0.002 27.433z"></path>
</svg>
