<?xml version="1.0" encoding="utf-8"?>
<!-- Generated by IcoMoon.io -->
<!DOCTYPE svg PUBLIC "-//W3C//DTD SVG 1.1//EN" "http://www.w3.org/Graphics/SVG/1.1/DTD/svg11.dtd">
<svg version="1.1" xmlns="http://www.w3.org/2000/svg" xmlns:xlink="http://www.w3.org/1999/xlink" width="32" height="32" viewBox="0 0 32 32">
<g id="icomoon-ignore">
	<line stroke-width="1" x1="" y1="" x2="" y2="" stroke="#449FDB" opacity=""></line>
</g>
	<path d="M-0.221-0.503c10.586 0 21.176 0 31.762 0 0 7.194 0 14.391 0 21.586-3.78 0-7.562 0-11.343 0 0-0.746 0-1.488 0-2.232 3.024 0 6.050 0 9.076 0 0-5.708 0-11.415 0-17.121-9.076 0-18.154 0-27.227 0 0 5.706 0 11.413 0 17.121 3.024 0 6.049 0 9.074 0 0 0.744 0 1.486 0 2.232-3.781 0-7.562 0-11.343 0 0.001-7.195 0.001-14.393 0.001-21.586z"></path>
	<path d="M15.661 31.855l-5.186-7.408h3.3l0.065-18.657h3.692l0.016 18.657h3.299z"></path>
</svg>
