<?xml version="1.0" encoding="utf-8"?>
<!-- Generated by IcoMoon.io -->
<!DOCTYPE svg PUBLIC "-//W3C//DTD SVG 1.1//EN" "http://www.w3.org/Graphics/SVG/1.1/DTD/svg11.dtd">
<svg version="1.1" xmlns="http://www.w3.org/2000/svg" xmlns:xlink="http://www.w3.org/1999/xlink" width="32" height="32" viewBox="0 0 32 32">
<g id="icomoon-ignore">
	<line stroke-width="1" x1="" y1="" x2="" y2="" stroke="#449FDB" opacity=""></line>
</g>
	<path d="M29.733 5.889l-5.676-5.889-3.516 3.212-8.648 8.298v8.567h8.378l2.872-2.852 8.857-8.754-2.267-2.582zM19.188 17.668h-4.755v-5.155l6.038-5.817 1.598 1.69-5.617 5.519 1.617 1.686 5.39-5.237 0.337-0.315 1.564 1.672-6.172 5.957zM28.907 8.278v0 0l-1.577 1.497-4.902-4.963 1.556-1.541 4.923 5.007z"></path>
	<path d="M0 8.566c3.243 0 6.488 0 9.729 0 0 0.892 0 1.785 0 2.677-3.242 0-6.486 0-9.729 0 0-0.892 0-1.785 0-2.677z"></path>
	<path d="M0 13.117c3.243 0 6.488 0 9.729 0 0 0.893 0 1.786 0 2.678-3.242 0-6.486 0-9.729 0 0-0.893 0-1.785 0-2.678z"></path>
	<path d="M0 17.402c3.243 0 6.488 0 9.729 0 0 0.889 0 1.783 0 2.676-3.242 0-6.486 0-9.729 0 0-0.892 0-1.787 0-2.676z"></path>
	<path d="M0 21.953c5.855 0 11.713 0 17.57 0 0 0.889 0 1.781 0 2.676-5.857 0-11.715 0-17.57 0 0-0.895 0-1.787 0-2.676z"></path>
	<path d="M0 26.502c5.855 0 11.713 0 17.57 0 0 0.893 0 1.783 0 2.676-5.857 0-11.715 0-17.57 0 0-0.893 0-1.783 0-2.676z"></path>
</svg>
