<?xml version="1.0" encoding="utf-8"?>
<!-- Generated by IcoMoon.io -->
<!DOCTYPE svg PUBLIC "-//W3C//DTD SVG 1.1//EN" "http://www.w3.org/Graphics/SVG/1.1/DTD/svg11.dtd">
<svg version="1.1" xmlns="http://www.w3.org/2000/svg" xmlns:xlink="http://www.w3.org/1999/xlink" width="32" height="32" viewBox="0 0 32 32">
<g id="icomoon-ignore">
	<line stroke-width="1" x1="" y1="" x2="" y2="" stroke="#449FDB" opacity=""></line>
</g>
	<path d="M4 4c3.25 0 6.5 0 9.75 0 0 3.25 0 6.5 0 9.75-3.25 0-6.5 0-9.75 0 0-3.25 0-6.5 0-9.75z"></path>
	<path d="M18.25 4c3.249 0 6.501 0 9.75 0 0 3.25 0 6.5 0 9.75-3.249 0-6.501 0-9.75 0 0-3.25 0-6.5 0-9.75z"></path>
	<path d="M4 18.25c3.25 0 6.5 0 9.75 0 0 3.249 0 6.501 0 9.75-3.25 0-6.5 0-9.75 0 0-3.249 0-6.501 0-9.75z"></path>
	<path d="M18.25 18.25c3.249 0 6.501 0 9.75 0 0 3.249 0 6.501 0 9.75-3.249 0-6.501 0-9.75 0 0-3.249 0-6.501 0-9.75z"></path>
</svg>
