<?xml version="1.0" encoding="utf-8"?>
<!-- Generated by IcoMoon.io -->
<!DOCTYPE svg PUBLIC "-//W3C//DTD SVG 1.1//EN" "http://www.w3.org/Graphics/SVG/1.1/DTD/svg11.dtd">
<svg version="1.1" xmlns="http://www.w3.org/2000/svg" xmlns:xlink="http://www.w3.org/1999/xlink" width="32" height="32" viewBox="0 0 32 32">
<g id="icomoon-ignore">
	<line stroke-width="1" x1="" y1="" x2="" y2="" stroke="#449FDB" opacity=""></line>
</g>
	<path d="M21.186 16c3.177-2.988 6.555-7.509 6.918-13.089 0.042-0.632-0.032-1.258-0.097-1.87h-24.902c-0.064 0.612-0.168 1.241-0.097 1.87 0.644 5.756 3.388 9.855 6.75 13.089-3.326 3.098-6.105 7.334-6.75 13.090-0.071 0.629 0.033 1.258 0.097 1.869h24.901c0.064-0.611 0.097-1.236 0.097-1.869-0.643-5.697-3.059-10.539-6.917-13.090zM5.697 29.090c0.588-5.465 2.828-9.613 6.273-11.775v-2.609c-3.388-2.125-5.797-6.273-6.273-11.795v0h19.718c-0.364 5.464-2.997 9.379-6.273 11.95v2.608c3.837 1.949 5.966 6.391 6.273 11.621h-19.718zM18.57 20.605c-2.007-1.189-2.117-2.729-2.118-3.664v-1.877c0-0.935 0.106-2.48 2.122-3.672 1.078-0.653 2.011-1.646 2.718-2.873h-11.472c0.707 1.229 1.642 2.222 2.722 2.875 2.007 1.188 2.117 2.729 2.118 3.663v1.877c0 0.934-0.106 2.481-2.122 3.672-2.034 1.232-3.55 3.672-4.008 6.611h14.052c-0.459-2.94-1.976-5.381-4.012-6.612z"></path>
</svg>
