<?xml version="1.0" encoding="utf-8"?>
<!-- Generated by IcoMoon.io -->
<!DOCTYPE svg PUBLIC "-//W3C//DTD SVG 1.1//EN" "http://www.w3.org/Graphics/SVG/1.1/DTD/svg11.dtd">
<svg version="1.1" xmlns="http://www.w3.org/2000/svg" xmlns:xlink="http://www.w3.org/1999/xlink" width="34" height="32" viewBox="0 0 34 32">
<g id="icomoon-ignore">
	<line stroke-width="1" x1="" y1="" x2="" y2="" stroke="#449FDB" opacity=""></line>
</g>
	<path d="M12.4 2.8v6.8h-8.4v13.2l-0.072 4.722v0.133l5.272-0.055h12.8v-5.2h8v-19.6h-17.6zM27.2 19.6c-2.667 0-5.333 0-8 0 0 1.733 0 3.467 0 5.2-4.133 0-8.267 0-12.4 0 0-4.133 0-8.267 0-12.4 2.8 0 5.6 0 8.4 0 0-2.267 0-4.533 0-6.8 4 0 8 0 12 0 0 4.665 0 9.333 0 14z"></path>
	<path d="M12.513 22.353v0 0 0l-2.228-2.307 8.847-8.463-2.407-2.457 7.283-0.092 0.010 7.54-2.717-2.597-8.788 8.375z"></path>
</svg>
