<?xml version="1.0" encoding="utf-8"?>
<!-- Generated by IcoMoon.io -->
<!DOCTYPE svg PUBLIC "-//W3C//DTD SVG 1.1//EN" "http://www.w3.org/Graphics/SVG/1.1/DTD/svg11.dtd">
<svg version="1.1" xmlns="http://www.w3.org/2000/svg" xmlns:xlink="http://www.w3.org/1999/xlink" width="32" height="32" viewBox="0 0 32 32">
<g id="icomoon-ignore">
	<line stroke-width="1" x1="" y1="" x2="" y2="" stroke="#449FDB" opacity=""></line>
</g>
	<path d="M8.379 20.233c0 1.634-1.324 2.958-2.958 2.958s-2.958-1.324-2.958-2.958c0-1.634 1.324-2.958 2.958-2.958s2.958 1.324 2.958 2.958z"></path>
	<path d="M9.124 27.428h20.466v2.955h-20.466v-2.955z"></path>
	<path d="M8.383 28.907c0 1.633-1.326 2.957-2.962 2.957s-2.962-1.324-2.962-2.957c0-1.633 1.326-2.957 2.962-2.957s2.962 1.324 2.962 2.957z"></path>
	<path d="M8.383 11.559c0 1.633-1.326 2.957-2.962 2.957s-2.962-1.324-2.962-2.957c0-1.633 1.326-2.957 2.962-2.957s2.962 1.324 2.962 2.957z"></path>
	<path d="M9.124 10.080h20.466v2.958h-20.466v-2.958z"></path>
	<path d="M9.124 18.754h20.466v2.957h-20.466v-2.957z"></path>
	<path d="M9.124 1.74h20.466v2.957h-20.466v-2.957z"></path>
	<path d="M8.383 3.218c0 1.633-1.326 2.957-2.962 2.957s-2.962-1.324-2.962-2.957c0-1.633 1.326-2.957 2.962-2.957s2.962 1.324 2.962 2.957z"></path>
</svg>
