<?xml version="1.0" encoding="utf-8"?>
<!-- Generated by IcoMoon.io -->
<!DOCTYPE svg PUBLIC "-//W3C//DTD SVG 1.1//EN" "http://www.w3.org/Graphics/SVG/1.1/DTD/svg11.dtd">
<svg version="1.1" xmlns="http://www.w3.org/2000/svg" xmlns:xlink="http://www.w3.org/1999/xlink" width="32" height="32" viewBox="0 0 32 32">
<g id="icomoon-ignore">
	<line stroke-width="1" x1="" y1="" x2="" y2="" stroke="#449FDB" opacity=""></line>
</g>
	<path d="M25.656 12.437v-4.125c0-4.556-3.987-8.25-8.906-8.25s-8.906 3.694-8.906 8.25v4.124c-1.64 0-2.969 1.231-2.969 2.75v13.75c0 1.52 1.329 2.751 2.969 2.751h17.812c1.639 0 2.969-1.231 2.969-2.751v-13.75c0-1.518-1.33-2.749-2.969-2.749zM10.812 8.312c0-3.038 2.659-5.5 5.938-5.5s5.938 2.462 5.938 5.5v4.124h-11.876v-4.124zM25.656 28.937h-17.812v-13.75h17.812v13.75zM15.266 23.057v1.755c0 0.76 0.665 1.376 1.484 1.376s1.484-0.616 1.484-1.376v-1.755c0.884-0.477 1.484-1.354 1.484-2.368 0-1.52-1.33-2.752-2.969-2.752s-2.969 1.232-2.969 2.752c0.001 1.013 0.603 1.891 1.486 2.368z"></path>
</svg>
