<?xml version="1.0" encoding="utf-8"?>
<!-- Generated by IcoMoon.io -->
<!DOCTYPE svg PUBLIC "-//W3C//DTD SVG 1.1//EN" "http://www.w3.org/Graphics/SVG/1.1/DTD/svg11.dtd">
<svg version="1.1" xmlns="http://www.w3.org/2000/svg" xmlns:xlink="http://www.w3.org/1999/xlink" width="32" height="32" viewBox="0 0 32 32">
<g id="icomoon-ignore">
	<line stroke-width="1" x1="" y1="" x2="" y2="" stroke="#449FDB" opacity=""></line>
</g>
	<path d="M28.76 11.934h-13.072v-3.977c0-4.395-3.512-7.957-7.844-7.957-4.333 0-7.844 3.562-7.844 7.957v5.305c0 0.731 0.585 1.326 1.308 1.326 0.721 0 1.307-0.595 1.307-1.326v-5.305c0-2.93 2.341-5.304 5.229-5.304s5.229 2.374 5.229 5.304v3.978c-1.444 0-2.614 1.188-2.614 2.652v13.263c0 1.463 1.17 2.651 2.614 2.651h15.687c1.444 0 2.615-1.188 2.615-2.651v-13.264c0-1.464-1.171-2.652-2.615-2.652zM28.76 27.849h-15.687v-13.262h15.687v13.262zM19.609 22.176v1.694c0 0.73 0.586 1.325 1.307 1.325 0.722 0 1.309-0.595 1.309-1.325v-1.694c0.777-0.461 1.307-1.305 1.307-2.284 0-1.467-1.171-2.653-2.615-2.653s-2.613 1.187-2.613 2.653c-0.001 0.979 0.528 1.823 1.305 2.284z"></path>
</svg>
