<?xml version="1.0" encoding="utf-8"?>
<!-- Generated by IcoMoon.io -->
<!DOCTYPE svg PUBLIC "-//W3C//DTD SVG 1.1//EN" "http://www.w3.org/Graphics/SVG/1.1/DTD/svg11.dtd">
<svg version="1.1" xmlns="http://www.w3.org/2000/svg" xmlns:xlink="http://www.w3.org/1999/xlink" width="162" height="32" viewBox="0 0 162 32">
<g id="icomoon-ignore">
	<line stroke-width="1" x1="" y1="" x2="" y2="" stroke="#449FDB" opacity=""></line>
</g>
	<path d="M60.961 11.687c-0.396-2.46-2.434-3.942-5.027-3.942-2.725 0-4.709 1.296-4.709 3.466 0 2.249 2.751 2.963 5.265 3.651 2.567 0.715 6.244 1.746 6.244 5.477 0 3.042-2.646 5.292-6.641 5.292s-6.429-2.381-6.826-5.425l1.456-0.396c0.211 2.381 2.116 4.419 5.423 4.419 3.069 0 5-1.641 5-3.863 0-3.069-3.492-3.652-6.085-4.419-2.116-0.608-5.397-1.508-5.397-4.683 0-2.884 2.672-4.894 6.323-4.894 3.308 0 5.901 1.931 6.456 4.921l-1.482 0.396z"></path>
	<path d="M84.588 6.74v18.519h-1.534v-8.942h-11.006v8.942h-1.508v-18.519h1.508v8.122h11.006v-8.122z"></path>
	<path d="M105.463 19.862h-9.763l-2.354 5.398h-1.667l8.228-18.521h1.349l8.228 18.521h-1.667l-2.354-5.398zM104.854 18.513l-3.413-7.805c-0.397-0.953-0.82-2.143-0.847-2.143h-0.026c-0.027 0-0.45 1.191-0.847 2.143l-3.413 7.805h8.546z"></path>
	<path d="M131.337 6.74v18.52h-1.429l-9.445-12.726c-1.587-2.17-2.381-3.36-2.408-3.36h-0.027c-0.026 0 0.053 2.17 0.053 4.815v11.271h-1.508v-18.52h1.428l9.419 12.673c1.456 1.958 2.408 3.281 2.433 3.281h0.027c0.026 0-0.080-2.222-0.080-4.709v-11.244h1.535z"></path>
	<path d="M152.899 6.74v1.455h-6.35v17.064h-1.535v-17.064h-6.323v-1.455z"></path>
	<path d="M160.28 6.74h1.508v18.52h-1.508v-18.52z"></path>
	<path d="M15.995 29.291c-0.474 0-0.955-0.059-1.435-0.183-1.491-0.384-2.743-1.326-3.527-2.652l-1.57-2.658 5.123-3.018c0.674-0.347 1.441-0.434 2.179-0.243 0.798 0.206 1.469 0.709 1.888 1.419s0.537 1.541 0.331 2.34c-0.206 0.798-0.709 1.469-1.419 1.888s-1.541 0.537-2.339 0.331c-0.798-0.206-1.469-0.71-1.888-1.419l-0.959-1.624-1.271 0.75 0.959 1.624c0.62 1.049 1.611 1.795 2.791 2.099 2.435 0.626 4.928-0.846 5.556-3.281 0.303-1.181 0.129-2.408-0.49-3.457l-2.956-5.006 1.034-0.611 2.956 5.006c0.783 1.325 1.003 2.876 0.619 4.368-0.669 2.598-3.016 4.328-5.583 4.328zM13.415 22.862l0.959 1.623c0.256 0.434 0.665 0.742 1.153 0.867 1.005 0.257 2.036-0.349 2.296-1.356 0.125-0.487 0.053-0.995-0.203-1.429s-0.665-0.741-1.153-0.866c-0.485-0.125-0.99-0.055-1.423 0.199l-1.629 0.961zM23.798 22.536l-3.018-5.123c-0.347-0.673-0.434-1.441-0.243-2.179 0.425-1.648 2.111-2.645 3.758-2.22 1.648 0.424 2.644 2.11 2.22 3.758-0.206 0.798-0.71 1.469-1.419 1.888l-1.624 0.959 0.751 1.271 1.623-0.959c1.050-0.62 1.795-1.611 2.099-2.792 0.303-1.18 0.129-2.408-0.49-3.457-0.62-1.050-1.611-1.795-2.791-2.099-1.181-0.303-2.408-0.129-3.457 0.49l-5.006 2.956-0.61-1.034 5.005-2.956c1.325-0.783 2.878-1.003 4.368-0.619 1.491 0.384 2.743 1.325 3.526 2.65s1.003 2.877 0.619 4.368-1.325 2.743-2.652 3.525l-2.658 1.571zM21.982 17.097l0.879 1.488 1.623-0.959c0.433-0.256 0.741-0.665 0.867-1.153 0.259-1.007-0.349-2.036-1.356-2.296-1.005-0.258-2.036 0.349-2.295 1.356-0.125 0.485-0.055 0.99 0.198 1.422l0.083 0.142zM8.483 21.762c-0.482 0-0.968-0.061-1.447-0.184-1.491-0.384-2.743-1.325-3.526-2.65-0.783-1.326-1.003-2.878-0.618-4.368 0.383-1.491 1.325-2.743 2.651-3.526l2.658-1.57 3.018 5.123c0.347 0.673 0.434 1.44 0.243 2.178-0.424 1.647-2.11 2.646-3.758 2.22s-2.644-2.111-2.22-3.758c0.205-0.798 0.709-1.469 1.419-1.888l1.624-0.959-0.75-1.271-1.623 0.959c-1.050 0.62-1.795 1.611-2.099 2.791-0.303 1.18-0.13 2.408 0.49 3.457s1.611 1.794 2.791 2.097c1.181 0.304 2.408 0.13 3.457-0.489l5.007-2.956 0.61 1.034-5.005 2.956c-0.899 0.531-1.903 0.803-2.921 0.803zM9.138 13.414l-1.624 0.959c-0.434 0.256-0.741 0.666-0.866 1.154s-0.054 0.994 0.202 1.428c0.256 0.434 0.665 0.742 1.154 0.867 1.003 0.258 2.036-0.349 2.295-1.356 0.125-0.485 0.054-0.99-0.199-1.422l-0.961-1.63zM13.993 16.41l-2.956-5.006c-0.783-1.325-1.003-2.877-0.619-4.368s1.325-2.743 2.651-3.526c1.326-0.783 2.878-1.003 4.368-0.619 1.492 0.384 2.744 1.325 3.527 2.652l1.57 2.658-5.123 3.018c-0.673 0.347-1.439 0.434-2.179 0.243-1.648-0.424-2.644-2.11-2.22-3.758s2.109-2.646 3.758-2.22c0.799 0.206 1.469 0.71 1.888 1.42l0.959 1.623 1.272-0.75-0.959-1.623c-0.62-1.050-1.611-1.795-2.791-2.099-2.434-0.626-4.928 0.844-5.556 3.281-0.304 1.181-0.13 2.408 0.489 3.457l2.956 5.006-1.034 0.611zM16 6.588c-0.839 0-1.607 0.566-1.826 1.416-0.258 1.006 0.35 2.035 1.357 2.295 0.485 0.124 0.99 0.054 1.422-0.199l1.63-0.961-0.959-1.624c-0.256-0.433-0.665-0.741-1.154-0.867-0.157-0.040-0.314-0.059-0.469-0.059z"></path>
	<path d="M16.004 32c-0.711 0-1.423-0.090-2.117-0.269-3.467-0.892-5.948-3.792-6.315-7.307-0.407-0.043-0.812-0.118-1.212-0.22-4.523-1.164-7.256-5.792-6.092-10.315 0.893-3.467 3.792-5.948 7.307-6.315 0.044-0.407 0.118-0.813 0.22-1.212 0.964-3.746 4.335-6.362 8.198-6.362 0.711 0 1.423 0.090 2.117 0.269 3.466 0.893 5.947 3.792 6.315 7.307 0.409 0.045 0.814 0.118 1.212 0.22 2.191 0.564 4.032 1.948 5.183 3.896 1.15 1.948 1.473 4.228 0.909 6.419-0.892 3.467-3.792 5.947-7.306 6.314-0.044 0.408-0.118 0.814-0.22 1.213-0.964 3.745-4.335 6.361-8.198 6.361zM8.738 8.089l0.121 0.615-0.699 0.031c-3.22 0.137-5.924 2.328-6.729 5.453-0.999 3.881 1.346 7.853 5.229 8.852 0.494 0.127 0.998 0.202 1.5 0.224l0.574 0.025v0.575c0.137 3.195 2.328 5.899 5.452 6.703 0.597 0.154 1.208 0.231 1.818 0.231 3.314 0 6.207-2.244 7.035-5.459 0.127-0.492 0.202-0.997 0.224-1.5l0.024-0.55 0.55-0.024c3.22-0.137 5.924-2.328 6.729-5.453 0.484-1.88 0.207-3.837-0.781-5.509-0.987-1.672-2.567-2.859-4.448-3.344-0.49-0.126-0.996-0.202-1.501-0.225l-0.549-0.026-0.023-0.549c-0.138-3.219-2.329-5.923-5.454-6.727-0.596-0.154-1.207-0.232-1.817-0.232-3.314 0-6.207 2.245-7.035 5.46-0.121 0.47-0.196 0.951-0.221 1.429z"></path>
</svg>
