<?xml version="1.0" encoding="utf-8"?>
<!-- Generated by IcoMoon.io -->
<!DOCTYPE svg PUBLIC "-//W3C//DTD SVG 1.1//EN" "http://www.w3.org/Graphics/SVG/1.1/DTD/svg11.dtd">
<svg version="1.1" xmlns="http://www.w3.org/2000/svg" xmlns:xlink="http://www.w3.org/1999/xlink" width="32" height="32" viewBox="0 0 32 32">
<g id="icomoon-ignore">
	<line stroke-width="1" x1="" y1="" x2="" y2="" stroke="#449FDB" opacity=""></line>
</g>
	<path d="M15.995 29.291c-0.474 0-0.955-0.058-1.435-0.183-1.491-0.383-2.743-1.326-3.527-2.651l-1.57-2.659 5.123-3.018c0.673-0.346 1.44-0.434 2.179-0.242 0.798 0.206 1.469 0.709 1.888 1.419s0.537 1.541 0.331 2.34c-0.206 0.797-0.709 1.47-1.419 1.887-0.71 0.419-1.541 0.537-2.34 0.332-0.797-0.207-1.469-0.711-1.888-1.421l-0.959-1.622-1.271 0.75 0.959 1.622c0.62 1.049 1.611 1.796 2.791 2.1 2.435 0.625 4.928-0.845 5.556-3.281 0.303-1.181 0.129-2.408-0.491-3.457l-2.956-5.005 1.034-0.612 2.956 5.005c0.784 1.326 1.003 2.878 0.62 4.369-0.669 2.599-3.016 4.328-5.584 4.328l0.001-0.002zM13.415 22.861l0.959 1.623c0.255 0.434 0.665 0.742 1.152 0.867 1.005 0.258 2.037-0.349 2.297-1.355 0.125-0.487 0.052-0.995-0.203-1.43-0.256-0.433-0.666-0.74-1.153-0.865-0.486-0.125-0.99-0.055-1.424 0.198l-1.629 0.961zM23.798 22.536l-3.017-5.123c-0.347-0.672-0.433-1.441-0.242-2.18 0.424-1.648 2.11-2.644 3.758-2.22s2.643 2.11 2.219 3.758c-0.206 0.798-0.709 1.47-1.419 1.888l-1.625 0.959 0.752 1.272 1.623-0.959c1.050-0.62 1.795-1.611 2.098-2.792 0.304-1.18 0.13-2.408-0.49-3.457s-1.611-1.794-2.791-2.099c-1.181-0.303-2.408-0.129-3.457 0.491l-5.006 2.955-0.611-1.034 5.006-2.956c1.325-0.783 2.878-1.003 4.368-0.619s2.743 1.325 3.527 2.649c0.782 1.326 1.002 2.877 0.618 4.368-0.383 1.492-1.324 2.744-2.651 3.525l-2.66 1.573zM21.983 17.098l0.879 1.488 1.622-0.959c0.433-0.256 0.742-0.665 0.867-1.152 0.259-1.008-0.349-2.037-1.355-2.297-1.005-0.258-2.036 0.349-2.296 1.356-0.125 0.485-0.055 0.991 0.198 1.422l0.084 0.143h0.001zM8.483 21.762c-0.482 0-0.968-0.060-1.447-0.183-1.49-0.384-2.743-1.325-3.526-2.65-0.782-1.327-1.002-2.878-0.617-4.368 0.383-1.492 1.325-2.743 2.651-3.526l2.659-1.57 3.017 5.123c0.347 0.672 0.434 1.44 0.243 2.179-0.424 1.647-2.11 2.646-3.758 2.219-1.647-0.426-2.644-2.11-2.22-3.757 0.205-0.799 0.71-1.47 1.42-1.888l1.623-0.959-0.75-1.271-1.623 0.959c-1.050 0.62-1.796 1.611-2.098 2.791s-0.131 2.409 0.49 3.458c0.62 1.049 1.611 1.793 2.791 2.097 1.181 0.304 2.408 0.13 3.457-0.49l5.007-2.955 0.61 1.034-5.005 2.956c-0.899 0.531-1.903 0.803-2.921 0.803l-0.001 0.001zM9.139 13.414l-1.624 0.959c-0.434 0.255-0.742 0.666-0.867 1.153s-0.054 0.995 0.202 1.428c0.256 0.434 0.665 0.742 1.154 0.867 1.003 0.258 2.036-0.349 2.294-1.356 0.125-0.485 0.055-0.99-0.198-1.422l-0.961-1.63h-0.001zM13.993 16.41l-2.955-5.006c-0.784-1.325-1.004-2.877-0.62-4.368s1.325-2.743 2.651-3.526c1.326-0.782 2.878-1.002 4.368-0.618 1.492 0.384 2.745 1.324 3.527 2.651l1.57 2.659-5.123 3.017c-0.673 0.347-1.439 0.434-2.179 0.243-1.648-0.424-2.645-2.11-2.22-3.758 0.424-1.648 2.109-2.646 3.758-2.22 0.799 0.206 1.469 0.71 1.888 1.42l0.959 1.623 1.272-0.75-0.959-1.623c-0.62-1.050-1.611-1.795-2.791-2.098-2.435-0.627-4.928 0.844-5.556 3.28-0.304 1.181-0.13 2.408 0.489 3.457l2.956 5.005-1.036 0.612zM16 6.588c-0.839 0-1.607 0.566-1.827 1.417-0.258 1.005 0.351 2.035 1.358 2.294 0.485 0.124 0.99 0.055 1.422-0.198l1.63-0.961-0.959-1.624c-0.256-0.433-0.665-0.74-1.154-0.867-0.157-0.040-0.314-0.059-0.47-0.059l-0.001-0.002z"></path>
	<path d="M16.004 32c-0.711 0-1.423-0.090-2.117-0.27-3.467-0.891-5.948-3.791-6.316-7.307-0.407-0.042-0.813-0.117-1.212-0.219-4.524-1.164-7.256-5.791-6.092-10.315 0.893-3.467 3.792-5.948 7.307-6.315 0.044-0.407 0.118-0.813 0.22-1.213 0.963-3.745 4.335-6.362 8.198-6.362 0.711 0 1.423 0.090 2.117 0.269 3.467 0.894 5.947 3.792 6.315 7.308 0.41 0.045 0.814 0.117 1.212 0.22 2.191 0.564 4.031 1.948 5.182 3.896s1.474 4.228 0.91 6.419c-0.892 3.467-3.793 5.948-7.307 6.314-0.044 0.408-0.117 0.814-0.219 1.214-0.964 3.744-4.335 6.36-8.198 6.36l-0.001 0.001zM8.738 8.089l0.121 0.615-0.698 0.031c-3.22 0.137-5.924 2.328-6.729 5.453-1 3.881 1.345 7.852 5.229 8.852 0.494 0.127 0.998 0.202 1.5 0.224l0.573 0.025v0.575c0.137 3.194 2.328 5.9 5.453 6.702 0.597 0.154 1.207 0.232 1.818 0.232 3.314 0 6.207-2.243 7.035-5.459 0.127-0.491 0.202-0.997 0.224-1.5l0.024-0.55 0.549-0.023c3.221-0.137 5.924-2.328 6.729-5.453 0.485-1.88 0.207-3.838-0.78-5.509s-2.567-2.86-4.449-3.344c-0.49-0.127-0.996-0.202-1.5-0.226l-0.548-0.026-0.023-0.549c-0.139-3.22-2.329-5.923-5.454-6.728-0.596-0.154-1.207-0.232-1.817-0.232-3.314 0-6.207 2.245-7.035 5.46-0.121 0.47-0.195 0.951-0.221 1.429h0.001z"></path>
</svg>
