<?xml version="1.0" encoding="utf-8"?>
<!-- Generated by IcoMoon.io -->
<!DOCTYPE svg PUBLIC "-//W3C//DTD SVG 1.1//EN" "http://www.w3.org/Graphics/SVG/1.1/DTD/svg11.dtd">
<svg version="1.1" xmlns="http://www.w3.org/2000/svg" xmlns:xlink="http://www.w3.org/1999/xlink" width="32" height="32" viewBox="0 0 32 32">
<g id="icomoon-ignore">
	<line stroke-width="1" x1="" y1="" x2="" y2="" stroke="#449FDB" opacity=""></line>
</g>
	<path d="M21.375 4.008c-4.879-4.778-12.82-4.778-17.7 0-4.878 4.778-4.878 12.552 0 17.331 4.346 4.254 11.113 4.708 15.989 1.388 0.103 0.476 0.34 0.928 0.716 1.298l7.105 6.956c1.034 1.012 2.708 1.012 3.74 0 1.032-1.011 1.032-2.65 0-3.66l-7.108-6.958c-0.376-0.368-0.84-0.6-1.324-0.698 3.395-4.777 2.929-11.4-1.418-15.657zM19.133 19.142c-3.644 3.565-9.572 3.565-13.214 0-3.641-3.566-3.641-9.369 0-12.936 3.642-3.566 9.57-3.566 13.214 0 3.642 3.566 3.642 9.369 0 12.936z"></path>
</svg>
