<?xml version="1.0" encoding="utf-8"?>
<!-- Generated by IcoMoon.io -->
<!DOCTYPE svg PUBLIC "-//W3C//DTD SVG 1.1//EN" "http://www.w3.org/Graphics/SVG/1.1/DTD/svg11.dtd">
<svg version="1.1" xmlns="http://www.w3.org/2000/svg" xmlns:xlink="http://www.w3.org/1999/xlink" width="32" height="32" viewBox="0 0 32 32">
<g id="icomoon-ignore">
	<line stroke-width="1" x1="" y1="" x2="" y2="" stroke="#449FDB" opacity=""></line>
</g>
	<path d="M30.612 22.5c0.885-1.987 1.388-4.184 1.388-6.5 0-8.835-7.162-16-16-16-8.837 0-16 7.165-16 16 0 8.838 7.163 16 16 16 6.378 0 11.867-3.739 14.438-9.138l0.269-0.269-0.095-0.093zM20.256 19.2h-4.823l-5.035-5.036 1.346-1.364h4.643l5.126 5.127-1.257 1.273zM3.2 16c0-1.36 0.216-2.669 0.609-3.898l7.098 7.099h-7.287c-0.265-1.025-0.42-2.094-0.42-3.201zM20.914 12.8h7.466c0.265 1.024 0.42 2.093 0.42 3.2 0 1.409-0.236 2.762-0.657 4.029l-7.229-7.229zM27.073 9.6h-12.173l5.523-5.598c2.817 1.039 5.164 3.033 6.65 5.598zM16 3.2c0.271 0 0.536 0.024 0.803 0.041l-8.606 8.723-2.927-2.928c2.282-3.51 6.231-5.836 10.73-5.836zM4.927 22.4h12.171l-5.523 5.598c-2.816-1.040-5.162-3.033-6.648-5.598zM16 28.8c-0.27 0-0.534-0.024-0.799-0.040l8.514-8.632 2.947 2.948c-2.293 3.448-6.211 5.724-10.662 5.724z"></path>
</svg>
