<?xml version="1.0" encoding="utf-8"?>
<!-- Generated by IcoMoon.io -->
<!DOCTYPE svg PUBLIC "-//W3C//DTD SVG 1.1//EN" "http://www.w3.org/Graphics/SVG/1.1/DTD/svg11.dtd">
<svg version="1.1" xmlns="http://www.w3.org/2000/svg" xmlns:xlink="http://www.w3.org/1999/xlink" width="32" height="32" viewBox="0 0 32 32">
<g id="icomoon-ignore">
	<line stroke-width="1" x1="" y1="" x2="" y2="" stroke="#449FDB" opacity=""></line>
</g>
	<path d="M16 0c-7.069 0-12.8 5.731-12.8 12.8 0 9.5 12.8 19.2 12.8 19.2s12.8-9.672 12.8-19.2c0-7.069-5.732-12.8-12.8-12.8zM16 27.981c0 0-9.6-7.15-9.6-15.182 0-5.301 4.299-9.6 9.6-9.6 5.303 0 9.6 4.297 9.6 9.6 0 8.051-9.6 15.182-9.6 15.182z"></path>
	<path d="M16 9.6c1.766 0 3.2 1.434 3.2 3.2 0 1.768-1.435 3.2-3.2 3.2-1.767 0-3.2-1.432-3.2-3.2 0-1.766 1.433-3.2 3.2-3.2z"></path>
</svg>
