<?xml version="1.0" encoding="utf-8"?>
<!-- Generated by IcoMoon.io -->
<!DOCTYPE svg PUBLIC "-//W3C//DTD SVG 1.1//EN" "http://www.w3.org/Graphics/SVG/1.1/DTD/svg11.dtd">
<svg version="1.1" xmlns="http://www.w3.org/2000/svg" xmlns:xlink="http://www.w3.org/1999/xlink" width="32" height="32" viewBox="0 0 32 32">
<g id="icomoon-ignore">
	<line stroke-width="1" x1="" y1="" x2="" y2="" stroke="#449FDB" opacity=""></line>
</g>
	<path d="M30.5 3.25c-9.594 0-19.19 0-28.784 0 0 7.070 0 14.141 0 21.213 3.754 0 7.509 0 11.263 0-0.417 1.442-0.834 2.886-1.251 4.328 2.92 0 5.839 0 8.759 0-0.417-1.442-0.834-2.886-1.251-4.328 3.754 0 7.51 0 11.264 0 0-7.072 0-14.143 0-21.213zM27.996 21.431c-7.924 0-15.852 0-23.777 0 0-5.193 0-10.389 0-15.583 7.925 0 15.853 0 23.777 0 0 5.194 0 10.39 0 15.583z"></path>
	<path d="M13.188 19.268l6.258-5.195-6.258-5.196v10.391z"></path>
</svg>
