<?xml version="1.0" encoding="utf-8"?>
<!-- Generated by IcoMoon.io -->
<!DOCTYPE svg PUBLIC "-//W3C//DTD SVG 1.1//EN" "http://www.w3.org/Graphics/SVG/1.1/DTD/svg11.dtd">
<svg version="1.1" xmlns="http://www.w3.org/2000/svg" xmlns:xlink="http://www.w3.org/1999/xlink" width="32" height="32" viewBox="0 0 32 32">
<g id="icomoon-ignore">
	<line stroke-width="1" x1="" y1="" x2="" y2="" stroke="#449FDB" opacity=""></line>
</g>
	<path d="M0 19.968c3.958 0 7.918 0 11.875 0 0 1.088 0 2.176 0 3.263-3.956 0-7.917 0-11.875 0 0-1.087 0-2.175 0-3.263z"></path>
	<path d="M0 14.751c3.958 0 7.918 0 11.875 0 0 1.088 0 2.177 0 3.259-3.956 0-7.917 0-11.875 0 0-1.082 0-2.171 0-3.259z"></path>
	<path d="M0 9.208c4.574 0 9.149 0 13.725 0 0 1.089 0 2.177 0 3.26-4.576 0-9.151 0-13.725 0 0-1.084 0-2.171 0-3.26z"></path>
	<path d="M0 3.667c7.147 0 14.296 0 21.445 0 0 1.087 0 2.172 0 3.259-7.149 0-14.298 0-21.445 0 0-1.087 0-2.172 0-3.259z"></path>
	<path d="M31.63 26.161l-3.864-4.077c0.939-1.379 1.455-3.025 1.455-4.758 0-2.183-0.805-4.236-2.27-5.78-1.462-1.544-3.409-2.396-5.48-2.396-2.068 0-4.017 0.85-5.479 2.396-1.463 1.542-2.27 3.596-2.27 5.78s0.806 4.237 2.27 5.781c1.463 1.545 3.411 2.395 5.479 2.395 1.643 0 3.202-0.541 4.509-1.532l3.863 4.075c0.249 0.262 0.57 0.391 0.894 0.391s0.646-0.129 0.894-0.391c0.493-0.52 0.493-1.363-0.001-1.884zM17.778 21.224c-0.987-1.042-1.529-2.427-1.529-3.897s0.542-2.854 1.529-3.896c0.986-1.041 2.297-1.614 3.692-1.614s2.707 0.573 3.693 1.614c0.985 1.042 1.53 2.426 1.53 3.896s-0.543 2.854-1.53 3.897c-0.986 1.041-2.298 1.613-3.693 1.613-1.395-0.001-2.706-0.575-3.692-1.613z"></path>
</svg>
