<?xml version="1.0" encoding="utf-8"?>
<!-- Generated by IcoMoon.io -->
<!DOCTYPE svg PUBLIC "-//W3C//DTD SVG 1.1//EN" "http://www.w3.org/Graphics/SVG/1.1/DTD/svg11.dtd">
<svg version="1.1" xmlns="http://www.w3.org/2000/svg" xmlns:xlink="http://www.w3.org/1999/xlink" width="32" height="32" viewBox="0 0 32 32">
<g id="icomoon-ignore">
	<line stroke-width="1" x1="" y1="" x2="" y2="" stroke="#449FDB" opacity=""></line>
</g>
	<path d="M18.992 24.074l-1.47-1.47 5.883-5.883 1.47 1.47-5.883 5.883z"></path>
	<path d="M21.934 19.662l-1.47 1.47-2.942-2.941 1.47-1.47 2.942 2.941z"></path>
	<path d="M18.992 3.483c-4.062-4.061-10.646-4.061-14.707 0-4.062 4.062-4.062 10.646 0 14.709 4.062 4.061 10.646 4.061 14.707 0 4.062-4.061 4.062-10.646 0-14.709zM7.29 17.907c-0.542-0.333-1.064-0.715-1.533-1.186-3.25-3.25-3.25-8.517 0-11.766 0.47-0.47 0.992-0.853 1.533-1.187v14.139zM17.522 16.722c-2.21 2.21-5.344 2.88-8.152 2.083v-15.933c2.808-0.797 5.942-0.128 8.152 2.083 3.25 3.25 3.25 8.517 0 11.766z"></path>
	<path d="M30.758 25.546l-6.619-6.619c-0.813-0.811-2.13-0.811-2.941 0l-1.47 1.47c-0.811 0.813-0.811 2.13 0 2.941l6.619 6.619c0.813 0.813 2.13 0.813 2.941 0l1.47-1.47c0.813-0.811 0.813-2.128 0-2.941zM27.818 28.486l-6.619-6.618 1.47-1.47 6.618 6.619-1.469 1.469z"></path>
</svg>
