<?xml version="1.0" encoding="utf-8"?>
<!-- Generated by IcoMoon.io -->
<!DOCTYPE svg PUBLIC "-//W3C//DTD SVG 1.1//EN" "http://www.w3.org/Graphics/SVG/1.1/DTD/svg11.dtd">
<svg version="1.1" xmlns="http://www.w3.org/2000/svg" xmlns:xlink="http://www.w3.org/1999/xlink" width="32" height="32" viewBox="0 0 32 32">
<g id="icomoon-ignore">
	<line stroke-width="1" x1="" y1="" x2="" y2="" stroke="#449FDB" opacity=""></line>
</g>
	<path d="M15.9 15.95c0.050 0 0.1 0 0.15 0 0 0.050 0 0.1 0 0.15-0.050 0-0.1 0-0.15 0 0-0.050 0-0.1 0-0.15z"></path>
	<path d="M15.95 16c0 0.017 0 0.033 0 0.050 0.017 0 0.033 0 0.050 0 0-0.017 0-0.033 0-0.050-0.017 0-0.033 0-0.050 0z"></path>
	<path d="M27.65 10c0-0.017 0-0.033 0-0.050 0.1 0 0.2 0 0.3 0 0-0.017 0-0.033 0-0.050 0.083 0 0.167 0 0.25 0 0-0.017 0-0.033 0-0.050 0.050 0 0.1 0 0.15 0 0-0.017 0-0.033 0-0.050 0.067 0 0.133 0 0.2 0 0-0.017 0-0.033 0-0.050 0.033 0 0.067 0 0.1 0 0-0.017 0-0.033 0-0.050 0.050 0 0.1 0 0.15 0 0-0.017 0-0.033 0-0.050 0.050 0 0.1 0 0.15 0 0-0.017 0-0.033 0-0.050 0.033 0 0.067 0 0.1 0 0-0.017 0-0.033 0-0.050 0.033 0 0.067 0 0.1 0 0-0.017 0-0.033 0-0.050 0.033 0 0.067 0 0.1 0 0-0.017 0-0.033 0-0.050 0.033 0 0.067 0 0.1 0 0-0.017 0-0.033 0-0.050 0.033 0 0.067 0 0.1 0 0-0.017 0-0.033 0-0.050 0.017 0 0.033 0 0.050 0 0-0.017 0-0.033 0-0.050 0.033 0 0.067 0 0.1 0 0-0.017 0-0.033 0-0.050 0.033 0 0.067 0 0.1 0 0-0.017 0-0.033 0-0.050 0.017 0 0.033 0 0.050 0 0-0.017 0-0.033 0-0.050 0.033 0 0.067 0 0.1 0 0-0.017 0-0.033 0-0.050 0.017 0 0.033 0 0.050 0 0-0.017 0-0.033 0-0.050 0.017 0 0.033 0 0.050 0 0-0.017 0-0.033 0-0.050 0.033 0 0.067 0 0.1 0 0-0.017 0-0.033 0-0.050 0.017 0 0.033 0 0.050 0 0-0.017 0-0.033 0-0.050 0.017 0 0.033 0 0.050 0 0-0.017 0-0.033 0-0.050 0.017 0 0.033 0 0.050 0 0-0.017 0-0.033 0-0.050 0.033 0 0.067 0 0.1 0 0-0.017 0-0.033 0-0.050 0.017 0 0.033 0 0.050 0 0-0.017 0-0.033 0-0.050 0.017 0 0.033 0 0.050 0 0-0.017 0-0.033 0-0.050 0.017 0 0.033 0 0.050 0 0-0.017 0-0.033 0-0.050 0.017 0 0.033 0 0.050 0 0-0.017 0-0.033 0-0.050 0.017 0 0.033 0 0.050 0 0-0.017 0-0.033 0-0.050 0.017 0 0.033 0 0.050 0 0-0.017 0-0.033 0-0.050 0.017 0 0.033 0 0.050 0 0-0.017 0-0.033 0-0.050 0.017 0 0.033 0 0.050 0 0-0.017 0-0.033 0-0.050 0.017 0 0.033 0 0.050 0 0-0.033 0-0.067 0-0.1 0.017 0 0.033 0 0.050 0 0-0.017 0-0.033 0-0.050 0.017 0 0.033 0 0.050 0 0-0.017 0-0.033 0-0.050 0.017 0 0.033 0 0.050 0 0-0.017 0-0.033 0-0.050 0.017 0 0.033 0 0.050 0 0-0.033 0-0.067 0-0.1 0.017 0 0.033 0 0.050 0 0-0.017 0-0.033 0-0.050 0.017 0 0.033 0 0.050 0 0-0.017 0-0.033 0-0.050 0.017 0 0.033 0 0.050 0 0-0.033 0-0.067 0-0.1 0.017 0 0.033 0 0.050 0 0-0.017 0-0.033 0-0.050 0.017 0 0.033 0 0.050 0 0-0.033 0-0.067 0-0.1 0.017 0 0.033 0 0.050 0 0-0.033 0-0.067 0-0.1 0.017 0 0.033 0 0.050 0 0-0.017 0-0.033 0-0.050 0.017 0 0.033 0 0.050 0 0-0.033 0-0.067 0-0.1 0.017 0 0.033 0 0.050 0 0-0.033 0-0.067 0-0.1 0.017 0 0.033 0 0.050 0 0-0.033 0-0.067 0-0.1 0.017 0 0.033 0 0.050 0 0-0.033 0-0.067 0-0.1 0.017 0 0.033 0 0.050 0 0-0.050 0-0.1 0-0.15 0.017 0 0.033 0 0.050 0 0-0.033 0-0.067 0-0.1 0.017 0 0.033 0 0.050 0 0-0.050 0-0.1 0-0.15 0.017 0 0.033 0 0.050 0 0-0.050 0-0.1 0-0.15 0.017 0 0.033 0 0.050 0 0-0.050 0-0.1 0-0.15 0.017 0 0.033 0 0.050 0 0-0.067 0-0.133 0-0.2 0.017 0 0.033 0 0.050 0 0-0.067 0-0.133 0-0.2 0.017 0 0.033 0 0.050 0 0-0.117 0-0.233 0-0.35 0.017 0 0.033 0 0.050 0 0-0.417 0-0.833 0-1.25-0.017 0-0.033 0-0.050 0 0-0.117 0-0.233 0-0.35-0.017 0-0.033 0-0.050 0 0-0.067 0-0.133 0-0.2-0.017 0-0.033 0-0.050 0 0-0.067 0-0.133 0-0.2-0.017 0-0.033 0-0.050 0 0-0.050 0-0.1 0-0.15-0.017 0-0.033 0-0.050 0 0-0.050 0-0.1 0-0.15-0.017 0-0.033 0-0.050 0 0-0.050 0-0.1 0-0.15-0.017 0-0.033 0-0.050 0 0-0.050 0-0.1 0-0.15-0.017 0-0.033 0-0.050 0 0-0.033 0-0.067 0-0.1-0.017 0-0.033 0-0.050 0 0-0.033 0-0.067 0-0.1-0.017 0-0.033 0-0.050 0 0-0.033 0-0.067 0-0.1-0.017 0-0.033 0-0.050 0 0-0.033 0-0.067 0-0.1-0.017 0-0.033 0-0.050 0 0-0.033 0-0.067 0-0.1-0.017 0-0.033 0-0.050 0 0-0.017 0-0.033 0-0.050-0.017 0-0.033 0-0.050 0 0-0.033 0-0.067 0-0.1-0.017 0-0.033 0-0.050 0 0-0.033 0-0.067 0-0.1-0.017 0-0.033 0-0.050 0 0-0.017 0-0.033 0-0.050-0.017 0-0.033 0-0.050 0 0-0.033 0-0.067 0-0.1-0.017 0-0.033 0-0.050 0 0-0.017 0-0.033 0-0.050-0.017 0-0.033 0-0.050 0 0-0.017 0-0.033 0-0.050-0.017 0-0.033 0-0.050 0 0-0.033 0-0.067 0-0.1-0.017 0-0.033 0-0.050 0 0-0.017 0-0.033 0-0.050-0.017 0-0.033 0-0.050 0 0-0.017 0-0.033 0-0.050-0.017 0-0.033 0-0.050 0 0-0.017 0-0.033 0-0.050-0.017 0-0.033 0-0.050 0 0-0.033 0-0.067 0-0.1-0.017 0-0.033 0-0.050 0 0-0.017 0-0.033 0-0.050-0.017 0-0.033 0-0.050 0 0-0.017 0-0.033 0-0.050-0.017 0-0.033 0-0.050 0 0-0.017 0-0.033 0-0.050-0.017 0-0.033 0-0.050 0 0-0.017 0-0.033 0-0.050-0.017 0-0.033 0-0.050 0 0-0.017 0-0.033 0-0.050-0.017 0-0.033 0-0.050 0 0-0.017 0-0.033 0-0.050-0.017 0-0.033 0-0.050 0 0-0.017 0-0.033 0-0.050-0.017 0-0.033 0-0.050 0 0-0.017 0-0.033 0-0.050-0.017 0-0.033 0-0.050 0 0-0.017 0-0.033 0-0.050-0.017 0-0.033 0-0.050 0 0-0.017 0-0.033 0-0.050-0.033 0-0.067 0-0.1 0 0-0.017 0-0.033 0-0.050-0.017 0-0.033 0-0.050 0 0-0.017 0-0.033 0-0.050-0.017 0-0.033 0-0.050 0 0-0.017 0-0.033 0-0.050-0.017 0-0.033 0-0.050 0 0-0.017 0-0.033 0-0.050-0.033 0-0.067 0-0.1 0 0-0.017 0-0.033 0-0.050-0.017 0-0.033 0-0.050 0 0-0.017 0-0.033 0-0.050-0.033 0-0.067 0-0.1 0 0-0.017 0-0.033 0-0.050-0.017 0-0.033 0-0.050 0 0-0.017 0-0.033 0-0.050-0.033 0-0.067 0-0.1 0 0-0.017 0-0.033 0-0.050-0.017 0-0.033 0-0.050 0 0-0.017 0-0.033 0-0.050-0.033 0-0.067 0-0.1 0 0-0.017 0-0.033 0-0.050-0.033 0-0.067 0-0.1 0 0-0.017 0-0.033 0-0.050-0.033 0-0.067 0-0.1 0 0-0.017 0-0.033 0-0.050-0.033 0-0.067 0-0.1 0 0-0.017 0-0.033 0-0.050-0.033 0-0.067 0-0.1 0 0-0.017 0-0.033 0-0.050-0.033 0-0.067 0-0.1 0 0-0.017 0-0.033 0-0.050-0.050 0-0.1 0-0.15 0 0-0.017 0-0.033 0-0.050-0.033 0-0.067 0-0.1 0 0-0.017 0-0.033 0-0.050-0.050 0-0.1 0-0.15 0 0-0.017 0-0.033 0-0.050-0.050 0-0.1 0-0.15 0 0-0.017 0-0.033 0-0.050-0.067 0-0.133 0-0.2 0 0-0.017 0-0.033 0-0.050-0.067 0-0.133 0-0.2 0 0-0.017 0-0.033 0-0.050-0.1 0-0.2 0-0.3 0 0-0.017 0-0.033 0-0.050-0.2 0-0.4 0-0.6 0 0-0.017 0-0.033 0-0.050-0.083 0-0.167 0-0.25 0 0 0.017 0 0.033 0 0.050-0.2 0-0.4 0-0.6 0 0 0.017 0 0.033 0 0.050-0.1 0-0.2 0-0.3 0 0 0.017 0 0.033 0 0.050-0.067 0-0.133 0-0.2 0 0 0.017 0 0.033 0 0.050-0.067 0-0.133 0-0.2 0 0 0.017 0 0.033 0 0.050-0.050 0-0.1 0-0.15 0 0 0.017 0 0.033 0 0.050-0.050 0-0.1 0-0.15 0 0 0.017 0 0.033 0 0.050-0.050 0-0.1 0-0.15 0 0 0.017 0 0.033 0 0.050-0.033 0-0.067 0-0.1 0 0 0.017 0 0.033 0 0.050-0.033 0-0.067 0-0.1 0 0 0.017 0 0.033 0 0.050-0.050 0-0.1 0-0.15 0 0 0.017 0 0.033 0 0.050-0.033 0-0.067 0-0.1 0 0 0.017 0 0.033 0 0.050-0.017 0-0.033 0-0.050 0 0 0.017 0 0.033 0 0.050-0.033 0-0.067 0-0.1 0 0 0.017 0 0.033 0 0.050-0.033 0-0.067 0-0.1 0 0 0.017 0 0.033 0 0.050-0.033 0-0.067 0-0.1 0 0 0.017 0 0.033 0 0.050-0.017 0-0.033 0-0.050 0 0 0.017 0 0.033 0 0.050-0.033 0-0.067 0-0.1 0 0 0.017 0 0.033 0 0.050-0.017 0-0.033 0-0.050 0 0 0.017 0 0.033 0 0.050-0.017 0-0.033 0-0.050 0 0 0.017 0 0.033 0 0.050-0.033 0-0.067 0-0.1 0 0 0.017 0 0.033 0 0.050-0.017 0-0.033 0-0.050 0 0 0.017 0 0.033 0 0.050-0.017 0-0.033 0-0.050 0 0 0.017 0 0.033 0 0.050-0.033 0-0.067 0-0.1 0 0 0.017 0 0.033 0 0.050-0.017 0-0.033 0-0.050 0 0 0.017 0 0.033 0 0.050-0.017 0-0.033 0-0.050 0 0 0.017 0 0.033 0 0.050-0.017 0-0.033 0-0.050 0 0 0.017 0 0.033 0 0.050-0.017 0-0.033 0-0.050 0 0 0.017 0 0.033 0 0.050-0.017 0-0.033 0-0.050 0 0 0.017 0 0.033 0 0.050-0.017 0-0.033 0-0.050 0 0 0.017 0 0.033 0 0.050-0.017 0-0.033 0-0.050 0 0 0.017 0 0.033 0 0.050-0.017 0-0.033 0-0.050 0 0 0.017 0 0.033 0 0.050-0.017 0-0.033 0-0.050 0 0 0.017 0 0.033 0 0.050-0.017 0-0.033 0-0.050 0 0 0.017 0 0.033 0 0.050-0.017 0-0.033 0-0.050 0 0 0.017 0 0.033 0 0.050-0.017 0-0.033 0-0.050 0 0 0.017 0 0.033 0 0.050-0.017 0-0.033 0-0.050 0 0 0.033 0 0.067 0 0.1-0.017 0-0.033 0-0.050 0 0 0.017 0 0.033 0 0.050-0.017 0-0.033 0-0.050 0 0 0.017 0 0.033 0 0.050-0.017 0-0.033 0-0.050 0 0 0.017 0 0.033 0 0.050-0.017 0-0.033 0-0.050 0 0 0.033 0 0.067 0 0.1-0.017 0-0.033 0-0.050 0 0 0.017 0 0.033 0 0.050-0.017 0-0.033 0-0.050 0 0 0.033 0 0.067 0 0.1-0.017 0-0.033 0-0.050 0 0 0.017 0 0.033 0 0.050-0.017 0-0.033 0-0.050 0 0 0.033 0 0.067 0 0.1-0.017 0-0.033 0-0.050 0 0 0.033 0 0.067 0 0.1-0.017 0-0.033 0-0.050 0 0 0.017 0 0.033 0 0.050-0.017 0-0.033 0-0.050 0 0 0.033 0 0.067 0 0.1-0.017 0-0.033 0-0.050 0 0 0.033 0 0.067 0 0.1-0.017 0-0.033 0-0.050 0 0 0.033 0 0.067 0 0.1-0.017 0-0.033 0-0.050 0 0 0.050 0 0.1 0 0.15-0.017 0-0.033 0-0.050 0 0 0.033 0 0.067 0 0.1-0.017 0-0.033 0-0.050 0 0 0.050 0 0.1 0 0.15-0.017 0-0.033 0-0.050 0 0 0.033 0 0.067 0 0.1-0.017 0-0.033 0-0.050 0 0 0.067 0 0.133 0 0.2-0.017 0-0.033 0-0.050 0 0 0.050 0 0.1 0 0.15-0.017 0-0.033 0-0.050 0 0 0.083 0 0.167 0 0.25-0.017 0-0.033 0-0.050 0 0 0.083 0 0.167 0 0.25-0.017 0-0.033 0-0.050 0 0 0.167 0 0.333 0 0.5-0.017 0-0.033 0-0.050 0 0 0.183 0 0.367 0 0.55 0.017 0 0.033 0 0.050 0 0 0.183 0 0.367 0 0.55-0.033 0-0.067 0-0.1 0 0 0.017 0 0.033 0 0.050-0.033 0-0.067 0-0.1 0 0 0.017 0 0.033 0 0.050-0.033 0-0.067 0-0.1 0 0 0.017 0 0.033 0 0.050-0.033 0-0.067 0-0.1 0 0 0.017 0 0.033 0 0.050-0.033 0-0.067 0-0.1 0 0 0.017 0 0.033 0 0.050-0.033 0-0.067 0-0.1 0 0 0.017 0 0.033 0 0.050-0.033 0-0.067 0-0.1 0 0 0.017 0 0.033 0 0.050-0.033 0-0.067 0-0.1 0 0 0.017 0 0.033 0 0.050-0.033 0-0.067 0-0.1 0 0 0.017 0 0.033 0 0.050-0.033 0-0.067 0-0.1 0 0 0.017 0 0.033 0 0.050-0.033 0-0.067 0-0.1 0 0 0.017 0 0.033 0 0.050-0.033 0-0.067 0-0.1 0 0 0.017 0 0.033 0 0.050-0.033 0-0.067 0-0.1 0 0 0.017 0 0.033 0 0.050-0.033 0-0.067 0-0.1 0 0 0.017 0 0.033 0 0.050-0.033 0-0.067 0-0.1 0 0 0.017 0 0.033 0 0.050-0.033 0-0.067 0-0.1 0 0 0.017 0 0.033 0 0.050-0.033 0-0.067 0-0.1 0 0 0.017 0 0.033 0 0.050-0.033 0-0.067 0-0.1 0 0 0.017 0 0.033 0 0.050-0.033 0-0.067 0-0.1 0 0 0.017 0 0.033 0 0.050-0.033 0-0.067 0-0.1 0 0 0.017 0 0.033 0 0.050-0.033 0-0.067 0-0.1 0 0 0.017 0 0.033 0 0.050-0.033 0-0.067 0-0.1 0 0 0.017 0 0.033 0 0.050-0.033 0-0.067 0-0.1 0 0 0.017 0 0.033 0 0.050-0.033 0-0.067 0-0.1 0 0 0.017 0 0.033 0 0.050-0.033 0-0.067 0-0.1 0 0 0.017 0 0.033 0 0.050-0.033 0-0.067 0-0.1 0 0 0.017 0 0.033 0 0.050-0.033 0-0.067 0-0.1 0 0 0.017 0 0.033 0 0.050-0.033 0-0.067 0-0.1 0 0 0.017 0 0.033 0 0.050-0.033 0-0.067 0-0.1 0 0 0.017 0 0.033 0 0.050-0.033 0-0.067 0-0.1 0 0 0.017 0 0.033 0 0.050-0.033 0-0.067 0-0.1 0 0 0.017 0 0.033 0 0.050-0.033 0-0.067 0-0.1 0 0 0.017 0 0.033 0 0.050-0.033 0-0.067 0-0.1 0 0 0.017 0 0.033 0 0.050-0.033 0-0.067 0-0.1 0 0 0.017 0 0.033 0 0.050-0.033 0-0.067 0-0.1 0 0 0.017 0 0.033 0 0.050-0.033 0-0.067 0-0.1 0 0 0.017 0 0.033 0 0.050-0.033 0-0.067 0-0.1 0 0 0.017 0 0.033 0 0.050-0.033 0-0.067 0-0.1 0 0 0.017 0 0.033 0 0.050-0.033 0-0.067 0-0.1 0 0 0.017 0 0.033 0 0.050-0.033 0-0.067 0-0.1 0 0 0.017 0 0.033 0 0.050-0.033 0-0.067 0-0.1 0 0 0.017 0 0.033 0 0.050-0.033 0-0.067 0-0.1 0 0 0.017 0 0.033 0 0.050-0.033 0-0.067 0-0.1 0 0 0.017 0 0.033 0 0.050-0.033 0-0.067 0-0.1 0 0 0.017 0 0.033 0 0.050-0.033 0-0.067 0-0.1 0 0 0.017 0 0.033 0 0.050-0.033 0-0.067 0-0.1 0 0 0.017 0 0.033 0 0.050-0.033 0-0.067 0-0.1 0 0 0.017 0 0.033 0 0.050-0.033 0-0.067 0-0.1 0 0 0.017 0 0.033 0 0.050-0.033 0-0.067 0-0.1 0 0 0.017 0 0.033 0 0.050-0.033 0-0.067 0-0.1 0 0 0.017 0 0.033 0 0.050-0.033 0-0.067 0-0.1 0 0 0.017 0 0.033 0 0.050-0.033 0-0.067 0-0.1 0 0 0.017 0 0.033 0 0.050-0.033 0-0.067 0-0.1 0 0 0.017 0 0.033 0 0.050-0.033 0-0.067 0-0.1 0 0 0.017 0 0.033 0 0.050-0.033 0-0.067 0-0.1 0 0 0.017 0 0.033 0 0.050-0.033 0-0.067 0-0.1 0 0 0.017 0 0.033 0 0.050-0.033 0-0.067 0-0.1 0 0 0.017 0 0.033 0 0.050-0.033 0-0.067 0-0.1 0 0 0.017 0 0.033 0 0.050-0.033 0-0.067 0-0.1 0 0 0.017 0 0.033 0 0.050-0.033 0-0.067 0-0.1 0 0 0.017 0 0.033 0 0.050-0.033 0-0.067 0-0.1 0 0 0.017 0 0.033 0 0.050-0.033 0-0.067 0-0.1 0 0 0.017 0 0.033 0 0.050-0.033 0-0.067 0-0.1 0 0 0.017 0 0.033 0 0.050-0.033 0-0.067 0-0.1 0 0 0.017 0 0.033 0 0.050-0.033 0-0.067 0-0.1 0 0 0.017 0 0.033 0 0.050-0.033 0-0.067 0-0.1 0 0 0.017 0 0.033 0 0.050-0.033 0-0.067 0-0.1 0 0 0.017 0 0.033 0 0.050-0.033 0-0.067 0-0.1 0 0 0.017 0 0.033 0 0.050-0.033 0-0.067 0-0.1 0 0 0.017 0 0.033 0 0.050-0.033 0-0.067 0-0.1 0 0 0.017 0 0.033 0 0.050-0.033 0-0.067 0-0.1 0 0 0.017 0 0.033 0 0.050-0.033 0-0.067 0-0.1 0 0 0.017 0 0.033 0 0.050-0.033 0-0.067 0-0.1 0 0 0.017 0 0.033 0 0.050-0.033 0-0.067 0-0.1 0 0 0.017 0 0.033 0 0.050-0.033 0-0.067 0-0.1 0 0 0.017 0 0.033 0 0.050-0.033 0-0.067 0-0.1 0 0 0.017 0 0.033 0 0.050-0.033 0-0.067 0-0.1 0 0 0.017 0 0.033 0 0.050-0.033 0-0.067 0-0.1 0 0 0.017 0 0.033 0 0.050-0.033 0-0.067 0-0.1 0 0 0.017 0 0.033 0 0.050-0.033 0-0.067 0-0.1 0 0 0.017 0 0.033 0 0.050-0.033 0-0.067 0-0.1 0 0 0.017 0 0.033 0 0.050-0.033 0-0.067 0-0.1 0 0 0.017 0 0.033 0 0.050-0.033 0-0.067 0-0.1 0 0 0.017 0 0.033 0 0.050-0.033 0-0.067 0-0.1 0 0 0.017 0 0.033 0 0.050-0.033 0-0.067 0-0.1 0 0 0.017 0 0.033 0 0.050-0.033 0-0.067 0-0.1 0 0 0.017 0 0.033 0 0.050-0.033 0-0.067 0-0.1 0 0 0.017 0 0.033 0 0.050-0.033 0-0.067 0-0.1 0 0 0.017 0 0.033 0 0.050-0.033 0-0.067 0-0.1 0 0 0.017 0 0.033 0 0.050-0.033 0-0.067 0-0.1 0 0 0.017 0 0.033 0 0.050-0.033 0-0.067 0-0.1 0 0 0.017 0 0.033 0 0.050-0.033 0-0.067 0-0.1 0 0 0.017 0 0.033 0 0.050-0.033 0-0.067 0-0.1 0 0 0.017 0 0.033 0 0.050-0.033 0-0.067 0-0.1 0 0 0.017 0 0.033 0 0.050-0.033 0-0.067 0-0.1 0 0 0.017 0 0.033 0 0.050-0.033 0-0.067 0-0.1 0 0 0.017 0 0.033 0 0.050-0.033 0-0.067 0-0.1 0 0 0.017 0 0.033 0 0.050-0.033 0-0.067 0-0.1 0 0 0.017 0 0.033 0 0.050-0.033 0-0.067 0-0.1 0 0 0.017 0 0.033 0 0.050-0.033 0-0.067 0-0.1 0 0 0.017 0 0.033 0 0.050-0.033 0-0.067 0-0.1 0 0 0.017 0 0.033 0 0.050-0.033 0-0.067 0-0.1 0 0 0.017 0 0.033 0 0.050-0.033 0-0.067 0-0.1 0 0 0.017 0 0.033 0 0.050-0.033 0-0.067 0-0.1 0 0 0.017 0 0.033 0 0.050-0.033 0-0.067 0-0.1 0 0 0.017 0 0.033 0 0.050-0.033 0-0.067 0-0.1 0 0 0.017 0 0.033 0 0.050-0.033 0-0.067 0-0.1 0 0 0.017 0 0.033 0 0.050-0.033 0-0.067 0-0.1 0 0 0.017 0 0.033 0 0.050-0.033 0-0.067 0-0.1 0 0 0.017 0 0.033 0 0.050-0.033 0-0.067 0-0.1 0 0 0.017 0 0.033 0 0.050-0.033 0-0.067 0-0.1 0 0 0.017 0 0.033 0 0.050-0.033 0-0.067 0-0.1 0 0 0.017 0 0.033 0 0.050-0.033 0-0.067 0-0.1 0 0 0.017 0 0.033 0 0.050-0.033 0-0.067 0-0.1 0 0 0.017 0 0.033 0 0.050-0.033 0-0.067 0-0.1 0 0 0.017 0 0.033 0 0.050-0.033 0-0.067 0-0.1 0 0 0.017 0 0.033 0 0.050-0.033 0-0.067 0-0.1 0 0 0.017 0 0.033 0 0.050-0.033 0-0.067 0-0.1 0 0 0.017 0 0.033 0 0.050-0.033 0-0.067 0-0.1 0 0 0.017 0 0.033 0 0.050-0.033 0-0.067 0-0.1 0 0 0.017 0 0.033 0 0.050-0.033 0-0.067 0-0.1 0 0 0.017 0 0.033 0 0.050-0.033 0-0.067 0-0.1 0 0 0.017 0 0.033 0 0.050-0.033 0-0.067 0-0.1 0 0 0.017 0 0.033 0 0.050-0.033 0-0.067 0-0.1 0 0 0.017 0 0.033 0 0.050-0.033 0-0.067 0-0.1 0 0 0.017 0 0.033 0 0.050-0.033 0-0.067 0-0.1 0 0 0.017 0 0.033 0 0.050-0.033 0-0.067 0-0.1 0 0 0.017 0 0.033 0 0.050-0.033 0-0.067 0-0.1 0 0 0.017 0 0.033 0 0.050-0.033 0-0.067 0-0.1 0 0 0.017 0 0.033 0 0.050-0.033 0-0.067 0-0.1 0 0 0.017 0 0.033 0 0.050-0.033 0-0.067 0-0.1 0 0 0.017 0 0.033 0 0.050-0.033 0-0.067 0-0.1 0 0 0.017 0 0.033 0 0.050-0.033 0-0.067 0-0.1 0 0 0.017 0 0.033 0 0.050-0.033 0-0.067 0-0.1 0 0 0.017 0 0.033 0 0.050-0.017 0-0.033 0-0.050 0 0-0.017 0-0.033 0-0.050-0.017 0-0.033 0-0.050 0 0-0.017 0-0.033 0-0.050-0.017 0-0.033 0-0.050 0 0-0.017 0-0.033 0-0.050-0.017 0-0.033 0-0.050 0 0-0.017 0-0.033 0-0.050-0.017 0-0.033 0-0.050 0 0-0.017 0-0.033 0-0.050-0.017 0-0.033 0-0.050 0 0-0.017 0-0.033 0-0.050-0.017 0-0.033 0-0.050 0 0-0.017 0-0.033 0-0.050-0.017 0-0.033 0-0.050 0 0-0.017 0-0.033 0-0.050-0.033 0-0.067 0-0.1 0 0-0.017 0-0.033 0-0.050-0.017 0-0.033 0-0.050 0 0-0.017 0-0.033 0-0.050-0.017 0-0.033 0-0.050 0 0-0.017 0-0.033 0-0.050-0.033 0-0.067 0-0.1 0 0-0.017 0-0.033 0-0.050-0.017 0-0.033 0-0.050 0 0-0.017 0-0.033 0-0.050-0.017 0-0.033 0-0.050 0 0-0.017 0-0.033 0-0.050-0.033 0-0.067 0-0.1 0 0-0.017 0-0.033 0-0.050-0.033 0-0.067 0-0.1 0 0-0.017 0-0.033 0-0.050-0.017 0-0.033 0-0.050 0 0-0.017 0-0.033 0-0.050-0.033 0-0.067 0-0.1 0 0-0.017 0-0.033 0-0.050-0.033 0-0.067 0-0.1 0 0-0.017 0-0.033 0-0.050-0.017 0-0.033 0-0.050 0 0-0.017 0-0.033 0-0.050-0.033 0-0.067 0-0.1 0 0-0.017 0-0.033 0-0.050-0.050 0-0.1 0-0.15 0 0-0.017 0-0.033 0-0.050-0.033 0-0.067 0-0.1 0 0-0.017 0-0.033 0-0.050-0.033 0-0.067 0-0.1 0 0-0.017 0-0.033 0-0.050-0.050 0-0.1 0-0.15 0 0-0.017 0-0.033 0-0.050-0.050 0-0.1 0-0.15 0 0-0.017 0-0.033 0-0.050-0.050 0-0.1 0-0.15 0 0-0.017 0-0.033 0-0.050-0.050 0-0.1 0-0.15 0 0-0.017 0-0.033 0-0.050-0.083 0-0.167 0-0.25 0 0-0.017 0-0.033 0-0.050-0.083 0-0.167 0-0.25 0 0-0.017 0-0.033 0-0.050-0.183 0-0.367 0-0.55 0 0-0.017 0-0.033 0-0.050-0.15 0-0.3 0-0.45 0 0 0.017 0 0.033 0 0.050-0.183 0-0.367 0-0.55 0 0 0.017 0 0.033 0 0.050-0.083 0-0.167 0-0.25 0 0 0.017 0 0.033 0 0.050-0.083 0-0.167 0-0.25 0 0 0.017 0 0.033 0 0.050-0.050 0-0.1 0-0.15 0 0 0.017 0 0.033 0 0.050-0.050 0-0.1 0-0.15 0 0 0.017 0 0.033 0 0.050-0.050 0-0.1 0-0.15 0 0 0.017 0 0.033 0 0.050-0.050 0-0.1 0-0.15 0 0 0.017 0 0.033 0 0.050-0.033 0-0.067 0-0.1 0 0 0.017 0 0.033 0 0.050-0.033 0-0.067 0-0.1 0 0 0.017 0 0.033 0 0.050-0.050 0-0.1 0-0.15 0 0 0.017 0 0.033 0 0.050-0.033 0-0.067 0-0.1 0 0 0.017 0 0.033 0 0.050-0.017 0-0.033 0-0.050 0 0 0.017 0 0.033 0 0.050-0.033 0-0.067 0-0.1 0 0 0.017 0 0.033 0 0.050-0.033 0-0.067 0-0.1 0 0 0.017 0 0.033 0 0.050-0.033 0-0.067 0-0.1 0 0 0.017 0 0.033 0 0.050-0.017 0-0.033 0-0.050 0 0 0.017 0 0.033 0 0.050-0.033 0-0.067 0-0.1 0 0 0.017 0 0.033 0 0.050-0.017 0-0.033 0-0.050 0 0 0.017 0 0.033 0 0.050-0.017 0-0.033 0-0.050 0 0 0.017 0 0.033 0 0.050-0.033 0-0.067 0-0.1 0 0 0.017 0 0.033 0 0.050-0.017 0-0.033 0-0.050 0 0 0.017 0 0.033 0 0.050-0.017 0-0.033 0-0.050 0 0 0.017 0 0.033 0 0.050-0.033 0-0.067 0-0.1 0 0 0.017 0 0.033 0 0.050-0.017 0-0.033 0-0.050 0 0 0.017 0 0.033 0 0.050-0.017 0-0.033 0-0.050 0 0 0.017 0 0.033 0 0.050-0.017 0-0.033 0-0.050 0 0 0.017 0 0.033 0 0.050-0.017 0-0.033 0-0.050 0 0 0.017 0 0.033 0 0.050-0.017 0-0.033 0-0.050 0 0 0.017 0 0.033 0 0.050-0.017 0-0.033 0-0.050 0 0 0.017 0 0.033 0 0.050-0.017 0-0.033 0-0.050 0 0 0.017 0 0.033 0 0.050-0.017 0-0.033 0-0.050 0 0 0.017 0 0.033 0 0.050-0.017 0-0.033 0-0.050 0 0 0.017 0 0.033 0 0.050-0.017 0-0.033 0-0.050 0 0 0.017 0 0.033 0 0.050-0.017 0-0.033 0-0.050 0 0 0.017 0 0.033 0 0.050-0.017 0-0.033 0-0.050 0 0 0.017 0 0.033 0 0.050-0.017 0-0.033 0-0.050 0 0 0.033 0 0.067 0 0.1-0.017 0-0.033 0-0.050 0 0 0.017 0 0.033 0 0.050-0.017 0-0.033 0-0.050 0 0 0.017 0 0.033 0 0.050-0.017 0-0.033 0-0.050 0 0 0.033 0 0.067 0 0.1-0.017 0-0.033 0-0.050 0 0 0.017 0 0.033 0 0.050-0.017 0-0.033 0-0.050 0 0 0.033 0 0.067 0 0.1-0.017 0-0.033 0-0.050 0 0 0.017 0 0.033 0 0.050-0.017 0-0.033 0-0.050 0 0 0.033 0 0.067 0 0.1-0.017 0-0.033 0-0.050 0 0 0.017 0 0.033 0 0.050-0.017 0-0.033 0-0.050 0 0 0.033 0 0.067 0 0.1-0.017 0-0.033 0-0.050 0 0 0.033 0 0.067 0 0.1-0.017 0-0.033 0-0.050 0 0 0.033 0 0.067 0 0.1-0.017 0-0.033 0-0.050 0 0 0.033 0 0.067 0 0.1-0.017 0-0.033 0-0.050 0 0 0.033 0 0.067 0 0.1-0.017 0-0.033 0-0.050 0 0 0.033 0 0.067 0 0.1-0.017 0-0.033 0-0.050 0 0 0.033 0 0.067 0 0.1-0.017 0-0.033 0-0.050 0 0 0.050 0 0.1 0 0.15-0.017 0-0.033 0-0.050 0 0 0.050 0 0.1 0 0.15-0.017 0-0.033 0-0.050 0 0 0.050 0 0.1 0 0.15-0.017 0-0.033 0-0.050 0 0 0.067 0 0.133 0 0.2-0.017 0-0.033 0-0.050 0 0 0.067 0 0.133 0 0.2-0.017 0-0.033 0-0.050 0 0 0.1 0 0.2 0 0.3-0.017 0-0.033 0-0.050 0 0 0.467 0 0.933 0 1.4 0.017 0 0.033 0 0.050 0 0 0.1 0 0.2 0 0.3 0.017 0 0.033 0 0.050 0 0 0.083 0 0.167 0 0.25 0.017 0 0.033 0 0.050 0 0 0.067 0 0.133 0 0.2 0.017 0 0.033 0 0.050 0 0 0.050 0 0.1 0 0.15 0.017 0 0.033 0 0.050 0 0 0.050 0 0.1 0 0.15 0.017 0 0.033 0 0.050 0 0 0.033 0 0.067 0 0.1 0.017 0 0.033 0 0.050 0 0 0.050 0 0.1 0 0.15 0.017 0 0.033 0 0.050 0 0 0.033 0 0.067 0 0.1 0.017 0 0.033 0 0.050 0 0 0.033 0 0.067 0 0.1 0.017 0 0.033 0 0.050 0 0 0.033 0 0.067 0 0.1 0.017 0 0.033 0 0.050 0 0 0.033 0 0.067 0 0.1 0.017 0 0.033 0 0.050 0 0 0.033 0 0.067 0 0.1 0.017 0 0.033 0 0.050 0 0 0.017 0 0.033 0 0.050 0.017 0 0.033 0 0.050 0 0 0.033 0 0.067 0 0.1 0.017 0 0.033 0 0.050 0 0 0.033 0 0.067 0 0.1 0.017 0 0.033 0 0.050 0 0 0.017 0 0.033 0 0.050 0.017 0 0.033 0 0.050 0 0 0.033 0 0.067 0 0.1 0.017 0 0.033 0 0.050 0 0 0.017 0 0.033 0 0.050 0.017 0 0.033 0 0.050 0 0 0.017 0 0.033 0 0.050 0.017 0 0.033 0 0.050 0 0 0.033 0 0.067 0 0.1 0.017 0 0.033 0 0.050 0 0 0.017 0 0.033 0 0.050 0.017 0 0.033 0 0.050 0 0 0.017 0 0.033 0 0.050 0.017 0 0.033 0 0.050 0 0 0.017 0 0.033 0 0.050 0.017 0 0.033 0 0.050 0 0 0.033 0 0.067 0 0.1 0.017 0 0.033 0 0.050 0 0 0.017 0 0.033 0 0.050 0.017 0 0.033 0 0.050 0 0 0.017 0 0.033 0 0.050 0.017 0 0.033 0 0.050 0 0 0.017 0 0.033 0 0.050 0.017 0 0.033 0 0.050 0 0 0.017 0 0.033 0 0.050 0.017 0 0.033 0 0.050 0 0 0.017 0 0.033 0 0.050 0.017 0 0.033 0 0.050 0 0 0.017 0 0.033 0 0.050 0.017 0 0.033 0 0.050 0 0 0.017 0 0.033 0 0.050 0.017 0 0.033 0 0.050 0 0 0.017 0 0.033 0 0.050 0.017 0 0.033 0 0.050 0 0 0.017 0 0.033 0 0.050 0.033 0 0.067 0 0.1 0 0 0.017 0 0.033 0 0.050 0.017 0 0.033 0 0.050 0 0 0.017 0 0.033 0 0.050 0.017 0 0.033 0 0.050 0 0 0.017 0 0.033 0 0.050 0.017 0 0.033 0 0.050 0 0 0.017 0 0.033 0 0.050 0.033 0 0.067 0 0.1 0 0 0.017 0 0.033 0 0.050 0.017 0 0.033 0 0.050 0 0 0.017 0 0.033 0 0.050 0.017 0 0.033 0 0.050 0 0 0.017 0 0.033 0 0.050 0.033 0 0.067 0 0.1 0 0 0.017 0 0.033 0 0.050 0.017 0 0.033 0 0.050 0 0 0.017 0 0.033 0 0.050 0.033 0 0.067 0 0.1 0 0 0.017 0 0.033 0 0.050 0.033 0 0.067 0 0.1 0 0 0.017 0 0.033 0 0.050 0.017 0 0.033 0 0.050 0 0 0.017 0 0.033 0 0.050 0.033 0 0.067 0 0.1 0 0 0.017 0 0.033 0 0.050 0.033 0 0.067 0 0.1 0 0 0.017 0 0.033 0 0.050 0.033 0 0.067 0 0.1 0 0 0.017 0 0.033 0 0.050 0.033 0 0.067 0 0.1 0 0 0.017 0 0.033 0 0.050 0.033 0 0.067 0 0.1 0 0 0.017 0 0.033 0 0.050 0.050 0 0.1 0 0.15 0 0 0.017 0 0.033 0 0.050 0.050 0 0.1 0 0.15 0 0 0.017 0 0.033 0 0.050 0.050 0 0.1 0 0.15 0 0 0.017 0 0.033 0 0.050 0.050 0 0.1 0 0.15 0 0 0.017 0 0.033 0 0.050 0.067 0 0.133 0 0.2 0 0 0.017 0 0.033 0 0.050 0.067 0 0.133 0 0.2 0 0 0.017 0 0.033 0 0.050 0.1 0 0.2 0 0.3 0 0 0.017 0 0.033 0 0.050 0.45 0 0.9 0 1.35 0 0-0.017 0-0.033 0-0.050 0.1 0 0.2 0 0.3 0 0-0.017 0-0.033 0-0.050 0.067 0 0.133 0 0.2 0 0-0.017 0-0.033 0-0.050 0.067 0 0.133 0 0.2 0 0-0.017 0-0.033 0-0.050 0.050 0 0.1 0 0.15 0 0-0.017 0-0.033 0-0.050 0.050 0 0.1 0 0.15 0 0-0.017 0-0.033 0-0.050 0.050 0 0.1 0 0.15 0 0-0.017 0-0.033 0-0.050 0.050 0 0.1 0 0.15 0 0-0.017 0-0.033 0-0.050 0.033 0 0.067 0 0.1 0 0-0.017 0-0.033 0-0.050 0.033 0 0.067 0 0.1 0 0-0.017 0-0.033 0-0.050 0.033 0 0.067 0 0.1 0 0-0.017 0-0.033 0-0.050 0.033 0 0.067 0 0.1 0 0-0.017 0-0.033 0-0.050 0.033 0 0.067 0 0.1 0 0-0.017 0-0.033 0-0.050 0.017 0 0.033 0 0.050 0 0-0.017 0-0.033 0-0.050 0.033 0 0.067 0 0.1 0 0-0.017 0-0.033 0-0.050 0.033 0 0.067 0 0.1 0 0-0.017 0-0.033 0-0.050 0.017 0 0.033 0 0.050 0 0-0.017 0-0.033 0-0.050 0.033 0 0.067 0 0.1 0 0-0.017 0-0.033 0-0.050 0.017 0 0.033 0 0.050 0 0-0.017 0-0.033 0-0.050 0.017 0 0.033 0 0.050 0 0-0.017 0-0.033 0-0.050 0.033 0 0.067 0 0.1 0 0-0.017 0-0.033 0-0.050 0.017 0 0.033 0 0.050 0 0-0.017 0-0.033 0-0.050 0.017 0 0.033 0 0.050 0 0-0.017 0-0.033 0-0.050 0.017 0 0.033 0 0.050 0 0-0.017 0-0.033 0-0.050 0.033 0 0.067 0 0.1 0 0-0.017 0-0.033 0-0.050 0.017 0 0.033 0 0.050 0 0-0.017 0-0.033 0-0.050 0.017 0 0.033 0 0.050 0 0-0.017 0-0.033 0-0.050 0.017 0 0.033 0 0.050 0 0-0.017 0-0.033 0-0.050 0.017 0 0.033 0 0.050 0 0-0.017 0-0.033 0-0.050 0.017 0 0.033 0 0.050 0 0-0.017 0-0.033 0-0.050 0.017 0 0.033 0 0.050 0 0 0.017 0 0.033 0 0.050 0.033 0 0.067 0 0.1 0 0 0.017 0 0.033 0 0.050 0.033 0 0.067 0 0.1 0 0 0.017 0 0.033 0 0.050 0.033 0 0.067 0 0.1 0 0 0.017 0 0.033 0 0.050 0.033 0 0.067 0 0.1 0 0 0.017 0 0.033 0 0.050 0.033 0 0.067 0 0.1 0 0 0.017 0 0.033 0 0.050 0.033 0 0.067 0 0.1 0 0 0.017 0 0.033 0 0.050 0.033 0 0.067 0 0.1 0 0 0.017 0 0.033 0 0.050 0.033 0 0.067 0 0.1 0 0 0.017 0 0.033 0 0.050 0.033 0 0.067 0 0.1 0 0 0.017 0 0.033 0 0.050 0.033 0 0.067 0 0.1 0 0 0.017 0 0.033 0 0.050 0.033 0 0.067 0 0.1 0 0 0.017 0 0.033 0 0.050 0.033 0 0.067 0 0.1 0 0 0.017 0 0.033 0 0.050 0.033 0 0.067 0 0.1 0 0 0.017 0 0.033 0 0.050 0.033 0 0.067 0 0.1 0 0 0.017 0 0.033 0 0.050 0.033 0 0.067 0 0.1 0 0 0.017 0 0.033 0 0.050 0.033 0 0.067 0 0.1 0 0 0.017 0 0.033 0 0.050 0.033 0 0.067 0 0.1 0 0 0.017 0 0.033 0 0.050 0.033 0 0.067 0 0.1 0 0 0.017 0 0.033 0 0.050 0.033 0 0.067 0 0.1 0 0 0.017 0 0.033 0 0.050 0.033 0 0.067 0 0.1 0 0 0.017 0 0.033 0 0.050 0.033 0 0.067 0 0.1 0 0 0.017 0 0.033 0 0.050 0.033 0 0.067 0 0.1 0 0 0.017 0 0.033 0 0.050 0.033 0 0.067 0 0.1 0 0 0.017 0 0.033 0 0.050 0.033 0 0.067 0 0.1 0 0 0.017 0 0.033 0 0.050 0.033 0 0.067 0 0.1 0 0 0.017 0 0.033 0 0.050 0.033 0 0.067 0 0.1 0 0 0.017 0 0.033 0 0.050 0.033 0 0.067 0 0.1 0 0 0.017 0 0.033 0 0.050 0.033 0 0.067 0 0.1 0 0 0.017 0 0.033 0 0.050 0.033 0 0.067 0 0.1 0 0 0.017 0 0.033 0 0.050 0.033 0 0.067 0 0.1 0 0 0.017 0 0.033 0 0.050 0.033 0 0.067 0 0.1 0 0 0.017 0 0.033 0 0.050 0.033 0 0.067 0 0.1 0 0 0.017 0 0.033 0 0.050 0.033 0 0.067 0 0.1 0 0 0.017 0 0.033 0 0.050 0.033 0 0.067 0 0.1 0 0 0.017 0 0.033 0 0.050 0.033 0 0.067 0 0.1 0 0 0.017 0 0.033 0 0.050 0.033 0 0.067 0 0.1 0 0 0.017 0 0.033 0 0.050 0.033 0 0.067 0 0.1 0 0 0.017 0 0.033 0 0.050 0.033 0 0.067 0 0.1 0 0 0.017 0 0.033 0 0.050 0.033 0 0.067 0 0.1 0 0 0.017 0 0.033 0 0.050 0.033 0 0.067 0 0.1 0 0 0.017 0 0.033 0 0.050 0.033 0 0.067 0 0.1 0 0 0.017 0 0.033 0 0.050 0.033 0 0.067 0 0.1 0 0 0.017 0 0.033 0 0.050 0.033 0 0.067 0 0.1 0 0 0.017 0 0.033 0 0.050 0.033 0 0.067 0 0.1 0 0 0.017 0 0.033 0 0.050 0.033 0 0.067 0 0.1 0 0 0.017 0 0.033 0 0.050 0.033 0 0.067 0 0.1 0 0 0.017 0 0.033 0 0.050 0.033 0 0.067 0 0.1 0 0 0.017 0 0.033 0 0.050 0.033 0 0.067 0 0.1 0 0 0.017 0 0.033 0 0.050 0.033 0 0.067 0 0.1 0 0 0.017 0 0.033 0 0.050 0.033 0 0.067 0 0.1 0 0 0.017 0 0.033 0 0.050 0.033 0 0.067 0 0.1 0 0 0.017 0 0.033 0 0.050 0.033 0 0.067 0 0.1 0 0 0.017 0 0.033 0 0.050 0.033 0 0.067 0 0.1 0 0 0.017 0 0.033 0 0.050 0.033 0 0.067 0 0.1 0 0 0.017 0 0.033 0 0.050 0.033 0 0.067 0 0.1 0 0 0.017 0 0.033 0 0.050 0.033 0 0.067 0 0.1 0 0 0.017 0 0.033 0 0.050 0.033 0 0.067 0 0.1 0 0 0.017 0 0.033 0 0.050 0.033 0 0.067 0 0.1 0 0 0.017 0 0.033 0 0.050 0.033 0 0.067 0 0.1 0 0 0.017 0 0.033 0 0.050 0.033 0 0.067 0 0.1 0 0 0.017 0 0.033 0 0.050 0.033 0 0.067 0 0.1 0 0 0.017 0 0.033 0 0.050 0.033 0 0.067 0 0.1 0 0 0.017 0 0.033 0 0.050 0.033 0 0.067 0 0.1 0 0 0.017 0 0.033 0 0.050 0.033 0 0.067 0 0.1 0 0 0.017 0 0.033 0 0.050 0.033 0 0.067 0 0.1 0 0 0.017 0 0.033 0 0.050 0.033 0 0.067 0 0.1 0 0 0.017 0 0.033 0 0.050 0.033 0 0.067 0 0.1 0 0 0.017 0 0.033 0 0.050 0.033 0 0.067 0 0.1 0 0 0.017 0 0.033 0 0.050 0.033 0 0.067 0 0.1 0 0 0.017 0 0.033 0 0.050 0.033 0 0.067 0 0.1 0 0 0.017 0 0.033 0 0.050 0.033 0 0.067 0 0.1 0 0 0.017 0 0.033 0 0.050 0.033 0 0.067 0 0.1 0 0 0.017 0 0.033 0 0.050 0.033 0 0.067 0 0.1 0 0 0.017 0 0.033 0 0.050 0.033 0 0.067 0 0.1 0 0 0.017 0 0.033 0 0.050 0.033 0 0.067 0 0.1 0 0 0.017 0 0.033 0 0.050 0.033 0 0.067 0 0.1 0 0 0.017 0 0.033 0 0.050 0.033 0 0.067 0 0.1 0 0 0.017 0 0.033 0 0.050 0.033 0 0.067 0 0.1 0 0 0.017 0 0.033 0 0.050 0.033 0 0.067 0 0.1 0 0 0.017 0 0.033 0 0.050 0.033 0 0.067 0 0.1 0 0 0.017 0 0.033 0 0.050 0.033 0 0.067 0 0.1 0 0 0.017 0 0.033 0 0.050 0.033 0 0.067 0 0.1 0 0 0.017 0 0.033 0 0.050 0.033 0 0.067 0 0.1 0 0 0.017 0 0.033 0 0.050 0.033 0 0.067 0 0.1 0 0 0.017 0 0.033 0 0.050 0.033 0 0.067 0 0.1 0 0 0.017 0 0.033 0 0.050 0.033 0 0.067 0 0.1 0 0 0.017 0 0.033 0 0.050 0.033 0 0.067 0 0.1 0 0 0.017 0 0.033 0 0.050 0.033 0 0.067 0 0.1 0 0 0.017 0 0.033 0 0.050 0.033 0 0.067 0 0.1 0 0 0.017 0 0.033 0 0.050 0.033 0 0.067 0 0.1 0 0 0.017 0 0.033 0 0.050 0.033 0 0.067 0 0.1 0 0 0.017 0 0.033 0 0.050 0.033 0 0.067 0 0.1 0 0 0.017 0 0.033 0 0.050 0.033 0 0.067 0 0.1 0 0 0.017 0 0.033 0 0.050 0.033 0 0.067 0 0.1 0 0 0.017 0 0.033 0 0.050 0.033 0 0.067 0 0.1 0 0 0.017 0 0.033 0 0.050 0.033 0 0.067 0 0.1 0 0 0.017 0 0.033 0 0.050 0.033 0 0.067 0 0.1 0 0 0.017 0 0.033 0 0.050 0.033 0 0.067 0 0.1 0 0 0.017 0 0.033 0 0.050 0.033 0 0.067 0 0.1 0 0 0.017 0 0.033 0 0.050 0.033 0 0.067 0 0.1 0 0 0.017 0 0.033 0 0.050 0.033 0 0.067 0 0.1 0 0 0.017 0 0.033 0 0.050 0.033 0 0.067 0 0.1 0 0 0.017 0 0.033 0 0.050 0.033 0 0.067 0 0.1 0 0 0.017 0 0.033 0 0.050 0.033 0 0.067 0 0.1 0 0 0.017 0 0.033 0 0.050 0.033 0 0.067 0 0.1 0 0 0.017 0 0.033 0 0.050 0.033 0 0.067 0 0.1 0 0 0.017 0 0.033 0 0.050 0.033 0 0.067 0 0.1 0 0 0.017 0 0.033 0 0.050 0.033 0 0.067 0 0.1 0 0 0.017 0 0.033 0 0.050 0.033 0 0.067 0 0.1 0 0 0.017 0 0.033 0 0.050 0.033 0 0.067 0 0.1 0 0 0.017 0 0.033 0 0.050 0.033 0 0.067 0 0.1 0 0 0.017 0 0.033 0 0.050 0.033 0 0.067 0 0.1 0 0 0.017 0 0.033 0 0.050 0.033 0 0.067 0 0.1 0 0 0.017 0 0.033 0 0.050 0.033 0 0.067 0 0.1 0 0 0.017 0 0.033 0 0.050 0.033 0 0.067 0 0.1 0 0 0.017 0 0.033 0 0.050 0.033 0 0.067 0 0.1 0 0 0.017 0 0.033 0 0.050 0.033 0 0.067 0 0.1 0 0 0.017 0 0.033 0 0.050 0.033 0 0.067 0 0.1 0 0 0.017 0 0.033 0 0.050 0.033 0 0.067 0 0.1 0 0 0.017 0 0.033 0 0.050 0.033 0 0.067 0 0.1 0 0 0.017 0 0.033 0 0.050 0.033 0 0.067 0 0.1 0 0 0.017 0 0.033 0 0.050 0.033 0 0.067 0 0.1 0 0 0.017 0 0.033 0 0.050 0.033 0 0.067 0 0.1 0 0 0.017 0 0.033 0 0.050 0.033 0 0.067 0 0.1 0 0 0.017 0 0.033 0 0.050 0.033 0 0.067 0 0.1 0 0 0.017 0 0.033 0 0.050 0.033 0 0.067 0 0.1 0 0 0.017 0 0.033 0 0.050 0.033 0 0.067 0 0.1 0 0 0.017 0 0.033 0 0.050 0.033 0 0.067 0 0.1 0 0 0.017 0 0.033 0 0.050 0.033 0 0.067 0 0.1 0 0 0.017 0 0.033 0 0.050 0.033 0 0.067 0 0.1 0 0 0.017 0 0.033 0 0.050 0.033 0 0.067 0 0.1 0 0 0.017 0 0.033 0 0.050 0.033 0 0.067 0 0.1 0 0 0.017 0 0.033 0 0.050 0.033 0 0.067 0 0.1 0 0 0.017 0 0.033 0 0.050 0.033 0 0.067 0 0.1 0 0 0.183 0 0.367 0 0.55-0.017 0-0.033 0-0.050 0 0 0.183 0 0.367 0 0.55 0.017 0 0.033 0 0.050 0 0 0.167 0 0.333 0 0.5 0.017 0 0.033 0 0.050 0 0 0.083 0 0.167 0 0.25 0.017 0 0.033 0 0.050 0 0 0.067 0 0.133 0 0.2 0.017 0 0.033 0 0.050 0 0 0.067 0 0.133 0 0.2 0.017 0 0.033 0 0.050 0 0 0.050 0 0.1 0 0.15 0.017 0 0.033 0 0.050 0 0 0.050 0 0.1 0 0.15 0.017 0 0.033 0 0.050 0 0 0.050 0 0.1 0 0.15 0.017 0 0.033 0 0.050 0 0 0.033 0 0.067 0 0.1 0.017 0 0.033 0 0.050 0 0 0.033 0 0.067 0 0.1 0.017 0 0.033 0 0.050 0 0 0.033 0 0.067 0 0.1 0.017 0 0.033 0 0.050 0 0 0.033 0 0.067 0 0.1 0.017 0 0.033 0 0.050 0 0 0.033 0 0.067 0 0.1 0.017 0 0.033 0 0.050 0 0 0.033 0 0.067 0 0.1 0.017 0 0.033 0 0.050 0 0 0.033 0 0.067 0 0.1 0.017 0 0.033 0 0.050 0 0 0.017 0 0.033 0 0.050 0.017 0 0.033 0 0.050 0 0 0.033 0 0.067 0 0.1 0.017 0 0.033 0 0.050 0 0 0.017 0 0.033 0 0.050 0.017 0 0.033 0 0.050 0 0 0.033 0 0.067 0 0.1 0.017 0 0.033 0 0.050 0 0 0.017 0 0.033 0 0.050 0.017 0 0.033 0 0.050 0 0 0.033 0 0.067 0 0.1 0.017 0 0.033 0 0.050 0 0 0.017 0 0.033 0 0.050 0.017 0 0.033 0 0.050 0 0 0.017 0 0.033 0 0.050 0.017 0 0.033 0 0.050 0 0 0.017 0 0.033 0 0.050 0.017 0 0.033 0 0.050 0 0 0.033 0 0.067 0 0.1 0.017 0 0.033 0 0.050 0 0 0.017 0 0.033 0 0.050 0.017 0 0.033 0 0.050 0 0 0.017 0 0.033 0 0.050 0.017 0 0.033 0 0.050 0 0 0.017 0 0.033 0 0.050 0.017 0 0.033 0 0.050 0 0 0.017 0 0.033 0 0.050 0.017 0 0.033 0 0.050 0 0 0.017 0 0.033 0 0.050 0.017 0 0.033 0 0.050 0 0 0.017 0 0.033 0 0.050 0.017 0 0.033 0 0.050 0 0 0.017 0 0.033 0 0.050 0.017 0 0.033 0 0.050 0 0 0.017 0 0.033 0 0.050 0.017 0 0.033 0 0.050 0 0 0.017 0 0.033 0 0.050 0.017 0 0.033 0 0.050 0 0 0.017 0 0.033 0 0.050 0.017 0 0.033 0 0.050 0 0 0.017 0 0.033 0 0.050 0.033 0 0.067 0 0.1 0 0 0.017 0 0.033 0 0.050 0.017 0 0.033 0 0.050 0 0 0.017 0 0.033 0 0.050 0.017 0 0.033 0 0.050 0 0 0.017 0 0.033 0 0.050 0.033 0 0.067 0 0.1 0 0 0.017 0 0.033 0 0.050 0.017 0 0.033 0 0.050 0 0 0.017 0 0.033 0 0.050 0.017 0 0.033 0 0.050 0 0 0.017 0 0.033 0 0.050 0.033 0 0.067 0 0.1 0 0 0.017 0 0.033 0 0.050 0.017 0 0.033 0 0.050 0 0 0.017 0 0.033 0 0.050 0.033 0 0.067 0 0.1 0 0 0.017 0 0.033 0 0.050 0.033 0 0.067 0 0.1 0 0 0.017 0 0.033 0 0.050 0.017 0 0.033 0 0.050 0 0 0.017 0 0.033 0 0.050 0.033 0 0.067 0 0.1 0 0 0.017 0 0.033 0 0.050 0.033 0 0.067 0 0.1 0 0 0.017 0 0.033 0 0.050 0.033 0 0.067 0 0.1 0 0 0.017 0 0.033 0 0.050 0.033 0 0.067 0 0.1 0 0 0.017 0 0.033 0 0.050 0.033 0 0.067 0 0.1 0 0 0.017 0 0.033 0 0.050 0.050 0 0.1 0 0.15 0 0 0.017 0 0.033 0 0.050 0.050 0 0.1 0 0.15 0 0 0.017 0 0.033 0 0.050 0.050 0 0.1 0 0.15 0 0 0.017 0 0.033 0 0.050 0.050 0 0.1 0 0.15 0 0 0.017 0 0.033 0 0.050 0.067 0 0.133 0 0.2 0 0 0.017 0 0.033 0 0.050 0.067 0 0.133 0 0.2 0 0 0.017 0 0.033 0 0.050 0.117 0 0.233 0 0.35 0 0 0.017 0 0.033 0 0.050 0.417 0 0.833 0 1.25 0 0-0.017 0-0.033 0-0.050 0.1 0 0.2 0 0.3 0 0-0.017 0-0.033 0-0.050 0.083 0 0.167 0 0.25 0 0-0.017 0-0.033 0-0.050 0.067 0 0.133 0 0.2 0 0-0.017 0-0.033 0-0.050 0.050 0 0.1 0 0.15 0 0-0.017 0-0.033 0-0.050 0.050 0 0.1 0 0.15 0 0-0.017 0-0.033 0-0.050 0.050 0 0.1 0 0.15 0 0-0.017 0-0.033 0-0.050 0.033 0 0.067 0 0.1 0 0-0.017 0-0.033 0-0.050 0.033 0 0.067 0 0.1 0 0-0.017 0-0.033 0-0.050 0.050 0 0.1 0 0.15 0 0-0.017 0-0.033 0-0.050 0.033 0 0.067 0 0.1 0 0-0.017 0-0.033 0-0.050 0.033 0 0.067 0 0.1 0 0-0.017 0-0.033 0-0.050 0.017 0 0.033 0 0.050 0 0-0.017 0-0.033 0-0.050 0.033 0 0.067 0 0.1 0 0-0.017 0-0.033 0-0.050 0.033 0 0.067 0 0.1 0 0-0.017 0-0.033 0-0.050 0.017 0 0.033 0 0.050 0 0-0.017 0-0.033 0-0.050 0.033 0 0.067 0 0.1 0 0-0.017 0-0.033 0-0.050 0.017 0 0.033 0 0.050 0 0-0.017 0-0.033 0-0.050 0.033 0 0.067 0 0.1 0 0-0.017 0-0.033 0-0.050 0.017 0 0.033 0 0.050 0 0-0.017 0-0.033 0-0.050 0.017 0 0.033 0 0.050 0 0-0.017 0-0.033 0-0.050 0.033 0 0.067 0 0.1 0 0-0.017 0-0.033 0-0.050 0.017 0 0.033 0 0.050 0 0-0.017 0-0.033 0-0.050 0.017 0 0.033 0 0.050 0 0-0.017 0-0.033 0-0.050 0.017 0 0.033 0 0.050 0 0-0.017 0-0.033 0-0.050 0.017 0 0.033 0 0.050 0 0-0.017 0-0.033 0-0.050 0.033 0 0.067 0 0.1 0 0-0.017 0-0.033 0-0.050 0.017 0 0.033 0 0.050 0 0-0.017 0-0.033 0-0.050 0.017 0 0.033 0 0.050 0 0-0.017 0-0.033 0-0.050 0.017 0 0.033 0 0.050 0 0-0.017 0-0.033 0-0.050 0.017 0 0.033 0 0.050 0 0-0.017 0-0.033 0-0.050 0.017 0 0.033 0 0.050 0 0-0.033 0-0.067 0-0.1 0.017 0 0.033 0 0.050 0 0-0.017 0-0.033 0-0.050 0.017 0 0.033 0 0.050 0 0-0.017 0-0.033 0-0.050 0.017 0 0.033 0 0.050 0 0-0.017 0-0.033 0-0.050 0.017 0 0.033 0 0.050 0 0-0.017 0-0.033 0-0.050 0.017 0 0.033 0 0.050 0 0-0.033 0-0.067 0-0.1 0.017 0 0.033 0 0.050 0 0-0.017 0-0.033 0-0.050 0.017 0 0.033 0 0.050 0 0-0.017 0-0.033 0-0.050 0.017 0 0.033 0 0.050 0 0-0.033 0-0.067 0-0.1 0.017 0 0.033 0 0.050 0 0-0.017 0-0.033 0-0.050 0.017 0 0.033 0 0.050 0 0-0.033 0-0.067 0-0.1 0.017 0 0.033 0 0.050 0 0-0.017 0-0.033 0-0.050 0.017 0 0.033 0 0.050 0 0-0.033 0-0.067 0-0.1 0.017 0 0.033 0 0.050 0 0-0.033 0-0.067 0-0.1 0.017 0 0.033 0 0.050 0 0-0.017 0-0.033 0-0.050 0.017 0 0.033 0 0.050 0 0-0.033 0-0.067 0-0.1 0.017 0 0.033 0 0.050 0 0-0.033 0-0.067 0-0.1 0.017 0 0.033 0 0.050 0 0-0.033 0-0.067 0-0.1 0.017 0 0.033 0 0.050 0 0-0.050 0-0.1 0-0.15 0.017 0 0.033 0 0.050 0 0-0.033 0-0.067 0-0.1 0.017 0 0.033 0 0.050 0 0-0.050 0-0.1 0-0.15 0.017 0 0.033 0 0.050 0 0-0.050 0-0.1 0-0.15 0.017 0 0.033 0 0.050 0 0-0.050 0-0.1 0-0.15 0.017 0 0.033 0 0.050 0 0-0.067 0-0.133 0-0.2 0.017 0 0.033 0 0.050 0 0-0.083 0-0.167 0-0.25 0.017 0 0.033 0 0.050 0 0-0.1 0-0.2 0-0.3 0.017 0 0.033 0 0.050 0 0-0.433 0-0.867 0-1.3-0.017 0-0.033 0-0.050 0 0-0.1 0-0.2 0-0.3-0.017 0-0.033 0-0.050 0 0-0.083 0-0.167 0-0.25-0.017 0-0.033 0-0.050 0 0-0.050 0-0.1 0-0.15-0.017 0-0.033 0-0.050 0 0-0.067 0-0.133 0-0.2-0.017 0-0.033 0-0.050 0 0-0.050 0-0.1 0-0.15-0.017 0-0.033 0-0.050 0 0-0.033 0-0.067 0-0.1-0.017 0-0.033 0-0.050 0 0-0.050 0-0.1 0-0.15-0.017 0-0.033 0-0.050 0 0-0.033 0-0.067 0-0.1-0.017 0-0.033 0-0.050 0 0-0.033 0-0.067 0-0.1-0.017 0-0.033 0-0.050 0 0-0.033 0-0.067 0-0.1-0.017 0-0.033 0-0.050 0 0-0.033 0-0.067 0-0.1-0.017 0-0.033 0-0.050 0 0-0.033 0-0.067 0-0.1-0.017 0-0.033 0-0.050 0 0-0.033 0-0.067 0-0.1-0.017 0-0.033 0-0.050 0 0-0.017 0-0.033 0-0.050-0.017 0-0.033 0-0.050 0 0-0.033 0-0.067 0-0.1-0.017 0-0.033 0-0.050 0 0-0.017 0-0.033 0-0.050-0.017 0-0.033 0-0.050 0 0-0.033 0-0.067 0-0.1-0.017 0-0.033 0-0.050 0 0-0.017 0-0.033 0-0.050-0.017 0-0.033 0-0.050 0 0-0.033 0-0.067 0-0.1-0.017 0-0.033 0-0.050 0 0-0.017 0-0.033 0-0.050-0.017 0-0.033 0-0.050 0 0-0.017 0-0.033 0-0.050-0.017 0-0.033 0-0.050 0 0-0.017 0-0.033 0-0.050-0.017 0-0.033 0-0.050 0 0-0.033 0-0.067 0-0.1-0.017 0-0.033 0-0.050 0 0-0.017 0-0.033 0-0.050-0.017 0-0.033 0-0.050 0 0-0.017 0-0.033 0-0.050-0.017 0-0.033 0-0.050 0 0-0.017 0-0.033 0-0.050-0.017 0-0.033 0-0.050 0 0-0.017 0-0.033 0-0.050-0.017 0-0.033 0-0.050 0 0-0.017 0-0.033 0-0.050-0.017 0-0.033 0-0.050 0 0-0.017 0-0.033 0-0.050-0.017 0-0.033 0-0.050 0 0-0.017 0-0.033 0-0.050-0.017 0-0.033 0-0.050 0 0-0.017 0-0.033 0-0.050-0.017 0-0.033 0-0.050 0 0-0.017 0-0.033 0-0.050-0.017 0-0.033 0-0.050 0 0-0.017 0-0.033 0-0.050-0.017 0-0.033 0-0.050 0 0-0.017 0-0.033 0-0.050-0.017 0-0.033 0-0.050 0 0-0.017 0-0.033 0-0.050-0.033 0-0.067 0-0.1 0 0-0.017 0-0.033 0-0.050-0.017 0-0.033 0-0.050 0 0-0.017 0-0.033 0-0.050-0.017 0-0.033 0-0.050 0 0-0.017 0-0.033 0-0.050-0.033 0-0.067 0-0.1 0 0-0.017 0-0.033 0-0.050-0.017 0-0.033 0-0.050 0 0-0.017 0-0.033 0-0.050-0.017 0-0.033 0-0.050 0 0-0.017 0-0.033 0-0.050-0.033 0-0.067 0-0.1 0 0-0.017 0-0.033 0-0.050-0.033 0-0.067 0-0.1 0 0-0.017 0-0.033 0-0.050-0.017 0-0.033 0-0.050 0 0-0.017 0-0.033 0-0.050-0.033 0-0.067 0-0.1 0 0-0.017 0-0.033 0-0.050-0.033 0-0.067 0-0.1 0 0-0.017 0-0.033 0-0.050-0.017 0-0.033 0-0.050 0 0-0.017 0-0.033 0-0.050-0.033 0-0.067 0-0.1 0 0-0.017 0-0.033 0-0.050-0.033 0-0.067 0-0.1 0 0-0.017 0-0.033 0-0.050-0.050 0-0.1 0-0.15 0 0-0.017 0-0.033 0-0.050-0.033 0-0.067 0-0.1 0 0-0.017 0-0.033 0-0.050-0.050 0-0.1 0-0.15 0 0-0.017 0-0.033 0-0.050-0.050 0-0.1 0-0.15 0 0-0.017 0-0.033 0-0.050-0.050 0-0.1 0-0.15 0 0-0.017 0-0.033 0-0.050-0.050 0-0.1 0-0.15 0 0-0.017 0-0.033 0-0.050-0.067 0-0.133 0-0.2 0 0-0.017 0-0.033 0-0.050-0.1 0-0.2 0-0.3 0 0-0.017 0-0.033 0-0.050-0.15 0-0.3 0-0.45 0 0-0.017 0-0.033 0-0.050-0.217 0-0.433 0-0.65 0 0 0.017 0 0.033 0 0.050-0.15 0-0.3 0-0.45 0 0 0.017 0 0.033 0 0.050-0.1 0-0.2 0-0.3 0 0 0.017 0 0.033 0 0.050-0.067 0-0.133 0-0.2 0 0 0.017 0 0.033 0 0.050-0.067 0-0.133 0-0.2 0 0 0.017 0 0.033 0 0.050-0.050 0-0.1 0-0.15 0 0 0.017 0 0.033 0 0.050-0.050 0-0.1 0-0.15 0 0 0.017 0 0.033 0 0.050-0.033 0-0.067 0-0.1 0 0 0.017 0 0.033 0 0.050-0.050 0-0.1 0-0.15 0 0 0.017 0 0.033 0 0.050-0.033 0-0.067 0-0.1 0 0 0.017 0 0.033 0 0.050-0.033 0-0.067 0-0.1 0 0 0.017 0 0.033 0 0.050-0.033 0-0.067 0-0.1 0 0 0.017 0 0.033 0 0.050-0.033 0-0.067 0-0.1 0 0 0.017 0 0.033 0 0.050-0.017 0-0.033 0-0.050 0 0 0.017 0 0.033 0 0.050-0.033 0-0.067 0-0.1 0 0 0.017 0 0.033 0 0.050-0.033 0-0.067 0-0.1 0 0 0.017 0 0.033 0 0.050-0.017 0-0.033 0-0.050 0 0 0.017 0 0.033 0 0.050-0.033 0-0.067 0-0.1 0 0 0.017 0 0.033 0 0.050-0.017 0-0.033 0-0.050 0 0 0.017 0 0.033 0 0.050-0.033 0-0.067 0-0.1 0 0 0.017 0 0.033 0 0.050-0.017 0-0.033 0-0.050 0 0 0.017 0 0.033 0 0.050-0.017 0-0.033 0-0.050 0 0 0.017 0 0.033 0 0.050-0.033 0-0.067 0-0.1 0 0 0.017 0 0.033 0 0.050-0.017 0-0.033 0-0.050 0 0 0.017 0 0.033 0 0.050-0.017 0-0.033 0-0.050 0 0 0.017 0 0.033 0 0.050-0.017 0-0.033 0-0.050 0 0 0.017 0 0.033 0 0.050-0.017 0-0.033 0-0.050 0 0 0.017 0 0.033 0 0.050-0.017 0-0.033 0-0.050 0 0 0.017 0 0.033 0 0.050-0.017 0-0.033 0-0.050 0 0 0.017 0 0.033 0 0.050-0.017 0-0.033 0-0.050 0 0 0.017 0 0.033 0 0.050-0.017 0-0.033 0-0.050 0 0 0.017 0 0.033 0 0.050-0.017 0-0.033 0-0.050 0 0-0.017 0-0.033 0-0.050-0.033 0-0.067 0-0.1 0 0-0.017 0-0.033 0-0.050-0.033 0-0.067 0-0.1 0 0-0.017 0-0.033 0-0.050-0.033 0-0.067 0-0.1 0 0-0.017 0-0.033 0-0.050-0.033 0-0.067 0-0.1 0 0-0.017 0-0.033 0-0.050-0.033 0-0.067 0-0.1 0 0-0.017 0-0.033 0-0.050-0.033 0-0.067 0-0.1 0 0-0.017 0-0.033 0-0.050-0.033 0-0.067 0-0.1 0 0-0.017 0-0.033 0-0.050-0.033 0-0.067 0-0.1 0 0-0.017 0-0.033 0-0.050-0.033 0-0.067 0-0.1 0 0-0.017 0-0.033 0-0.050-0.033 0-0.067 0-0.1 0 0-0.017 0-0.033 0-0.050-0.033 0-0.067 0-0.1 0 0-0.017 0-0.033 0-0.050-0.033 0-0.067 0-0.1 0 0-0.017 0-0.033 0-0.050-0.033 0-0.067 0-0.1 0 0-0.017 0-0.033 0-0.050-0.033 0-0.067 0-0.1 0 0-0.017 0-0.033 0-0.050-0.033 0-0.067 0-0.1 0 0-0.017 0-0.033 0-0.050-0.033 0-0.067 0-0.1 0 0-0.017 0-0.033 0-0.050-0.033 0-0.067 0-0.1 0 0-0.017 0-0.033 0-0.050-0.033 0-0.067 0-0.1 0 0-0.017 0-0.033 0-0.050-0.033 0-0.067 0-0.1 0 0-0.017 0-0.033 0-0.050-0.033 0-0.067 0-0.1 0 0-0.017 0-0.033 0-0.050-0.033 0-0.067 0-0.1 0 0-0.017 0-0.033 0-0.050-0.033 0-0.067 0-0.1 0 0-0.017 0-0.033 0-0.050-0.033 0-0.067 0-0.1 0 0-0.017 0-0.033 0-0.050-0.033 0-0.067 0-0.1 0 0-0.017 0-0.033 0-0.050-0.033 0-0.067 0-0.1 0 0-0.017 0-0.033 0-0.050-0.033 0-0.067 0-0.1 0 0-0.017 0-0.033 0-0.050-0.033 0-0.067 0-0.1 0 0-0.017 0-0.033 0-0.050-0.033 0-0.067 0-0.1 0 0-0.017 0-0.033 0-0.050-0.033 0-0.067 0-0.1 0 0-0.017 0-0.033 0-0.050-0.033 0-0.067 0-0.1 0 0-0.017 0-0.033 0-0.050-0.033 0-0.067 0-0.1 0 0-0.017 0-0.033 0-0.050-0.033 0-0.067 0-0.1 0 0-0.017 0-0.033 0-0.050-0.033 0-0.067 0-0.1 0 0-0.017 0-0.033 0-0.050-0.033 0-0.067 0-0.1 0 0-0.017 0-0.033 0-0.050-0.033 0-0.067 0-0.1 0 0-0.017 0-0.033 0-0.050-0.033 0-0.067 0-0.1 0 0-0.017 0-0.033 0-0.050-0.033 0-0.067 0-0.1 0 0-0.017 0-0.033 0-0.050-0.033 0-0.067 0-0.1 0 0-0.017 0-0.033 0-0.050-0.033 0-0.067 0-0.1 0 0-0.017 0-0.033 0-0.050-0.033 0-0.067 0-0.1 0 0-0.017 0-0.033 0-0.050-0.033 0-0.067 0-0.1 0 0-0.017 0-0.033 0-0.050-0.033 0-0.067 0-0.1 0 0-0.017 0-0.033 0-0.050-0.033 0-0.067 0-0.1 0 0-0.017 0-0.033 0-0.050-0.033 0-0.067 0-0.1 0 0-0.017 0-0.033 0-0.050-0.033 0-0.067 0-0.1 0 0-0.017 0-0.033 0-0.050-0.033 0-0.067 0-0.1 0 0-0.017 0-0.033 0-0.050-0.033 0-0.067 0-0.1 0 0-0.017 0-0.033 0-0.050-0.033 0-0.067 0-0.1 0 0-0.017 0-0.033 0-0.050-0.033 0-0.067 0-0.1 0 0-0.017 0-0.033 0-0.050-0.033 0-0.067 0-0.1 0 0-0.017 0-0.033 0-0.050-0.033 0-0.067 0-0.1 0 0-0.017 0-0.033 0-0.050-0.033 0-0.067 0-0.1 0 0-0.017 0-0.033 0-0.050-0.033 0-0.067 0-0.1 0 0-0.017 0-0.033 0-0.050-0.033 0-0.067 0-0.1 0 0-0.017 0-0.033 0-0.050-0.033 0-0.067 0-0.1 0 0-0.017 0-0.033 0-0.050-0.033 0-0.067 0-0.1 0 0-0.017 0-0.033 0-0.050-0.033 0-0.067 0-0.1 0 0-0.017 0-0.033 0-0.050-0.033 0-0.067 0-0.1 0 0-0.017 0-0.033 0-0.050-0.033 0-0.067 0-0.1 0 0-0.017 0-0.033 0-0.050-0.033 0-0.067 0-0.1 0 0-0.017 0-0.033 0-0.050-0.033 0-0.067 0-0.1 0 0-0.017 0-0.033 0-0.050-0.033 0-0.067 0-0.1 0 0-0.017 0-0.033 0-0.050-0.033 0-0.067 0-0.1 0 0-0.017 0-0.033 0-0.050-0.033 0-0.067 0-0.1 0 0-0.017 0-0.033 0-0.050-0.033 0-0.067 0-0.1 0 0-0.017 0-0.033 0-0.050-0.033 0-0.067 0-0.1 0 0-0.017 0-0.033 0-0.050-0.033 0-0.067 0-0.1 0 0-0.017 0-0.033 0-0.050-0.033 0-0.067 0-0.1 0 0-0.017 0-0.033 0-0.050-0.033 0-0.067 0-0.1 0 0-0.017 0-0.033 0-0.050-0.033 0-0.067 0-0.1 0 0-0.017 0-0.033 0-0.050-0.033 0-0.067 0-0.1 0 0-0.017 0-0.033 0-0.050-0.033 0-0.067 0-0.1 0 0-0.017 0-0.033 0-0.050-0.033 0-0.067 0-0.1 0 0-0.017 0-0.033 0-0.050-0.033 0-0.067 0-0.1 0 0-0.017 0-0.033 0-0.050-0.033 0-0.067 0-0.1 0 0-0.017 0-0.033 0-0.050-0.033 0-0.067 0-0.1 0 0-0.017 0-0.033 0-0.050-0.033 0-0.067 0-0.1 0 0-0.017 0-0.033 0-0.050-0.033 0-0.067 0-0.1 0 0-0.017 0-0.033 0-0.050-0.033 0-0.067 0-0.1 0 0-0.017 0-0.033 0-0.050-0.033 0-0.067 0-0.1 0 0-0.017 0-0.033 0-0.050-0.033 0-0.067 0-0.1 0 0-0.017 0-0.033 0-0.050-0.033 0-0.067 0-0.1 0 0-0.017 0-0.033 0-0.050-0.033 0-0.067 0-0.1 0 0-0.017 0-0.033 0-0.050-0.033 0-0.067 0-0.1 0 0-0.017 0-0.033 0-0.050-0.033 0-0.067 0-0.1 0 0-0.017 0-0.033 0-0.050-0.033 0-0.067 0-0.1 0 0-0.017 0-0.033 0-0.050-0.033 0-0.067 0-0.1 0 0-0.017 0-0.033 0-0.050-0.033 0-0.067 0-0.1 0 0-0.017 0-0.033 0-0.050-0.033 0-0.067 0-0.1 0 0-0.017 0-0.033 0-0.050-0.033 0-0.067 0-0.1 0 0-0.017 0-0.033 0-0.050-0.033 0-0.067 0-0.1 0 0-0.017 0-0.033 0-0.050-0.033 0-0.067 0-0.1 0 0-0.017 0-0.033 0-0.050-0.033 0-0.067 0-0.1 0 0-0.017 0-0.033 0-0.050-0.033 0-0.067 0-0.1 0 0-0.017 0-0.033 0-0.050-0.033 0-0.067 0-0.1 0 0-0.017 0-0.033 0-0.050-0.033 0-0.067 0-0.1 0 0-0.017 0-0.033 0-0.050-0.033 0-0.067 0-0.1 0 0-0.017 0-0.033 0-0.050-0.033 0-0.067 0-0.1 0 0-0.017 0-0.033 0-0.050-0.033 0-0.067 0-0.1 0 0-0.017 0-0.033 0-0.050-0.033 0-0.067 0-0.1 0 0-0.017 0-0.033 0-0.050-0.033 0-0.067 0-0.1 0 0-0.017 0-0.033 0-0.050-0.033 0-0.067 0-0.1 0 0-0.017 0-0.033 0-0.050-0.033 0-0.067 0-0.1 0 0-0.017 0-0.033 0-0.050-0.033 0-0.067 0-0.1 0 0-0.017 0-0.033 0-0.050-0.033 0-0.067 0-0.1 0 0-0.017 0-0.033 0-0.050-0.033 0-0.067 0-0.1 0 0-0.017 0-0.033 0-0.050-0.033 0-0.067 0-0.1 0 0-0.017 0-0.033 0-0.050-0.033 0-0.067 0-0.1 0 0-0.017 0-0.033 0-0.050-0.033 0-0.067 0-0.1 0 0-0.017 0-0.033 0-0.050-0.033 0-0.067 0-0.1 0 0-0.017 0-0.033 0-0.050-0.033 0-0.067 0-0.1 0 0-0.017 0-0.033 0-0.050-0.033 0-0.067 0-0.1 0 0-0.017 0-0.033 0-0.050-0.033 0-0.067 0-0.1 0 0-0.017 0-0.033 0-0.050-0.033 0-0.067 0-0.1 0 0-0.017 0-0.033 0-0.050-0.033 0-0.067 0-0.1 0 0-0.017 0-0.033 0-0.050-0.033 0-0.067 0-0.1 0 0-0.017 0-0.033 0-0.050-0.033 0-0.067 0-0.1 0 0-0.017 0-0.033 0-0.050-0.033 0-0.067 0-0.1 0 0-0.017 0-0.033 0-0.050-0.033 0-0.067 0-0.1 0 0-0.017 0-0.033 0-0.050-0.033 0-0.067 0-0.1 0 0-0.017 0-0.033 0-0.050-0.033 0-0.067 0-0.1 0 0-0.017 0-0.033 0-0.050-0.033 0-0.067 0-0.1 0 0-0.017 0-0.033 0-0.050-0.033 0-0.067 0-0.1 0 0-0.017 0-0.033 0-0.050-0.033 0-0.067 0-0.1 0 0-0.017 0-0.033 0-0.050-0.033 0-0.067 0-0.1 0 0-0.017 0-0.033 0-0.050-0.033 0-0.067 0-0.1 0 0-0.017 0-0.033 0-0.050-0.033 0-0.067 0-0.1 0 0-0.017 0-0.033 0-0.050-0.033 0-0.067 0-0.1 0 0-0.017 0-0.033 0-0.050-0.033 0-0.067 0-0.1 0 0-0.017 0-0.033 0-0.050-0.033 0-0.067 0-0.1 0 0-0.017 0-0.033 0-0.050-0.033 0-0.067 0-0.1 0 0-0.017 0-0.033 0-0.050-0.033 0-0.067 0-0.1 0 0-0.017 0-0.033 0-0.050-0.033 0-0.067 0-0.1 0 0-0.017 0-0.033 0-0.050-0.033 0-0.067 0-0.1 0 0-0.017 0-0.033 0-0.050-0.017 0-0.033 0-0.050 0 0-0.033 0-0.067 0-0.1 0.017 0 0.033 0 0.050 0 0-0.467 0-0.933 0-1.4-0.017 0-0.033 0-0.050 0 0-0.017 0-0.033 0-0.050 0.017 0 0.033 0 0.050 0 0-0.017 0-0.033 0-0.050 0.033 0 0.067 0 0.1 0 0-0.017 0-0.033 0-0.050 0.033 0 0.067 0 0.1 0 0-0.017 0-0.033 0-0.050 0.033 0 0.067 0 0.1 0 0-0.017 0-0.033 0-0.050 0.033 0 0.067 0 0.1 0 0-0.017 0-0.033 0-0.050 0.033 0 0.067 0 0.1 0 0-0.017 0-0.033 0-0.050 0.033 0 0.067 0 0.1 0 0-0.017 0-0.033 0-0.050 0.033 0 0.067 0 0.1 0 0-0.017 0-0.033 0-0.050 0.033 0 0.067 0 0.1 0 0-0.017 0-0.033 0-0.050 0.033 0 0.067 0 0.1 0 0-0.017 0-0.033 0-0.050 0.033 0 0.067 0 0.1 0 0-0.017 0-0.033 0-0.050 0.033 0 0.067 0 0.1 0 0-0.017 0-0.033 0-0.050 0.033 0 0.067 0 0.1 0 0-0.017 0-0.033 0-0.050 0.033 0 0.067 0 0.1 0 0-0.017 0-0.033 0-0.050 0.033 0 0.067 0 0.1 0 0-0.017 0-0.033 0-0.050 0.033 0 0.067 0 0.1 0 0-0.017 0-0.033 0-0.050 0.033 0 0.067 0 0.1 0 0-0.017 0-0.033 0-0.050 0.033 0 0.067 0 0.1 0 0-0.017 0-0.033 0-0.050 0.033 0 0.067 0 0.1 0 0-0.017 0-0.033 0-0.050 0.033 0 0.067 0 0.1 0 0-0.017 0-0.033 0-0.050 0.033 0 0.067 0 0.1 0 0-0.017 0-0.033 0-0.050 0.033 0 0.067 0 0.1 0 0-0.017 0-0.033 0-0.050 0.033 0 0.067 0 0.1 0 0-0.017 0-0.033 0-0.050 0.033 0 0.067 0 0.1 0 0-0.017 0-0.033 0-0.050 0.033 0 0.067 0 0.1 0 0-0.017 0-0.033 0-0.050 0.033 0 0.067 0 0.1 0 0-0.017 0-0.033 0-0.050 0.033 0 0.067 0 0.1 0 0-0.017 0-0.033 0-0.050 0.033 0 0.067 0 0.1 0 0-0.017 0-0.033 0-0.050 0.033 0 0.067 0 0.1 0 0-0.017 0-0.033 0-0.050 0.033 0 0.067 0 0.1 0 0-0.017 0-0.033 0-0.050 0.033 0 0.067 0 0.1 0 0-0.017 0-0.033 0-0.050 0.033 0 0.067 0 0.1 0 0-0.017 0-0.033 0-0.050 0.033 0 0.067 0 0.1 0 0-0.017 0-0.033 0-0.050 0.033 0 0.067 0 0.1 0 0-0.017 0-0.033 0-0.050 0.033 0 0.067 0 0.1 0 0-0.017 0-0.033 0-0.050 0.033 0 0.067 0 0.1 0 0-0.017 0-0.033 0-0.050 0.033 0 0.067 0 0.1 0 0-0.017 0-0.033 0-0.050 0.033 0 0.067 0 0.1 0 0-0.017 0-0.033 0-0.050 0.033 0 0.067 0 0.1 0 0-0.017 0-0.033 0-0.050 0.033 0 0.067 0 0.1 0 0-0.017 0-0.033 0-0.050 0.033 0 0.067 0 0.1 0 0-0.017 0-0.033 0-0.050 0.033 0 0.067 0 0.1 0 0-0.017 0-0.033 0-0.050 0.033 0 0.067 0 0.1 0 0-0.017 0-0.033 0-0.050 0.033 0 0.067 0 0.1 0 0-0.017 0-0.033 0-0.050 0.033 0 0.067 0 0.1 0 0-0.017 0-0.033 0-0.050 0.033 0 0.067 0 0.1 0 0-0.017 0-0.033 0-0.050 0.033 0 0.067 0 0.1 0 0-0.017 0-0.033 0-0.050 0.033 0 0.067 0 0.1 0 0-0.017 0-0.033 0-0.050 0.033 0 0.067 0 0.1 0 0-0.017 0-0.033 0-0.050 0.033 0 0.067 0 0.1 0 0-0.017 0-0.033 0-0.050 0.033 0 0.067 0 0.1 0 0-0.017 0-0.033 0-0.050 0.033 0 0.067 0 0.1 0 0-0.017 0-0.033 0-0.050 0.033 0 0.067 0 0.1 0 0-0.017 0-0.033 0-0.050 0.033 0 0.067 0 0.1 0 0-0.017 0-0.033 0-0.050 0.033 0 0.067 0 0.1 0 0-0.017 0-0.033 0-0.050 0.033 0 0.067 0 0.1 0 0-0.017 0-0.033 0-0.050 0.033 0 0.067 0 0.1 0 0-0.017 0-0.033 0-0.050 0.033 0 0.067 0 0.1 0 0-0.017 0-0.033 0-0.050 0.033 0 0.067 0 0.1 0 0-0.017 0-0.033 0-0.050 0.033 0 0.067 0 0.1 0 0-0.017 0-0.033 0-0.050 0.033 0 0.067 0 0.1 0 0-0.017 0-0.033 0-0.050 0.033 0 0.067 0 0.1 0 0-0.017 0-0.033 0-0.050 0.033 0 0.067 0 0.1 0 0-0.017 0-0.033 0-0.050 0.033 0 0.067 0 0.1 0 0-0.017 0-0.033 0-0.050 0.033 0 0.067 0 0.1 0 0-0.017 0-0.033 0-0.050 0.033 0 0.067 0 0.1 0 0-0.017 0-0.033 0-0.050 0.033 0 0.067 0 0.1 0 0-0.017 0-0.033 0-0.050 0.033 0 0.067 0 0.1 0 0-0.017 0-0.033 0-0.050 0.033 0 0.067 0 0.1 0 0-0.017 0-0.033 0-0.050 0.033 0 0.067 0 0.1 0 0-0.017 0-0.033 0-0.050 0.033 0 0.067 0 0.1 0 0-0.017 0-0.033 0-0.050 0.033 0 0.067 0 0.1 0 0-0.017 0-0.033 0-0.050 0.033 0 0.067 0 0.1 0 0-0.017 0-0.033 0-0.050 0.033 0 0.067 0 0.1 0 0-0.017 0-0.033 0-0.050 0.033 0 0.067 0 0.1 0 0-0.017 0-0.033 0-0.050 0.033 0 0.067 0 0.1 0 0-0.017 0-0.033 0-0.050 0.033 0 0.067 0 0.1 0 0-0.017 0-0.033 0-0.050 0.033 0 0.067 0 0.1 0 0-0.017 0-0.033 0-0.050 0.033 0 0.067 0 0.1 0 0-0.017 0-0.033 0-0.050 0.033 0 0.067 0 0.1 0 0-0.017 0-0.033 0-0.050 0.033 0 0.067 0 0.1 0 0-0.017 0-0.033 0-0.050 0.033 0 0.067 0 0.1 0 0-0.017 0-0.033 0-0.050 0.033 0 0.067 0 0.1 0 0-0.017 0-0.033 0-0.050 0.033 0 0.067 0 0.1 0 0-0.017 0-0.033 0-0.050 0.033 0 0.067 0 0.1 0 0-0.017 0-0.033 0-0.050 0.033 0 0.067 0 0.1 0 0-0.017 0-0.033 0-0.050 0.033 0 0.067 0 0.1 0 0-0.017 0-0.033 0-0.050 0.033 0 0.067 0 0.1 0 0-0.017 0-0.033 0-0.050 0.033 0 0.067 0 0.1 0 0-0.017 0-0.033 0-0.050 0.033 0 0.067 0 0.1 0 0-0.017 0-0.033 0-0.050 0.033 0 0.067 0 0.1 0 0-0.017 0-0.033 0-0.050 0.033 0 0.067 0 0.1 0 0-0.017 0-0.033 0-0.050 0.033 0 0.067 0 0.1 0 0-0.017 0-0.033 0-0.050 0.033 0 0.067 0 0.1 0 0-0.017 0-0.033 0-0.050 0.033 0 0.067 0 0.1 0 0-0.017 0-0.033 0-0.050 0.033 0 0.067 0 0.1 0 0-0.017 0-0.033 0-0.050 0.033 0 0.067 0 0.1 0 0-0.017 0-0.033 0-0.050 0.033 0 0.067 0 0.1 0 0-0.017 0-0.033 0-0.050 0.033 0 0.067 0 0.1 0 0-0.017 0-0.033 0-0.050 0.033 0 0.067 0 0.1 0 0-0.017 0-0.033 0-0.050 0.033 0 0.067 0 0.1 0 0-0.017 0-0.033 0-0.050 0.033 0 0.067 0 0.1 0 0-0.017 0-0.033 0-0.050 0.033 0 0.067 0 0.1 0 0-0.017 0-0.033 0-0.050 0.033 0 0.067 0 0.1 0 0-0.017 0-0.033 0-0.050 0.033 0 0.067 0 0.1 0 0-0.017 0-0.033 0-0.050 0.033 0 0.067 0 0.1 0 0-0.017 0-0.033 0-0.050 0.033 0 0.067 0 0.1 0 0-0.017 0-0.033 0-0.050 0.033 0 0.067 0 0.1 0 0-0.017 0-0.033 0-0.050 0.033 0 0.067 0 0.1 0 0-0.017 0-0.033 0-0.050 0.033 0 0.067 0 0.1 0 0-0.017 0-0.033 0-0.050 0.033 0 0.067 0 0.1 0 0-0.017 0-0.033 0-0.050 0.033 0 0.067 0 0.1 0 0-0.017 0-0.033 0-0.050 0.033 0 0.067 0 0.1 0 0-0.017 0-0.033 0-0.050 0.033 0 0.067 0 0.1 0 0-0.017 0-0.033 0-0.050 0.033 0 0.067 0 0.1 0 0-0.017 0-0.033 0-0.050 0.033 0 0.067 0 0.1 0 0-0.017 0-0.033 0-0.050 0.033 0 0.067 0 0.1 0 0-0.017 0-0.033 0-0.050 0.033 0 0.067 0 0.1 0 0-0.017 0-0.033 0-0.050 0.033 0 0.067 0 0.1 0 0-0.017 0-0.033 0-0.050 0.033 0 0.067 0 0.1 0 0-0.017 0-0.033 0-0.050 0.033 0 0.067 0 0.1 0 0-0.017 0-0.033 0-0.050 0.033 0 0.067 0 0.1 0 0-0.017 0-0.033 0-0.050 0.033 0 0.067 0 0.1 0 0-0.017 0-0.033 0-0.050 0.033 0 0.067 0 0.1 0 0-0.017 0-0.033 0-0.050 0.033 0 0.067 0 0.1 0 0-0.017 0-0.033 0-0.050 0.033 0 0.067 0 0.1 0 0-0.017 0-0.033 0-0.050 0.033 0 0.067 0 0.1 0 0-0.017 0-0.033 0-0.050 0.033 0 0.067 0 0.1 0 0-0.017 0-0.033 0-0.050 0.033 0 0.067 0 0.1 0 0-0.017 0-0.033 0-0.050 0.033 0 0.067 0 0.1 0 0-0.017 0-0.033 0-0.050 0.033 0 0.067 0 0.1 0 0-0.017 0-0.033 0-0.050 0.033 0 0.067 0 0.1 0 0-0.017 0-0.033 0-0.050 0.033 0 0.067 0 0.1 0 0-0.017 0-0.033 0-0.050 0.033 0 0.067 0 0.1 0 0-0.017 0-0.033 0-0.050 0.033 0 0.067 0 0.1 0 0-0.017 0-0.033 0-0.050 0.017 0 0.033 0 0.050 0 0 0.017 0 0.033 0 0.050 0.017 0 0.033 0 0.050 0 0 0.017 0 0.033 0 0.050 0.017 0 0.033 0 0.050 0 0 0.017 0 0.033 0 0.050 0.017 0 0.033 0 0.050 0 0 0.017 0 0.033 0 0.050 0.017 0 0.033 0 0.050 0 0 0.017 0 0.033 0 0.050 0.017 0 0.033 0 0.050 0 0 0.017 0 0.033 0 0.050 0.017 0 0.033 0 0.050 0 0 0.017 0 0.033 0 0.050 0.017 0 0.033 0 0.050 0 0 0.017 0 0.033 0 0.050 0.033 0 0.067 0 0.1 0 0 0.017 0 0.033 0 0.050 0.017 0 0.033 0 0.050 0 0 0.017 0 0.033 0 0.050 0.017 0 0.033 0 0.050 0 0 0.017 0 0.033 0 0.050 0.033 0 0.067 0 0.1 0 0 0.017 0 0.033 0 0.050 0.017 0 0.033 0 0.050 0 0 0.017 0 0.033 0 0.050 0.033 0 0.067 0 0.1 0 0 0.017 0 0.033 0 0.050 0.017 0 0.033 0 0.050 0 0 0.017 0 0.033 0 0.050 0.033 0 0.067 0 0.1 0 0 0.017 0 0.033 0 0.050 0.017 0 0.033 0 0.050 0 0 0.017 0 0.033 0 0.050 0.033 0 0.067 0 0.1 0 0 0.017 0 0.033 0 0.050 0.033 0 0.067 0 0.1 0 0 0.017 0 0.033 0 0.050 0.033 0 0.067 0 0.1 0 0 0.017 0 0.033 0 0.050 0.033 0 0.067 0 0.1 0 0 0.017 0 0.033 0 0.050 0.033 0 0.067 0 0.1 0 0 0.017 0 0.033 0 0.050 0.033 0 0.067 0 0.1 0 0 0.017 0 0.033 0 0.050 0.050 0 0.1 0 0.15 0 0 0.017 0 0.033 0 0.050 0.033 0 0.067 0 0.1 0 0 0.017 0 0.033 0 0.050 0.050 0 0.1 0 0.15 0 0 0.017 0 0.033 0 0.050 0.050 0 0.1 0 0.15 0 0 0.017 0 0.033 0 0.050 0.067 0 0.133 0 0.2 0 0 0.017 0 0.033 0 0.050 0.083 0 0.167 0 0.25 0 0 0.017 0 0.033 0 0.050 0.1 0 0.2 0 0.3 0 0 0.017 0 0.033 0 0.050 0.45 0 0.9 0 1.35 0zM7.9 16.5c-0.017 0-0.033 0-0.050 0 0 0.083 0 0.167 0 0.25-0.017 0-0.033 0-0.050 0 0 0.067 0 0.133 0 0.2-0.017 0-0.033 0-0.050 0 0 0.050 0 0.1 0 0.15-0.017 0-0.033 0-0.050 0 0 0.050 0 0.1 0 0.15-0.017 0-0.033 0-0.050 0 0 0.033 0 0.067 0 0.1-0.017 0-0.033 0-0.050 0 0 0.033 0 0.067 0 0.1-0.017 0-0.033 0-0.050 0 0 0.033 0 0.067 0 0.1-0.017 0-0.033 0-0.050 0 0 0.033 0 0.067 0 0.1-0.017 0-0.033 0-0.050 0 0 0.017 0 0.033 0 0.050-0.017 0-0.033 0-0.050 0 0 0.033 0 0.067 0 0.1-0.017 0-0.033 0-0.050 0 0 0.017 0 0.033 0 0.050-0.017 0-0.033 0-0.050 0 0 0.017 0 0.033 0 0.050-0.017 0-0.033 0-0.050 0 0 0.033 0 0.067 0 0.1-0.017 0-0.033 0-0.050 0 0 0.017 0 0.033 0 0.050-0.017 0-0.033 0-0.050 0 0 0.017 0 0.033 0 0.050-0.017 0-0.033 0-0.050 0 0 0.017 0 0.033 0 0.050-0.017 0-0.033 0-0.050 0 0 0.017 0 0.033 0 0.050-0.017 0-0.033 0-0.050 0 0 0.017 0 0.033 0 0.050-0.017 0-0.033 0-0.050 0 0 0.017 0 0.033 0 0.050-0.017 0-0.033 0-0.050 0 0 0.017 0 0.033 0 0.050-0.017 0-0.033 0-0.050 0 0 0.017 0 0.033 0 0.050-0.017 0-0.033 0-0.050 0 0 0.017 0 0.033 0 0.050-0.017 0-0.033 0-0.050 0 0 0.017 0 0.033 0 0.050-0.033 0-0.067 0-0.1 0 0 0.017 0 0.033 0 0.050-0.017 0-0.033 0-0.050 0 0 0.017 0 0.033 0 0.050-0.033 0-0.067 0-0.1 0 0 0.017 0 0.033 0 0.050-0.017 0-0.033 0-0.050 0 0 0.017 0 0.033 0 0.050-0.033 0-0.067 0-0.1 0 0 0.017 0 0.033 0 0.050-0.033 0-0.067 0-0.1 0 0 0.017 0 0.033 0 0.050-0.033 0-0.067 0-0.1 0 0 0.017 0 0.033 0 0.050-0.033 0-0.067 0-0.1 0 0 0.017 0 0.033 0 0.050-0.050 0-0.1 0-0.15 0 0 0.017 0 0.033 0 0.050-0.050 0-0.1 0-0.15 0 0 0.017 0 0.033 0 0.050-0.067 0-0.133 0-0.2 0 0 0.017 0 0.033 0 0.050-0.083 0-0.167 0-0.25 0 0 0.017 0 0.033 0 0.050-0.267 0-0.533 0-0.8 0 0-0.017 0-0.033 0-0.050-0.083 0-0.167 0-0.25 0 0-0.017 0-0.033 0-0.050-0.067 0-0.133 0-0.2 0 0-0.017 0-0.033 0-0.050-0.050 0-0.1 0-0.15 0 0-0.017 0-0.033 0-0.050-0.033 0-0.067 0-0.1 0 0-0.017 0-0.033 0-0.050-0.050 0-0.1 0-0.15 0 0-0.017 0-0.033 0-0.050-0.033 0-0.067 0-0.1 0 0-0.017 0-0.033 0-0.050-0.033 0-0.067 0-0.1 0 0-0.017 0-0.033 0-0.050-0.017 0-0.033 0-0.050 0 0-0.017 0-0.033 0-0.050-0.033 0-0.067 0-0.1 0 0-0.017 0-0.033 0-0.050-0.033 0-0.067 0-0.1 0 0-0.017 0-0.033 0-0.050-0.017 0-0.033 0-0.050 0 0-0.017 0-0.033 0-0.050-0.017 0-0.033 0-0.050 0 0-0.017 0-0.033 0-0.050-0.033 0-0.067 0-0.1 0 0-0.017 0-0.033 0-0.050-0.017 0-0.033 0-0.050 0 0-0.017 0-0.033 0-0.050-0.017 0-0.033 0-0.050 0 0-0.017 0-0.033 0-0.050-0.017 0-0.033 0-0.050 0 0-0.017 0-0.033 0-0.050-0.017 0-0.033 0-0.050 0 0-0.017 0-0.033 0-0.050-0.017 0-0.033 0-0.050 0 0-0.017 0-0.033 0-0.050-0.017 0-0.033 0-0.050 0 0-0.017 0-0.033 0-0.050-0.017 0-0.033 0-0.050 0 0-0.017 0-0.033 0-0.050-0.017 0-0.033 0-0.050 0 0-0.033 0-0.067 0-0.1-0.017 0-0.033 0-0.050 0 0-0.017 0-0.033 0-0.050-0.017 0-0.033 0-0.050 0 0-0.017 0-0.033 0-0.050-0.017 0-0.033 0-0.050 0 0-0.033 0-0.067 0-0.1-0.017 0-0.033 0-0.050 0 0-0.017 0-0.033 0-0.050-0.017 0-0.033 0-0.050 0 0-0.033 0-0.067 0-0.1-0.017 0-0.033 0-0.050 0 0-0.033 0-0.067 0-0.1-0.017 0-0.033 0-0.050 0 0-0.033 0-0.067 0-0.1-0.017 0-0.033 0-0.050 0 0-0.033 0-0.067 0-0.1-0.017 0-0.033 0-0.050 0 0-0.033 0-0.067 0-0.1-0.017 0-0.033 0-0.050 0 0-0.050 0-0.1 0-0.15-0.017 0-0.033 0-0.050 0 0-0.050 0-0.1 0-0.15-0.017 0-0.033 0-0.050 0 0-0.067 0-0.133 0-0.2-0.017 0-0.033 0-0.050 0 0-0.1 0-0.2 0-0.3-0.017 0-0.033 0-0.050 0 0-0.2 0-0.4 0-0.6 0.017 0 0.033 0 0.050 0 0-0.117 0-0.233 0-0.35 0.017 0 0.033 0 0.050 0 0-0.067 0-0.133 0-0.2 0.017 0 0.033 0 0.050 0 0-0.050 0-0.1 0-0.15 0.017 0 0.033 0 0.050 0 0-0.050 0-0.1 0-0.15 0.017 0 0.033 0 0.050 0 0-0.033 0-0.067 0-0.1 0.017 0 0.033 0 0.050 0 0-0.033 0-0.067 0-0.1 0.017 0 0.033 0 0.050 0 0-0.033 0-0.067 0-0.1 0.017 0 0.033 0 0.050 0 0-0.033 0-0.067 0-0.1 0.017 0 0.033 0 0.050 0 0-0.033 0-0.067 0-0.1 0.017 0 0.033 0 0.050 0 0-0.017 0-0.033 0-0.050 0.017 0 0.033 0 0.050 0 0-0.033 0-0.067 0-0.1 0.017 0 0.033 0 0.050 0 0-0.017 0-0.033 0-0.050 0.017 0 0.033 0 0.050 0 0-0.017 0-0.033 0-0.050 0.017 0 0.033 0 0.050 0 0-0.017 0-0.033 0-0.050 0.017 0 0.033 0 0.050 0 0-0.017 0-0.033 0-0.050 0.017 0 0.033 0 0.050 0 0-0.033 0-0.067 0-0.1 0.017 0 0.033 0 0.050 0 0-0.017 0-0.033 0-0.050 0.017 0 0.033 0 0.050 0 0-0.017 0-0.033 0-0.050 0.017 0 0.033 0 0.050 0 0-0.017 0-0.033 0-0.050 0.033 0 0.067 0 0.1 0 0-0.017 0-0.033 0-0.050 0.017 0 0.033 0 0.050 0 0-0.017 0-0.033 0-0.050 0.017 0 0.033 0 0.050 0 0-0.017 0-0.033 0-0.050 0.017 0 0.033 0 0.050 0 0-0.017 0-0.033 0-0.050 0.017 0 0.033 0 0.050 0 0-0.017 0-0.033 0-0.050 0.033 0 0.067 0 0.1 0 0-0.017 0-0.033 0-0.050 0.017 0 0.033 0 0.050 0 0-0.017 0-0.033 0-0.050 0.033 0 0.067 0 0.1 0 0-0.017 0-0.033 0-0.050 0.033 0 0.067 0 0.1 0 0-0.017 0-0.033 0-0.050 0.033 0 0.067 0 0.1 0 0-0.017 0-0.033 0-0.050 0.033 0 0.067 0 0.1 0 0-0.017 0-0.033 0-0.050 0.033 0 0.067 0 0.1 0 0-0.017 0-0.033 0-0.050 0.050 0 0.1 0 0.15 0 0-0.017 0-0.033 0-0.050 0.050 0 0.1 0 0.15 0 0-0.017 0-0.033 0-0.050 0.067 0 0.133 0 0.2 0 0-0.017 0-0.033 0-0.050 0.117 0 0.233 0 0.35 0 0-0.017 0-0.033 0-0.050 0.183 0 0.367 0 0.55 0 0 0.017 0 0.033 0 0.050 0.1 0 0.2 0 0.3 0 0 0.017 0 0.033 0 0.050 0.067 0 0.133 0 0.2 0 0 0.017 0 0.033 0 0.050 0.050 0 0.1 0 0.15 0 0 0.017 0 0.033 0 0.050 0.050 0 0.1 0 0.15 0 0 0.017 0 0.033 0 0.050 0.033 0 0.067 0 0.1 0 0 0.017 0 0.033 0 0.050 0.050 0 0.1 0 0.15 0 0 0.017 0 0.033 0 0.050 0.033 0 0.067 0 0.1 0 0 0.017 0 0.033 0 0.050 0.017 0 0.033 0 0.050 0 0 0.017 0 0.033 0 0.050 0.033 0 0.067 0 0.1 0 0 0.017 0 0.033 0 0.050 0.033 0 0.067 0 0.1 0 0 0.017 0 0.033 0 0.050 0.017 0 0.033 0 0.050 0 0 0.017 0 0.033 0 0.050 0.017 0 0.033 0 0.050 0 0 0.017 0 0.033 0 0.050 0.017 0 0.033 0 0.050 0 0 0.017 0 0.033 0 0.050 0.033 0 0.067 0 0.1 0 0 0.017 0 0.033 0 0.050 0.017 0 0.033 0 0.050 0 0 0.017 0 0.033 0 0.050 0.017 0 0.033 0 0.050 0 0 0.017 0 0.033 0 0.050 0.017 0 0.033 0 0.050 0 0 0.017 0 0.033 0 0.050 0.017 0 0.033 0 0.050 0 0 0.017 0 0.033 0 0.050 0.017 0 0.033 0 0.050 0 0 0.017 0 0.033 0 0.050 0.017 0 0.033 0 0.050 0 0 0.017 0 0.033 0 0.050 0.017 0 0.033 0 0.050 0 0 0.033 0 0.067 0 0.1 0.017 0 0.033 0 0.050 0 0 0.017 0 0.033 0 0.050 0.017 0 0.033 0 0.050 0 0 0.017 0 0.033 0 0.050 0.017 0 0.033 0 0.050 0 0 0.017 0 0.033 0 0.050 0.017 0 0.033 0 0.050 0 0 0.033 0 0.067 0 0.1 0.017 0 0.033 0 0.050 0 0 0.033 0 0.067 0 0.1 0.017 0 0.033 0 0.050 0 0 0.017 0 0.033 0 0.050 0.017 0 0.033 0 0.050 0 0 0.033 0 0.067 0 0.1 0.017 0 0.033 0 0.050 0 0 0.033 0 0.067 0 0.1 0.017 0 0.033 0 0.050 0 0 0.050 0 0.1 0 0.15 0.017 0 0.033 0 0.050 0 0 0.033 0 0.067 0 0.1 0.017 0 0.033 0 0.050 0 0 0.050 0 0.1 0 0.15 0.017 0 0.033 0 0.050 0 0 0.067 0 0.133 0 0.2 0.017 0 0.033 0 0.050 0 0 0.1 0 0.2 0 0.3 0.017 0 0.033 0 0.050 0 0 0.267 0 0.533 0 0.8zM23.95 26.75c0.017 0 0.033 0 0.050 0 0-0.117 0-0.233 0-0.35 0.017 0 0.033 0 0.050 0 0-0.067 0-0.133 0-0.2 0.017 0 0.033 0 0.050 0 0-0.050 0-0.1 0-0.15 0.017 0 0.033 0 0.050 0 0-0.050 0-0.1 0-0.15 0.017 0 0.033 0 0.050 0 0-0.050 0-0.1 0-0.15 0.017 0 0.033 0 0.050 0 0-0.033 0-0.067 0-0.1 0.017 0 0.033 0 0.050 0 0-0.033 0-0.067 0-0.1 0.017 0 0.033 0 0.050 0 0-0.017 0-0.033 0-0.050 0.017 0 0.033 0 0.050 0 0-0.033 0-0.067 0-0.1 0.017 0 0.033 0 0.050 0 0-0.033 0-0.067 0-0.1 0.017 0 0.033 0 0.050 0 0-0.017 0-0.033 0-0.050 0.017 0 0.033 0 0.050 0 0-0.017 0-0.033 0-0.050 0.017 0 0.033 0 0.050 0 0-0.033 0-0.067 0-0.1 0.017 0 0.033 0 0.050 0 0-0.017 0-0.033 0-0.050 0.017 0 0.033 0 0.050 0 0-0.017 0-0.033 0-0.050 0.017 0 0.033 0 0.050 0 0-0.017 0-0.033 0-0.050 0.017 0 0.033 0 0.050 0 0-0.017 0-0.033 0-0.050 0.017 0 0.033 0 0.050 0 0-0.017 0-0.033 0-0.050 0.017 0 0.033 0 0.050 0 0-0.017 0-0.033 0-0.050 0.017 0 0.033 0 0.050 0 0-0.017 0-0.033 0-0.050 0.017 0 0.033 0 0.050 0 0-0.017 0-0.033 0-0.050 0.017 0 0.033 0 0.050 0 0-0.017 0-0.033 0-0.050 0.017 0 0.033 0 0.050 0 0-0.017 0-0.033 0-0.050 0.033 0 0.067 0 0.1 0 0-0.017 0-0.033 0-0.050 0.017 0 0.033 0 0.050 0 0-0.017 0-0.033 0-0.050 0.017 0 0.033 0 0.050 0 0-0.017 0-0.033 0-0.050 0.033 0 0.067 0 0.1 0 0-0.017 0-0.033 0-0.050 0.033 0 0.067 0 0.1 0 0-0.017 0-0.033 0-0.050 0.017 0 0.033 0 0.050 0 0-0.017 0-0.033 0-0.050 0.033 0 0.067 0 0.1 0 0-0.017 0-0.033 0-0.050 0.050 0 0.1 0 0.15 0 0-0.017 0-0.033 0-0.050 0.033 0 0.067 0 0.1 0 0-0.017 0-0.033 0-0.050 0.050 0 0.1 0 0.15 0 0-0.017 0-0.033 0-0.050 0.050 0 0.1 0 0.15 0 0-0.017 0-0.033 0-0.050 0.083 0 0.167 0 0.25 0 0-0.017 0-0.033 0-0.050 0.167 0 0.333 0 0.5 0 0-0.017 0-0.033 0-0.050 0.017 0 0.033 0 0.050 0 0 0.017 0 0.033 0 0.050 0.167 0 0.333 0 0.5 0 0 0.017 0 0.033 0 0.050 0.067 0 0.133 0 0.2 0 0 0.017 0 0.033 0 0.050 0.067 0 0.133 0 0.2 0 0 0.017 0 0.033 0 0.050 0.050 0 0.1 0 0.15 0 0 0.017 0 0.033 0 0.050 0.033 0 0.067 0 0.1 0 0 0.017 0 0.033 0 0.050 0.033 0 0.067 0 0.1 0 0 0.017 0 0.033 0 0.050 0.033 0 0.067 0 0.1 0 0 0.017 0 0.033 0 0.050 0.033 0 0.067 0 0.1 0 0 0.017 0 0.033 0 0.050 0.033 0 0.067 0 0.1 0 0 0.017 0 0.033 0 0.050 0.017 0 0.033 0 0.050 0 0 0.017 0 0.033 0 0.050 0.033 0 0.067 0 0.1 0 0 0.017 0 0.033 0 0.050 0.017 0 0.033 0 0.050 0 0 0.017 0 0.033 0 0.050 0.017 0 0.033 0 0.050 0 0 0.017 0 0.033 0 0.050 0.017 0 0.033 0 0.050 0 0 0.017 0 0.033 0 0.050 0.033 0 0.067 0 0.1 0 0 0.017 0 0.033 0 0.050 0.017 0 0.033 0 0.050 0 0 0.017 0 0.033 0 0.050 0.017 0 0.033 0 0.050 0 0 0.017 0 0.033 0 0.050 0.017 0 0.033 0 0.050 0 0 0.017 0 0.033 0 0.050 0.017 0 0.033 0 0.050 0 0 0.017 0 0.033 0 0.050 0.017 0 0.033 0 0.050 0 0 0.017 0 0.033 0 0.050 0.017 0 0.033 0 0.050 0 0 0.033 0 0.067 0 0.1 0.017 0 0.033 0 0.050 0 0 0.017 0 0.033 0 0.050 0.017 0 0.033 0 0.050 0 0 0.017 0 0.033 0 0.050 0.017 0 0.033 0 0.050 0 0 0.033 0 0.067 0 0.1 0.017 0 0.033 0 0.050 0 0 0.017 0 0.033 0 0.050 0.017 0 0.033 0 0.050 0 0 0.033 0 0.067 0 0.1 0.017 0 0.033 0 0.050 0 0 0.017 0 0.033 0 0.050 0.017 0 0.033 0 0.050 0 0 0.033 0 0.067 0 0.1 0.017 0 0.033 0 0.050 0 0 0.033 0 0.067 0 0.1 0.017 0 0.033 0 0.050 0 0 0.050 0 0.1 0 0.15 0.017 0 0.033 0 0.050 0 0 0.033 0 0.067 0 0.1 0.017 0 0.033 0 0.050 0 0 0.050 0 0.1 0 0.15 0.017 0 0.033 0 0.050 0 0 0.067 0 0.133 0 0.2 0.017 0 0.033 0 0.050 0 0 0.083 0 0.167 0 0.25 0.017 0 0.033 0 0.050 0 0 0.3 0 0.6 0 0.9-0.017 0-0.033 0-0.050 0 0 0.083 0 0.167 0 0.25-0.017 0-0.033 0-0.050 0 0 0.050 0 0.1 0 0.15-0.017 0-0.033 0-0.050 0 0 0.050 0 0.1 0 0.15-0.017 0-0.033 0-0.050 0 0 0.050 0 0.1 0 0.15-0.017 0-0.033 0-0.050 0 0 0.033 0 0.067 0 0.1-0.017 0-0.033 0-0.050 0 0 0.033 0 0.067 0 0.1-0.017 0-0.033 0-0.050 0 0 0.033 0 0.067 0 0.1-0.017 0-0.033 0-0.050 0 0 0.033 0 0.067 0 0.1-0.017 0-0.033 0-0.050 0 0 0.033 0 0.067 0 0.1-0.017 0-0.033 0-0.050 0 0 0.017 0 0.033 0 0.050-0.017 0-0.033 0-0.050 0 0 0.033 0 0.067 0 0.1-0.017 0-0.033 0-0.050 0 0 0.017 0 0.033 0 0.050-0.017 0-0.033 0-0.050 0 0 0.017 0 0.033 0 0.050-0.017 0-0.033 0-0.050 0 0 0.017 0 0.033 0 0.050-0.017 0-0.033 0-0.050 0 0 0.017 0 0.033 0 0.050-0.017 0-0.033 0-0.050 0 0 0.017 0 0.033 0 0.050-0.017 0-0.033 0-0.050 0 0 0.017 0 0.033 0 0.050-0.017 0-0.033 0-0.050 0 0 0.017 0 0.033 0 0.050-0.017 0-0.033 0-0.050 0 0 0.017 0 0.033 0 0.050-0.017 0-0.033 0-0.050 0 0 0.017 0 0.033 0 0.050-0.017 0-0.033 0-0.050 0 0 0.017 0 0.033 0 0.050-0.017 0-0.033 0-0.050 0 0 0.017 0 0.033 0 0.050-0.017 0-0.033 0-0.050 0 0 0.017 0 0.033 0 0.050-0.017 0-0.033 0-0.050 0 0 0.017 0 0.033 0 0.050-0.033 0-0.067 0-0.1 0 0 0.017 0 0.033 0 0.050-0.017 0-0.033 0-0.050 0 0 0.017 0 0.033 0 0.050-0.033 0-0.067 0-0.1 0 0 0.017 0 0.033 0 0.050-0.017 0-0.033 0-0.050 0 0 0.017 0 0.033 0 0.050-0.033 0-0.067 0-0.1 0 0 0.017 0 0.033 0 0.050-0.033 0-0.067 0-0.1 0 0 0.017 0 0.033 0 0.050-0.050 0-0.1 0-0.15 0 0 0.017 0 0.033 0 0.050-0.033 0-0.067 0-0.1 0 0 0.017 0 0.033 0 0.050-0.050 0-0.1 0-0.15 0 0 0.017 0 0.033 0 0.050-0.050 0-0.1 0-0.15 0 0 0.017 0 0.033 0 0.050-0.083 0-0.167 0-0.25 0 0 0.017 0 0.033 0 0.050-0.317 0-0.633 0-0.95 0 0-0.017 0-0.033 0-0.050-0.083 0-0.167 0-0.25 0 0-0.017 0-0.033 0-0.050-0.067 0-0.133 0-0.2 0 0-0.017 0-0.033 0-0.050-0.033 0-0.067 0-0.1 0 0-0.017 0-0.033 0-0.050-0.050 0-0.1 0-0.15 0 0-0.017 0-0.033 0-0.050-0.033 0-0.067 0-0.1 0 0-0.017 0-0.033 0-0.050-0.033 0-0.067 0-0.1 0 0-0.017 0-0.033 0-0.050-0.033 0-0.067 0-0.1 0 0-0.017 0-0.033 0-0.050-0.033 0-0.067 0-0.1 0 0-0.017 0-0.033 0-0.050-0.017 0-0.033 0-0.050 0 0-0.017 0-0.033 0-0.050-0.033 0-0.067 0-0.1 0 0-0.017 0-0.033 0-0.050-0.017 0-0.033 0-0.050 0 0-0.017 0-0.033 0-0.050-0.017 0-0.033 0-0.050 0 0-0.017 0-0.033 0-0.050-0.033 0-0.067 0-0.1 0 0-0.017 0-0.033 0-0.050-0.017 0-0.033 0-0.050 0 0-0.017 0-0.033 0-0.050-0.017 0-0.033 0-0.050 0 0-0.017 0-0.033 0-0.050-0.017 0-0.033 0-0.050 0 0-0.017 0-0.033 0-0.050-0.017 0-0.033 0-0.050 0 0-0.017 0-0.033 0-0.050-0.017 0-0.033 0-0.050 0 0-0.017 0-0.033 0-0.050-0.017 0-0.033 0-0.050 0 0-0.017 0-0.033 0-0.050-0.017 0-0.033 0-0.050 0 0-0.017 0-0.033 0-0.050-0.017 0-0.033 0-0.050 0 0-0.017 0-0.033 0-0.050-0.017 0-0.033 0-0.050 0 0-0.033 0-0.067 0-0.1-0.017 0-0.033 0-0.050 0 0-0.017 0-0.033 0-0.050-0.017 0-0.033 0-0.050 0 0-0.033 0-0.067 0-0.1-0.017 0-0.033 0-0.050 0 0-0.017 0-0.033 0-0.050-0.017 0-0.033 0-0.050 0 0-0.033 0-0.067 0-0.1-0.017 0-0.033 0-0.050 0 0-0.033 0-0.067 0-0.1-0.017 0-0.033 0-0.050 0 0-0.033 0-0.067 0-0.1-0.017 0-0.033 0-0.050 0 0-0.033 0-0.067 0-0.1-0.017 0-0.033 0-0.050 0 0-0.033 0-0.067 0-0.1-0.017 0-0.033 0-0.050 0 0-0.050 0-0.1 0-0.15-0.017 0-0.033 0-0.050 0 0-0.050 0-0.1 0-0.15-0.017 0-0.033 0-0.050 0 0-0.067 0-0.133 0-0.2-0.017 0-0.033 0-0.050 0 0-0.117 0-0.233 0-0.35-0.017 0-0.033 0-0.050 0 0-0.167 0-0.333 0-0.5zM26.1 7.8c0-0.017 0-0.033 0-0.050-0.050 0-0.1 0-0.15 0 0-0.017 0-0.033 0-0.050-0.033 0-0.067 0-0.1 0 0-0.017 0-0.033 0-0.050-0.033 0-0.067 0-0.1 0 0-0.017 0-0.033 0-0.050-0.033 0-0.067 0-0.1 0 0-0.017 0-0.033 0-0.050-0.033 0-0.067 0-0.1 0 0-0.017 0-0.033 0-0.050-0.033 0-0.067 0-0.1 0 0-0.017 0-0.033 0-0.050-0.017 0-0.033 0-0.050 0 0-0.017 0-0.033 0-0.050-0.033 0-0.067 0-0.1 0 0-0.017 0-0.033 0-0.050-0.017 0-0.033 0-0.050 0 0-0.017 0-0.033 0-0.050-0.033 0-0.067 0-0.1 0 0-0.017 0-0.033 0-0.050-0.017 0-0.033 0-0.050 0 0-0.017 0-0.033 0-0.050-0.017 0-0.033 0-0.050 0 0-0.017 0-0.033 0-0.050-0.017 0-0.033 0-0.050 0 0-0.017 0-0.033 0-0.050-0.017 0-0.033 0-0.050 0 0-0.017 0-0.033 0-0.050-0.017 0-0.033 0-0.050 0 0-0.017 0-0.033 0-0.050-0.017 0-0.033 0-0.050 0 0-0.017 0-0.033 0-0.050-0.017 0-0.033 0-0.050 0 0-0.017 0-0.033 0-0.050-0.017 0-0.033 0-0.050 0 0-0.017 0-0.033 0-0.050-0.017 0-0.033 0-0.050 0 0-0.017 0-0.033 0-0.050-0.017 0-0.033 0-0.050 0 0-0.033 0-0.067 0-0.1-0.017 0-0.033 0-0.050 0 0-0.017 0-0.033 0-0.050-0.017 0-0.033 0-0.050 0 0-0.017 0-0.033 0-0.050-0.017 0-0.033 0-0.050 0 0-0.033 0-0.067 0-0.1-0.017 0-0.033 0-0.050 0 0-0.033 0-0.067 0-0.1-0.017 0-0.033 0-0.050 0 0-0.033 0-0.067 0-0.1-0.017 0-0.033 0-0.050 0 0-0.033 0-0.067 0-0.1-0.017 0-0.033 0-0.050 0 0-0.033 0-0.067 0-0.1-0.017 0-0.033 0-0.050 0 0-0.033 0-0.067 0-0.1-0.017 0-0.033 0-0.050 0 0-0.050 0-0.1 0-0.15-0.017 0-0.033 0-0.050 0 0-0.050 0-0.1 0-0.15-0.017 0-0.033 0-0.050 0 0-0.067 0-0.133 0-0.2-0.017 0-0.033 0-0.050 0 0-0.117 0-0.233 0-0.35-0.017 0-0.033 0-0.050 0 0-0.167 0-0.333 0-0.5 0.017 0 0.033 0 0.050 0 0-0.117 0-0.233 0-0.35 0.017 0 0.033 0 0.050 0 0-0.067 0-0.133 0-0.2 0.017 0 0.033 0 0.050 0 0-0.050 0-0.1 0-0.15 0.017 0 0.033 0 0.050 0 0-0.050 0-0.1 0-0.15 0.017 0 0.033 0 0.050 0 0-0.033 0-0.067 0-0.1 0.017 0 0.033 0 0.050 0 0-0.050 0-0.1 0-0.15 0.017 0 0.033 0 0.050 0 0-0.033 0-0.067 0-0.1 0.017 0 0.033 0 0.050 0 0-0.017 0-0.033 0-0.050 0.017 0 0.033 0 0.050 0 0-0.033 0-0.067 0-0.1 0.017 0 0.033 0 0.050 0 0-0.033 0-0.067 0-0.1 0.017 0 0.033 0 0.050 0 0-0.017 0-0.033 0-0.050 0.017 0 0.033 0 0.050 0 0-0.017 0-0.033 0-0.050 0.017 0 0.033 0 0.050 0 0-0.033 0-0.067 0-0.1 0.017 0 0.033 0 0.050 0 0-0.017 0-0.033 0-0.050 0.017 0 0.033 0 0.050 0 0-0.017 0-0.033 0-0.050 0.017 0 0.033 0 0.050 0 0-0.017 0-0.033 0-0.050 0.017 0 0.033 0 0.050 0 0-0.017 0-0.033 0-0.050 0.017 0 0.033 0 0.050 0 0-0.017 0-0.033 0-0.050 0.017 0 0.033 0 0.050 0 0-0.017 0-0.033 0-0.050 0.017 0 0.033 0 0.050 0 0-0.017 0-0.033 0-0.050 0.017 0 0.033 0 0.050 0 0-0.017 0-0.033 0-0.050 0.017 0 0.033 0 0.050 0 0-0.017 0-0.033 0-0.050 0.017 0 0.033 0 0.050 0 0-0.017 0-0.033 0-0.050 0.033 0 0.067 0 0.1 0 0-0.017 0-0.033 0-0.050 0.017 0 0.033 0 0.050 0 0-0.017 0-0.033 0-0.050 0.017 0 0.033 0 0.050 0 0-0.017 0-0.033 0-0.050 0.033 0 0.067 0 0.1 0 0-0.017 0-0.033 0-0.050 0.033 0 0.067 0 0.1 0 0-0.017 0-0.033 0-0.050 0.017 0 0.033 0 0.050 0 0-0.017 0-0.033 0-0.050 0.033 0 0.067 0 0.1 0 0-0.017 0-0.033 0-0.050 0.050 0 0.1 0 0.15 0 0-0.017 0-0.033 0-0.050 0.033 0 0.067 0 0.1 0 0-0.017 0-0.033 0-0.050 0.050 0 0.1 0 0.15 0 0-0.017 0-0.033 0-0.050 0.050 0 0.1 0 0.15 0 0-0.017 0-0.033 0-0.050 0.083 0 0.167 0 0.25 0 0-0.017 0-0.033 0-0.050 0.35 0 0.7 0 1.050 0 0 0.017 0 0.033 0 0.050 0.067 0 0.133 0 0.2 0 0 0.017 0 0.033 0 0.050 0.067 0 0.133 0 0.2 0 0 0.017 0 0.033 0 0.050 0.050 0 0.1 0 0.15 0 0 0.017 0 0.033 0 0.050 0.033 0 0.067 0 0.1 0 0 0.017 0 0.033 0 0.050 0.033 0 0.067 0 0.1 0 0 0.017 0 0.033 0 0.050 0.033 0 0.067 0 0.1 0 0 0.017 0 0.033 0 0.050 0.033 0 0.067 0 0.1 0 0 0.017 0 0.033 0 0.050 0.033 0 0.067 0 0.1 0 0 0.017 0 0.033 0 0.050 0.017 0 0.033 0 0.050 0 0 0.017 0 0.033 0 0.050 0.033 0 0.067 0 0.1 0 0 0.017 0 0.033 0 0.050 0.017 0 0.033 0 0.050 0 0 0.017 0 0.033 0 0.050 0.017 0 0.033 0 0.050 0 0 0.017 0 0.033 0 0.050 0.017 0 0.033 0 0.050 0 0 0.017 0 0.033 0 0.050 0.033 0 0.067 0 0.1 0 0 0.017 0 0.033 0 0.050 0.017 0 0.033 0 0.050 0 0 0.017 0 0.033 0 0.050 0.017 0 0.033 0 0.050 0 0 0.017 0 0.033 0 0.050 0.017 0 0.033 0 0.050 0 0 0.017 0 0.033 0 0.050 0.017 0 0.033 0 0.050 0 0 0.017 0 0.033 0 0.050 0.017 0 0.033 0 0.050 0 0 0.017 0 0.033 0 0.050 0.017 0 0.033 0 0.050 0 0 0.033 0 0.067 0 0.1 0.017 0 0.033 0 0.050 0 0 0.017 0 0.033 0 0.050 0.017 0 0.033 0 0.050 0 0 0.017 0 0.033 0 0.050 0.017 0 0.033 0 0.050 0 0 0.033 0 0.067 0 0.1 0.017 0 0.033 0 0.050 0 0 0.017 0 0.033 0 0.050 0.017 0 0.033 0 0.050 0 0 0.033 0 0.067 0 0.1 0.017 0 0.033 0 0.050 0 0 0.017 0 0.033 0 0.050 0.017 0 0.033 0 0.050 0 0 0.033 0 0.067 0 0.1 0.017 0 0.033 0 0.050 0 0 0.033 0 0.067 0 0.1 0.017 0 0.033 0 0.050 0 0 0.050 0 0.1 0 0.15 0.017 0 0.033 0 0.050 0 0 0.033 0 0.067 0 0.1 0.017 0 0.033 0 0.050 0 0 0.050 0 0.1 0 0.15 0.017 0 0.033 0 0.050 0 0 0.067 0 0.133 0 0.2 0.017 0 0.033 0 0.050 0 0 0.083 0 0.167 0 0.25 0.017 0 0.033 0 0.050 0 0 0.3 0 0.6 0 0.9-0.017 0-0.033 0-0.050 0 0 0.083 0 0.167 0 0.25-0.017 0-0.033 0-0.050 0 0 0.067 0 0.133 0 0.2-0.017 0-0.033 0-0.050 0 0 0.050 0 0.1 0 0.15-0.017 0-0.033 0-0.050 0 0 0.033 0 0.067 0 0.1-0.017 0-0.033 0-0.050 0 0 0.033 0 0.067 0 0.1-0.017 0-0.033 0-0.050 0 0 0.033 0 0.067 0 0.1-0.017 0-0.033 0-0.050 0 0 0.033 0 0.067 0 0.1-0.017 0-0.033 0-0.050 0 0 0.033 0 0.067 0 0.1-0.017 0-0.033 0-0.050 0 0 0.033 0 0.067 0 0.1-0.017 0-0.033 0-0.050 0 0 0.017 0 0.033 0 0.050-0.017 0-0.033 0-0.050 0 0 0.033 0 0.067 0 0.1-0.017 0-0.033 0-0.050 0 0 0.017 0 0.033 0 0.050-0.017 0-0.033 0-0.050 0 0 0.017 0 0.033 0 0.050-0.017 0-0.033 0-0.050 0 0 0.017 0 0.033 0 0.050-0.017 0-0.033 0-0.050 0 0 0.017 0 0.033 0 0.050-0.017 0-0.033 0-0.050 0 0 0.017 0 0.033 0 0.050-0.017 0-0.033 0-0.050 0 0 0.017 0 0.033 0 0.050-0.017 0-0.033 0-0.050 0 0 0.017 0 0.033 0 0.050-0.017 0-0.033 0-0.050 0 0 0.017 0 0.033 0 0.050-0.017 0-0.033 0-0.050 0 0 0.017 0 0.033 0 0.050-0.017 0-0.033 0-0.050 0 0 0.017 0 0.033 0 0.050-0.017 0-0.033 0-0.050 0 0 0.017 0 0.033 0 0.050-0.017 0-0.033 0-0.050 0 0 0.017 0 0.033 0 0.050-0.017 0-0.033 0-0.050 0 0 0.017 0 0.033 0 0.050-0.033 0-0.067 0-0.1 0 0 0.017 0 0.033 0 0.050-0.017 0-0.033 0-0.050 0 0 0.017 0 0.033 0 0.050-0.033 0-0.067 0-0.1 0 0 0.017 0 0.033 0 0.050-0.017 0-0.033 0-0.050 0 0 0.017 0 0.033 0 0.050-0.033 0-0.067 0-0.1 0 0 0.017 0 0.033 0 0.050-0.033 0-0.067 0-0.1 0 0 0.017 0 0.033 0 0.050-0.033 0-0.067 0-0.1 0 0 0.017 0 0.033 0 0.050-0.050 0-0.1 0-0.15 0 0 0.017 0 0.033 0 0.050-0.050 0-0.1 0-0.15 0 0 0.017 0 0.033 0 0.050-0.050 0-0.1 0-0.15 0 0 0.017 0 0.033 0 0.050-0.083 0-0.167 0-0.25 0 0 0.017 0 0.033 0 0.050-0.317 0-0.633 0-0.95 0 0-0.017 0-0.033 0-0.050-0.083 0-0.167 0-0.25 0 0-0.017 0-0.033 0-0.050-0.067 0-0.133 0-0.2 0z"></path>
</svg>
