<?xml version="1.0" encoding="utf-8"?>
<!-- Generated by IcoMoon.io -->
<!DOCTYPE svg PUBLIC "-//W3C//DTD SVG 1.1//EN" "http://www.w3.org/Graphics/SVG/1.1/DTD/svg11.dtd">
<svg version="1.1" xmlns="http://www.w3.org/2000/svg" xmlns:xlink="http://www.w3.org/1999/xlink" width="32" height="32" viewBox="0 0 32 32">
<g id="icomoon-ignore">
	<line stroke-width="1" x1="" y1="" x2="" y2="" stroke="#449FDB" opacity=""></line>
</g>
	<path d="M5.6 21.416l2.916-1.528c0.982 2.037 2.664 3.556 4.737 4.271 4.275 1.474 8.897-0.962 10.307-5.429l-2.363-0.494 5.897-4.736 2.156 7.25-2.591-0.951c-1.974 6.252-8.447 9.662-14.429 7.6-2.902-1.001-5.256-3.124-6.63-5.983z"></path>
	<path d="M4.426 18.671l-1.885-7.588 2.418 1.235c1.973-6.252 8.446-9.663 14.428-7.601 2.903 1 5.258 3.124 6.632 5.984l-2.916 1.528c-0.982-2.037-2.664-3.557-4.738-4.272-4.275-1.474-8.895 0.961-10.305 5.43l2.988 0.5-6.622 4.784z"></path>
	<path d="M11.744 14.799h8.875v2.399h-8.875v-2.399z"></path>
</svg>
