<?xml version="1.0" encoding="utf-8"?>
<!-- Generated by IcoMoon.io -->
<!DOCTYPE svg PUBLIC "-//W3C//DTD SVG 1.1//EN" "http://www.w3.org/Graphics/SVG/1.1/DTD/svg11.dtd">
<svg version="1.1" xmlns="http://www.w3.org/2000/svg" xmlns:xlink="http://www.w3.org/1999/xlink" width="32" height="32" viewBox="0 0 32 32">
<g id="icomoon-ignore">
	<line stroke-width="1" x1="" y1="" x2="" y2="" stroke="#449FDB" opacity=""></line>
</g>
	<path d="M14.6 8.783h2.799v14.217h-2.799v-14.217z"></path>
	<path d="M4.8 13.2h22.4v2.8h-22.4v-2.8z"></path>
	<path d="M4.8 13.2h2.8v5.688h-2.8v-5.688z"></path>
	<path d="M24.399 13.2h2.801v5.415h-2.801v-5.415z"></path>
	<path d="M16 2c-2.32 0-4.2 1.88-4.2 4.2s1.88 4.2 4.2 4.2c2.319 0 4.2-1.88 4.2-4.2s-1.881-4.2-4.2-4.2zM16 7.6c-0.772 0-1.4-0.625-1.4-1.4 0-0.773 0.628-1.4 1.4-1.4s1.399 0.627 1.399 1.399c0 0.776-0.627 1.401-1.399 1.401z"></path>
	<path d="M25.8 17.399c-2.318 0-4.199 1.882-4.199 4.201s1.88 4.2 4.199 4.2 4.2-1.88 4.2-4.199-1.882-4.202-4.2-4.202zM25.8 23c-0.773 0-1.4-0.626-1.4-1.399 0-0.774 0.627-1.4 1.4-1.4s1.4 0.626 1.4 1.4c0 0.773-0.627 1.399-1.4 1.399z"></path>
	<path d="M16 21.601c-2.32 0-4.2 1.881-4.2 4.199 0 2.32 1.88 4.2 4.2 4.2 2.319 0 4.2-1.88 4.2-4.2 0-2.319-1.881-4.199-4.2-4.199zM16 27.2c-0.772 0-1.4-0.627-1.4-1.4s0.627-1.4 1.4-1.4 1.399 0.627 1.399 1.4-0.627 1.4-1.399 1.4z"></path>
	<path d="M6.2 17.399c-2.32 0-4.2 1.882-4.2 4.201s1.88 4.2 4.2 4.2c2.32 0 4.2-1.88 4.2-4.199s-1.88-4.202-4.2-4.202zM6.2 23c-0.773 0-1.4-0.626-1.4-1.399 0-0.774 0.627-1.4 1.399-1.4s1.4 0.626 1.4 1.4c0.001 0.773-0.627 1.399-1.399 1.399z"></path>
</svg>
