<?xml version="1.0" encoding="utf-8"?>
<!-- Generated by IcoMoon.io -->
<!DOCTYPE svg PUBLIC "-//W3C//DTD SVG 1.1//EN" "http://www.w3.org/Graphics/SVG/1.1/DTD/svg11.dtd">
<svg version="1.1" xmlns="http://www.w3.org/2000/svg" xmlns:xlink="http://www.w3.org/1999/xlink" width="32" height="32" viewBox="0 0 32 32">
<g id="icomoon-ignore">
	<line stroke-width="1" x1="" y1="" x2="" y2="" stroke="#449FDB" opacity=""></line>
</g>
	<path d="M13.945-0.214c1.37 0 2.741 0 4.111 0 0 1.254 0 2.511 0 3.766 3.424 0 6.852 0 10.275 0 0 1.254 0 2.509 0 3.764-8.22 0-16.441 0-24.661 0 0-1.254 0-2.509 0-3.764 3.425 0 6.851 0 10.275 0 0-1.255 0-2.512 0-3.766z"></path>
	<path d="M5.725 9.198c1.37 0 2.74 0 4.11 0 0 7.528 0 15.059 0 22.587-1.37 0-2.74 0-4.11 0 0-7.528 0-15.058 0-22.587z"></path>
	<path d="M13.945 9.198c1.37 0 2.741 0 4.111 0 0 7.528 0 15.059 0 22.587-1.37 0-2.741 0-4.111 0 0-7.528 0-15.058 0-22.587z"></path>
	<path d="M22.166 9.198c1.369 0 2.741 0 4.11 0 0 7.528 0 15.059 0 22.587-1.369 0-2.741 0-4.11 0 0-7.528 0-15.058 0-22.587z"></path>
</svg>
