<?xml version="1.0" encoding="utf-8"?>
<!-- Generated by IcoMoon.io -->
<!DOCTYPE svg PUBLIC "-//W3C//DTD SVG 1.1//EN" "http://www.w3.org/Graphics/SVG/1.1/DTD/svg11.dtd">
<svg version="1.1" xmlns="http://www.w3.org/2000/svg" xmlns:xlink="http://www.w3.org/1999/xlink" width="32" height="32" viewBox="0 0 32 32">
<g id="icomoon-ignore">
	<line stroke-width="1" x1="" y1="" x2="" y2="" stroke="#449FDB" opacity=""></line>
</g>
	<path d="M10.97 8.076c0.243 0 4.867-7.503 5.11-7.503 0.121 0.358 4.986 7.295 5.109 7.652 0.121 0 0.002 0 0.121 0 0 0.24 0-0.238 0 0 0.244 0.12-3.648-5.143-3.406-5.022 0 0.239 3.406 4.783 3.406 5.022 0.244 0.12-2.92-4.066-2.676-3.947 0 0.239 2.555 3.708 2.555 3.947 0.244 0.119-2.066-2.99-1.824-2.87 0 0.239 1.797 2.684 1.945 2.87 0.438 0.546-1.309-1.521-0.943-1.282 0 0.24 0.943 1.043 0.943 1.282 0.156 0.225-0.367-0.435-0.121 0-1.094 0-2.189 0-3.285 0 0 5.022 0 10.046 0 15.068-1.216 0-2.433 0-3.65 0 0-5.021 0-10.045 0-15.068-1.095 0-2.19 0-3.284 0 0-0.12-0.068 0.098 0 0 0.658-0.932 0 0 1.824-2.87 0.146-0.23 0.196-0.474 0.439-0.593 0-0.239 0.291-0.245 0.291-0.484 0.243-0.119 0.113-0.383 0.356-0.503 0-0.239 0.373-0.333 0.373-0.572 0.243-0.12 0.114-0.428 0.357-0.548 0-0.238 0.373-0.289 0.373-0.529 0.121 0 0.974-1.553 1.096-1.553 0.124-0.358-5.231 7.861-5.109 7.503z"></path>
	<path d="M0.749 11.455c3.65 0 7.301 0 10.951 0 0 0.717 0 1.435 0 2.151-2.92 0-5.841 0-8.762 0 0 5.5 0 11.003 0 16.503 8.761 0 17.521 0 26.285 0 0-5.5 0-11.004 0-16.503-2.922 0-5.844 0-8.764 0 0-0.717 0-1.435 0-2.151 3.652 0 7.303 0 10.951 0 0 6.934 0 13.872 0 20.807-10.219 0-20.442 0-30.662 0 0.001-6.936 0.001-13.873 0.001-20.807z"></path>
</svg>
