<?xml version="1.0" encoding="utf-8"?>
<!-- Generated by IcoMoon.io -->
<!DOCTYPE svg PUBLIC "-//W3C//DTD SVG 1.1//EN" "http://www.w3.org/Graphics/SVG/1.1/DTD/svg11.dtd">
<svg version="1.1" xmlns="http://www.w3.org/2000/svg" xmlns:xlink="http://www.w3.org/1999/xlink" width="42" height="32" viewBox="0 0 42 32">
<g id="icomoon-ignore">
	<line stroke-width="1" x1="" y1="" x2="" y2="" stroke="#449FDB" opacity=""></line>
</g>
	<path d="M37.656 10.177c0 0.133 0-0.133 0 0v0c0 0.133 0-0.133 0 0-0.271 0 0.271 0 0 0 0 0 0.135-0.269 0 0-0.404 0 0.404 0 0 0 0 0.133 0-0.133 0 0-0.406 0.131-8.102 3.081-8.508 3.215 0-1.208 0-2.412 0-3.619-1.619 0-3.24 0-4.86 0 0-2.142 0-4.287 0-6.429-4.319 0-8.64 0-12.965 0 0.004 1.242 0.121 2.063 0.406 2.815 3.106 0 6.213 0 9.317 0 0 1.206 0 2.412 0 3.615-5.535 0-11.073 0-16.608 0 0 3.885 0 7.771 0 11.656 0 2.16-0.019 4.844-0.023 6.344 5.4 0 11.231 0.085 16.631 0.085 2.613 0 6.090 0.052 8.058 0.004 0-1.073 0.044-2.55 0.044-3.621 1.425 0.306 7.454 2.277 8.508 2.813 0.269 0-0.269 0 0 0 0 0.133 0-0.133 0 0 0.54 0-0.542 0 0 0 0.133 0.267-0.135-0.269 0 0 0.269 0-0.271 0 0 0 0 0.133 0-0.133 0 0v0c0-5.625 0-11.252 0-16.877 0 0-0.123 0.044 0 0zM26.315 25.046c-6.346 0-12.694 0-19.042 0 0-4.152 0-8.308 0-12.458 6.346 0 12.696 0 19.042 0 0 4.152 0 8.306 0 12.458zM34.821 23.44c-0.404-0.133-0.813-0.269-1.215-0.402-0.002-0.135 1.215 0.535 1.215 0.402-0.404 0-2.025-0.806-2.431-0.806-0.133-0.267 2.567 1.073 2.431 0.806-0.675-0.133-4.925-2.002-5.6-2.137-0.206-0.127 0.483 0.248 0 0-0.054-2.796-0.121-4.754-0.054-4.787 0.135 0 5.535-2.485 5.671-2.485 0 3.079-0.017 6.327-0.017 9.41z"></path>
	<path d="M11.325 18.215c3.646 0 7.294 0 10.938 0 0 0.94 0 1.877 0 2.815-3.646 0-7.292 0-10.938 0 0-0.938 0-1.877 0-2.815z"></path>
</svg>
