<?xml version="1.0" encoding="utf-8"?>
<!-- Generated by IcoMoon.io -->
<!DOCTYPE svg PUBLIC "-//W3C//DTD SVG 1.1//EN" "http://www.w3.org/Graphics/SVG/1.1/DTD/svg11.dtd">
<svg version="1.1" xmlns="http://www.w3.org/2000/svg" xmlns:xlink="http://www.w3.org/1999/xlink" width="32" height="32" viewBox="0 0 32 32">
<g id="icomoon-ignore">
	<line stroke-width="1" x1="" y1="" x2="" y2="" stroke="#449FDB" opacity=""></line>
</g>
	<path d="M16 6.2c-7.732 0-14 5.664-14 9.8s6.268 9.8 14 9.8c7.733 0 14-5.557 14-9.8s-6.267-9.8-14-9.8zM16 23c-3.865 0-11.2-2.704-11.2-7s7.335-7 11.2-7c3.866 0 11.2 2.817 11.2 7 0 4.184-7.334 7-11.2 7z"></path>
	<path d="M16 10.4c-3.092 0-5.6 2.508-5.6 5.6 0 3.093 2.508 5.601 5.6 5.601 3.093 0 5.601-2.508 5.601-5.601s-2.508-5.6-5.601-5.6zM16 18.8c-1.546 0-2.8-1.255-2.8-2.8s1.254-2.8 2.8-2.8c1.545 0 2.8 1.254 2.8 2.8s-1.255 2.8-2.8 2.8z"></path>
</svg>
